<svg version="1.1" xmlns="http://www.w3.org/2000/svg" viewBox="0 0 195 232.3230926707438" width="195" height="232.3230926707438">
  <!-- svg-source:excalidraw -->
  
  <defs>
    <style class="style-fonts">
      
    </style>
    
  </defs>
  <g stroke-linecap="round" transform="translate(51.25206619871733 178.3310276115917) rotate(0 36.83056609603136 21.99603252957513)"><path d="M44.83 2 C52.56 2.92, 62.75 4.51, 67.64 7.84 C72.53 11.17, 74.81 16.81, 74.17 21.98 C73.54 27.15, 69.35 35.17, 63.85 38.87 C58.35 42.57, 49.2 44.06, 41.18 44.18 C33.16 44.29, 22.03 41.95, 15.71 39.53 C9.38 37.12, 5.39 34.38, 3.25 29.69 C1.11 25, 0.09 16.27, 2.84 11.42 C5.6 6.57, 8.55 -0.44, 19.79 0.58 C31.02 1.59, 63.09 11.82, 70.25 17.53 C77.42 23.24, 63.16 34.86, 62.79 34.84 M42.33 -0.47 C50.06 -0.32, 57.51 2.76, 63.2 6.19 C68.88 9.63, 75.54 15.84, 76.44 20.16 C77.34 24.48, 73.24 27.96, 68.6 32.12 C63.96 36.28, 56.86 43.95, 48.58 45.12 C40.31 46.3, 26.37 41.62, 18.93 39.18 C11.49 36.74, 7.3 34.59, 3.94 30.5 C0.59 26.41, -3.25 19.13, -1.2 14.65 C0.86 10.16, 9.28 5.72, 16.28 3.57 C23.28 1.43, 36.64 2.18, 40.8 1.75 C44.96 1.32, 41.09 1.23, 41.25 1" stroke="none" stroke-width="0" fill="#1e1e1e"></path><path d="M5.43 7.86 C9.3 4.12, 20.89 -0.27, 28.82 -0.92 C36.75 -1.57, 46.35 1.39, 53 3.98 C59.66 6.57, 65.51 10.52, 68.74 14.6 C71.97 18.68, 74.51 24.11, 72.37 28.47 C70.24 32.82, 62.37 37.94, 55.92 40.73 C49.47 43.51, 41.46 45.51, 33.69 45.16 C25.93 44.81, 14.83 42.22, 9.33 38.61 C3.84 35.01, 1.05 28.85, 0.7 23.54 C0.35 18.23, 5.42 9.39, 7.23 6.75 C9.05 4.11, 10.96 7.57, 11.59 7.7 M12.38 4.01 C17.79 1.14, 27.2 0.11, 34.97 -0.27 C42.75 -0.64, 52.43 -0.64, 59.04 1.76 C65.66 4.15, 72.59 8.86, 74.68 14.12 C76.76 19.38, 75.55 28.6, 71.55 33.31 C67.55 38.01, 58.19 40.99, 50.66 42.35 C43.12 43.72, 33.63 42.59, 26.34 41.5 C19.05 40.42, 11.67 39.27, 6.93 35.84 C2.18 32.41, -2.96 25.53, -2.12 20.93 C-1.29 16.33, 9.59 10.43, 11.93 8.22 C14.27 6, 11.62 8.1, 11.9 7.64" stroke="#1e1e1e" stroke-width="4" fill="none"></path></g><g stroke-linecap="round" transform="translate(10 10) rotate(0 87.5 91.47622246444826)"><path d="M32 0 C74.74 4.94, 118.41 2.08, 143 0 C159.97 3.57, 178.61 5.77, 175 32 C170.97 53.02, 176.95 79.96, 175 150.95 C177.02 175.43, 167.3 183.87, 143 182.95 C102.26 181.07, 53.99 184.3, 32 182.95 C9.92 188.29, -4.2 174.52, 0 150.95 C2.46 121.05, 3.41 90.45, 0 32 C-0.06 14.9, 9.96 1.35, 32 0" stroke="none" stroke-width="0" fill="#a5d8ff"></path><path d="M32 0 C73.91 -1.62, 105.29 -0.34, 143 0 M32 0 C72.15 -1.78, 110.35 0.08, 143 0 M143 0 C165.18 -3.05, 176.01 12.05, 175 32 M143 0 C167.29 -2.34, 178.05 12.06, 175 32 M175 32 C172.07 70.27, 170.98 100.41, 175 150.95 M175 32 C174.68 57.14, 174.38 84.93, 175 150.95 M175 150.95 C175.69 169, 167.13 179.5, 143 182.95 M175 150.95 C177.52 174.79, 162.65 183.33, 143 182.95 M143 182.95 C112.84 180.33, 80.17 184.3, 32 182.95 M143 182.95 C101.9 182.31, 61.96 185.3, 32 182.95 M32 182.95 C11.7 180.1, -3.56 169.48, 0 150.95 M32 182.95 C13.59 184.61, -3.39 173.76, 0 150.95 M0 150.95 C0.96 126.85, -1.27 100.59, 0 32 M0 150.95 C-3.64 102.25, -3.81 54.4, 0 32 M0 32 C3.68 8.83, 7.59 -1.17, 32 0 M0 32 C2.62 11.03, 9.52 -0.9, 32 0" stroke="#1e1e1e" stroke-width="4" fill="none"></path></g><g stroke-linecap="round" transform="translate(80.57924610594182 186.3801231232228) rotate(0 36.83056609603136 17.689913390740912)"><path d="M59.35 1.6 C65.69 4.04, 71.61 10.88, 73.52 14.92 C75.43 18.96, 74.49 22.76, 70.82 25.84 C67.14 28.92, 58.52 31.59, 51.44 33.38 C44.37 35.17, 36.01 37.79, 28.37 36.58 C20.73 35.37, 10.5 29.85, 5.59 26.11 C0.67 22.38, -1.79 17.42, -1.12 14.19 C-0.45 10.95, 3.8 9.33, 9.59 6.71 C15.38 4.1, 24.84 -1.44, 33.62 -1.51 C42.41 -1.57, 56.9 4.92, 62.3 6.33 C67.71 7.73, 66.44 6.6, 66.04 6.91 M33.24 0.55 C40.68 -0.68, 49.86 -2.16, 56.54 0 C63.21 2.16, 71.25 10.03, 73.3 13.51 C75.36 16.98, 71.79 17.76, 68.86 20.84 C65.94 23.93, 62.5 29.94, 55.73 32.01 C48.95 34.08, 35.91 33.85, 28.21 33.28 C20.51 32.71, 14.07 30.91, 9.54 28.6 C5.02 26.29, 0.99 23.07, 1.08 19.44 C1.17 15.82, 4.86 10.37, 10.11 6.87 C15.36 3.36, 28.79 -0.66, 32.6 -1.6 C36.41 -2.54, 33.64 1.09, 32.96 1.21" stroke="none" stroke-width="0" fill="#1e1e1e"></path><path d="M15.86 4.92 C21.31 3.2, 30.57 1.51, 38.45 1.63 C46.32 1.75, 57.51 3.13, 63.1 5.65 C68.7 8.16, 71.26 12.79, 72.01 16.72 C72.76 20.64, 72.08 25.94, 67.61 29.18 C63.15 32.41, 52.86 35.37, 45.21 36.12 C37.57 36.87, 29.03 35.65, 21.75 33.69 C14.47 31.73, 4.99 27.56, 1.52 24.34 C-1.95 21.12, -1.94 18.32, 0.94 14.36 C3.82 10.4, 15.19 2.88, 18.78 0.59 C22.38 -1.71, 22.41 -0.03, 22.52 0.59 M13.22 1.86 C18.82 -1.05, 30.25 -3.21, 38.33 -2.59 C46.41 -1.97, 56.1 2.73, 61.69 5.59 C67.29 8.45, 70.72 11.41, 71.9 14.59 C73.07 17.76, 72.28 21.12, 68.74 24.66 C65.2 28.19, 58.36 33.95, 50.65 35.79 C42.93 37.63, 29.92 36.84, 22.46 35.68 C15 34.52, 9.53 32.12, 5.88 28.85 C2.23 25.58, -0.54 20.54, 0.56 16.07 C1.67 11.6, 10.18 3.59, 12.5 2.05 C14.83 0.51, 13.95 6.57, 14.51 6.82" stroke="#1e1e1e" stroke-width="4" fill="none"></path></g><g stroke-linecap="round" transform="translate(29.6258902135487 102.23210616646247) rotate(0 22.273057180918386 16.985209073218357)"><path d="M28.75 4.25 C30.92 9.06, 38.29 8.86, 38.8 12.75 C41.15 17.43, 43.39 14.16, 38.8 21.25 C37.29 24.57, 35.3 25.65, 28.75 29.72 C25.77 31.71, 26.05 34.67, 17.25 29.72 C14.53 30.27, 10.42 26.98, 5.75 21.25 C-1.57 16.75, 0.3 18.43, 5.75 12.75 C9.21 12.04, 12.48 8.07, 17.25 4.25 C22.87 -2.86, 20.9 -0.15, 28.75 4.25" stroke="none" stroke-width="0" fill="#4dabf7"></path><path d="M28.75 4.25 C31.37 5.03, 32.87 8.99, 38.8 12.75 M28.75 4.25 C31.1 5.56, 33.27 8.1, 38.8 12.75 M38.8 12.75 C45.83 15.98, 45.87 17.61, 38.8 21.25 M38.8 12.75 C44.54 14.84, 43.67 16.6, 38.8 21.25 M38.8 21.25 C34.08 23.69, 30.11 27.85, 28.75 29.72 M38.8 21.25 C36.63 22.64, 34.68 24.54, 28.75 29.72 M28.75 29.72 C24.1 35.06, 22.27 34.14, 17.25 29.72 M28.75 29.72 C22.78 32.72, 23.51 35.18, 17.25 29.72 M17.25 29.72 C15.64 27.91, 12.66 25.88, 5.75 21.25 M17.25 29.72 C14.82 27.4, 11.42 25.51, 5.75 21.25 M5.75 21.25 C1.27 17.72, -1.48 17.64, 5.75 12.75 M5.75 21.25 C-2.13 18.01, 1.58 18.16, 5.75 12.75 M5.75 12.75 C10.76 11.49, 12.58 6.48, 17.25 4.25 M5.75 12.75 C9.14 10.55, 10.61 8.7, 17.25 4.25 M17.25 4.25 C24.14 0.16, 22.5 -0.39, 28.75 4.25 M17.25 4.25 C25 -0.41, 23.42 -0.09, 28.75 4.25" stroke="#1e1e1e" stroke-width="4" fill="none"></path></g><g stroke-linecap="round" transform="translate(74.93113822580926 103.11223027997767) rotate(0 20.908185890762525 15.944371974251226)"><path d="M26.25 4 C31.23 4.6, 31.08 9.72, 36.57 12 C40.66 13.16, 39.61 17, 36.57 20 C34.94 22.72, 32.58 23.1, 26.25 27.89 C24.05 32.59, 18.1 28.46, 15.75 27.89 C11.09 26.83, 8.92 23.53, 5.25 20 C0.3 17.43, 0.39 18.04, 5.25 12 C8.19 9.96, 11.65 5.03, 15.75 4 C18.9 -0.15, 19.82 -1.48, 26.25 4" stroke="none" stroke-width="0" fill="#4dabf7"></path><path d="M26.25 4 C28.78 7.14, 30.1 8.93, 36.57 12 M26.25 4 C29.59 6.76, 33.01 8.65, 36.57 12 M36.57 12 C43.14 16.61, 41.81 14.12, 36.57 20 M36.57 12 C40.94 15.6, 43.32 14.97, 36.57 20 M36.57 20 C32.87 22.22, 30.88 23.83, 26.25 27.89 M36.57 20 C34.05 21.64, 30.96 24.84, 26.25 27.89 M26.25 27.89 C20.27 32.05, 20.81 30.8, 15.75 27.89 M26.25 27.89 C21.51 33.1, 19.21 32.86, 15.75 27.89 M15.75 27.89 C12.83 25.27, 7.95 23.4, 5.25 20 M15.75 27.89 C11.22 24.4, 8.29 22.15, 5.25 20 M5.25 20 C-1.48 16.64, -1.85 16.88, 5.25 12 M5.25 20 C1.58 17.16, 0.32 15.87, 5.25 12 M5.25 12 C7.68 8.82, 10.03 6.52, 15.75 4 M5.25 12 C6.84 10.2, 9.9 8.79, 15.75 4 M15.75 4 C20.5 -0.39, 22.74 -0.36, 26.25 4 M15.75 4 C21.42 -0.09, 23.26 0.21, 26.25 4" stroke="#1e1e1e" stroke-width="4" fill="none"></path></g><g stroke-linecap="round" transform="translate(66.05579225899419 111.21229739351838) rotate(0 7.09829974550712 7.596426043437532)"><path d="M10 2 C10.27 3.55, 11.44 4.47, 12.2 6 C12.6 8.72, 13.75 8.94, 12.2 10 C11.82 10.83, 11.08 12.38, 10 13.19 C5.9 12.71, 7.4 14.85, 6 13.19 C4.16 11.9, 2.92 10.95, 2 10 C0.28 9.48, 0.23 7.97, 2 6 C3.48 3.9, 4.58 2.95, 6 2 C7.15 -1.07, 6.26 -2.36, 10 2" stroke="none" stroke-width="0" fill="#1e1e1e"></path><path d="M10 2 C10.29 3.05, 10.99 3.81, 12.2 6 M10 2 C10.57 2.83, 11.06 3.82, 12.2 6 M12.2 6 C14.19 7.06, 13.81 7.83, 12.2 10 M12.2 6 C14.95 7.49, 13.36 7.12, 12.2 10 M12.2 10 C11.48 10.86, 11.04 11.67, 10 13.19 M12.2 10 C11.78 10.74, 11.22 11.39, 10 13.19 M10 13.19 C7.91 14.65, 8.22 15.72, 6 13.19 M10 13.19 C7.11 15.68, 8.25 15.99, 6 13.19 M6 13.19 C4.59 12.34, 3.76 11.32, 2 10 M6 13.19 C5.18 12.49, 4.09 11.76, 2 10 M2 10 C-0.93 8.44, 0.69 8.5, 2 6 M2 10 C0.16 7.94, -0.3 9.13, 2 6 M2 6 C3.4 4.21, 4.91 3.1, 6 2 M2 6 C3.11 5, 4.01 3.95, 6 2 M6 2 C8.87 -0.18, 8.18 -0.04, 10 2 M6 2 C9.13 0.1, 8.54 -0.9, 10 2" stroke="#1e1e1e" stroke-width="4" fill="none"></path></g></svg>