<svg version="1.1" xmlns="http://www.w3.org/2000/svg" viewBox="0 0 195 231.9619843001492" width="195" height="231.9619843001492">
  <!-- svg-source:excalidraw -->
  
  <defs>
    <style class="style-fonts">
      
    </style>
    
  </defs>
  <g stroke-linecap="round" transform="translate(110.11091924952962 177.35432065235182) rotate(0 36.83056609603159 21.99603252957513)"><path d="M52.07 1.38 C59.02 2.96, 65.28 7.01, 68.52 11 C71.77 15, 73.41 20.38, 71.54 25.37 C69.66 30.35, 63.18 37.99, 57.27 40.92 C51.35 43.85, 43.73 43.34, 36.05 42.97 C28.36 42.61, 17.29 41.81, 11.16 38.73 C5.04 35.66, -0.04 29.19, -0.67 24.52 C-1.31 19.86, 2.67 14.63, 7.33 10.75 C11.99 6.87, 16.22 0.16, 27.29 1.23 C38.36 2.31, 68.02 10.86, 73.76 17.19 C79.49 23.53, 62.09 38.96, 61.69 39.24 M11.38 5.74 C16.92 2.96, 26.84 2.19, 35.04 1.82 C43.23 1.45, 54.52 1.02, 60.57 3.49 C66.63 5.95, 69.9 12.27, 71.37 16.6 C72.83 20.93, 72.7 25.2, 69.35 29.47 C66.01 33.74, 58.96 40.02, 51.31 42.25 C43.66 44.48, 30.89 43.93, 23.46 42.85 C16.04 41.76, 10.88 39.43, 6.75 35.75 C2.63 32.07, -2.58 25.79, -1.3 20.76 C-0.01 15.72, 12.22 8.16, 14.45 5.55 C16.68 2.94, 11.8 4.65, 12.1 5.08" stroke="none" stroke-width="0" fill="#1e1e1e"></path><path d="M59.76 6.12 C65.86 8.72, 70.35 13.41, 71.77 18.05 C73.18 22.7, 71.89 30.11, 68.23 33.99 C64.58 37.88, 56.92 39.93, 49.84 41.36 C42.75 42.79, 32.83 43.55, 25.73 42.59 C18.63 41.63, 11.51 39.33, 7.24 35.6 C2.97 31.88, -1 25.09, 0.11 20.24 C1.21 15.39, 8.15 9.61, 13.86 6.49 C19.56 3.37, 25.51 1.09, 34.33 1.52 C43.16 1.95, 60.84 6.87, 66.8 9.06 C72.76 11.25, 70.82 14.73, 70.09 14.66 M58.89 1.45 C65.84 3.29, 72.2 9.49, 74.45 13.83 C76.71 18.17, 75.89 22.67, 72.43 27.48 C68.97 32.29, 60.81 39.56, 53.7 42.7 C46.58 45.84, 36.97 47.64, 29.74 46.32 C22.5 44.99, 15.02 38.62, 10.28 34.74 C5.53 30.87, 1.39 27.21, 1.26 23.09 C1.13 18.98, 4.32 13.67, 9.5 10.07 C14.67 6.46, 24.4 2.51, 32.32 1.45 C40.24 0.39, 53.55 3.68, 57 3.68 C60.44 3.69, 53.18 1.2, 52.99 1.48" stroke="#1e1e1e" stroke-width="4" fill="none"></path></g><g stroke-linecap="round" transform="translate(10 10) rotate(0 87.5 91.47622246444826)"><path d="M32 0 C65.56 2.5, 90.15 -2.22, 143 0 C162.75 0.05, 169.63 12.03, 175 32 C175.05 71.04, 169.74 105.6, 175 150.95 C179.16 172.13, 163.19 181.31, 143 182.95 C107.13 180.59, 68.99 181.19, 32 182.95 C5.54 179.83, 5.53 172.51, 0 150.95 C-1.61 115.59, 1.09 88.86, 0 32 C4.7 9.64, 12.74 -1.89, 32 0" stroke="none" stroke-width="0" fill="#a5d8ff"></path><path d="M32 0 C60.77 -0.92, 91.31 1.77, 143 0 M32 0 C61.62 0.28, 86.53 1.34, 143 0 M143 0 C163.53 2.85, 178.49 10.27, 175 32 M143 0 C166.78 4.54, 176.56 8.82, 175 32 M175 32 C175.88 78.56, 174.72 118.71, 175 150.95 M175 32 C177.34 73.05, 177.31 115.7, 175 150.95 M175 150.95 C176.84 168.74, 163.56 184.73, 143 182.95 M175 150.95 C175.59 176.56, 167.95 181.61, 143 182.95 M143 182.95 C108.71 184.12, 68.82 184.14, 32 182.95 M143 182.95 C109.31 181.46, 74.71 182.59, 32 182.95 M32 182.95 C12.26 182.58, -3.14 174.21, 0 150.95 M32 182.95 C9.89 180.5, -2.17 169.51, 0 150.95 M0 150.95 C4.22 122.23, 0.9 98.68, 0 32 M0 150.95 C0.94 122.35, 0.52 91.57, 0 32 M0 32 C-2.97 13.85, 12.21 3.52, 32 0 M0 32 C-0.26 7.3, 7.3 -1.14, 32 0" stroke="#1e1e1e" stroke-width="4" fill="none"></path></g><g stroke-linecap="round" transform="translate(27.23454289614756 177.96991924099893) rotate(0 36.83056609603159 21.99603252957513)"><path d="M49.15 1.65 C56.84 2.79, 65 6.72, 69.12 10.32 C73.25 13.92, 74.83 18.49, 73.89 23.25 C72.95 28.02, 69.04 35.46, 63.46 38.9 C57.88 42.33, 48.8 43.99, 40.41 43.85 C32.02 43.71, 19.78 40.98, 13.12 38.06 C6.45 35.14, 1.92 30.73, 0.43 26.32 C-1.07 21.91, 0.25 15.57, 4.13 11.58 C8.02 7.59, 14.92 3.85, 23.74 2.41 C32.57 0.97, 50.21 1.86, 57.07 2.94 C63.93 4.02, 65.43 8.34, 64.9 8.89 M36.12 2.15 C43.63 1.96, 50.89 3.82, 57.36 6.29 C63.83 8.76, 73.01 12.85, 74.95 16.99 C76.9 21.12, 72.72 26.77, 69.02 31.12 C65.32 35.47, 59.73 40.82, 52.74 43.09 C45.76 45.36, 35.19 45.89, 27.08 44.73 C18.97 43.57, 8.8 40.85, 4.08 36.15 C-0.65 31.45, -2.25 21.1, -1.25 16.55 C-0.25 12, 4.01 11.76, 10.07 8.86 C16.12 5.95, 31.29 0.89, 35.06 -0.87 C38.83 -2.63, 33.04 -1.93, 32.68 -1.71" stroke="none" stroke-width="0" fill="#1e1e1e"></path><path d="M67 8.52 C72.08 11.84, 73.05 18.79, 72.86 23.48 C72.67 28.16, 70.81 33.1, 65.87 36.63 C60.93 40.15, 51.22 44.1, 43.22 44.63 C35.21 45.16, 24.47 42.24, 17.82 39.8 C11.17 37.36, 5.9 33.91, 3.34 29.99 C0.78 26.07, 0.17 20.5, 2.47 16.29 C4.78 12.08, 10.52 7.23, 17.17 4.72 C23.81 2.22, 33.25 -1.84, 42.35 1.25 C51.46 4.34, 68.59 17.07, 71.79 23.27 C74.98 29.46, 61.56 38.15, 61.55 38.44 M26.36 3.64 C33.33 1.99, 44.79 1.53, 52.15 3 C59.51 4.48, 67.57 8.85, 70.52 12.49 C73.47 16.13, 71.53 20.3, 69.86 24.85 C68.19 29.4, 66.03 36.29, 60.49 39.79 C54.95 43.29, 44.57 46.18, 36.62 45.84 C28.68 45.5, 19.25 41.05, 12.8 37.74 C6.34 34.44, -0.89 30.93, -2.1 26.03 C-3.31 21.13, 1.03 12.82, 5.51 8.34 C10 3.86, 21.68 0.75, 24.79 -0.87 C27.9 -2.49, 23.4 -2.29, 24.16 -1.38" stroke="#1e1e1e" stroke-width="4" fill="none"></path></g><g stroke-linecap="round" transform="translate(72.61235653871927 105.6096142348706) rotate(0 22.273057180918386 16.985209073218357)"><path d="M28.75 4.25 C30.35 5.34, 34.13 9.03, 38.8 12.75 C45.17 16.2, 45.11 14.73, 38.8 21.25 C34.6 22.46, 34.89 27.53, 28.75 29.72 C21.87 34.19, 23.21 33.77, 17.25 29.72 C12.65 27.08, 7.56 23.48, 5.75 21.25 C0.38 17.03, -2.11 15.1, 5.75 12.75 C11.21 8.06, 11.31 6.58, 17.25 4.25 C20.04 -2.04, 20.08 2.86, 28.75 4.25" stroke="none" stroke-width="0" fill="#4dabf7"></path><path d="M28.75 4.25 C33.32 6.67, 36.09 10.62, 38.8 12.75 M28.75 4.25 C31.1 5.5, 32.99 7.87, 38.8 12.75 M38.8 12.75 C42.9 15.64, 43.82 18.3, 38.8 21.25 M38.8 12.75 C42.76 18.82, 43.53 19, 38.8 21.25 M38.8 21.25 C36.7 22.59, 35.48 24.31, 28.75 29.72 M38.8 21.25 C35.71 23.6, 32.68 26.81, 28.75 29.72 M28.75 29.72 C23.7 33.28, 23.04 34.16, 17.25 29.72 M28.75 29.72 C20.83 33.81, 21.88 32.08, 17.25 29.72 M17.25 29.72 C14.18 26.55, 9.76 24.3, 5.75 21.25 M17.25 29.72 C13.08 26.94, 9.34 23.83, 5.75 21.25 M5.75 21.25 C0.51 15.29, -1.78 17.14, 5.75 12.75 M5.75 21.25 C2.05 17.25, 0.45 17.1, 5.75 12.75 M5.75 12.75 C7.76 12.16, 11.3 8.65, 17.25 4.25 M5.75 12.75 C10.14 9.84, 15.3 6.2, 17.25 4.25 M17.25 4.25 C21.58 0.85, 24.18 1.51, 28.75 4.25 M17.25 4.25 C20.81 -0.75, 22.87 1.37, 28.75 4.25" stroke="#1e1e1e" stroke-width="4" fill="none"></path></g><g stroke-linecap="round" transform="translate(117.9176045509771 106.48973834838944) rotate(0 20.908185890762525 15.944371974251226)"><path d="M26.25 4 C28.34 6.22, 34.32 9.65, 36.57 12 C42.38 13.73, 41.76 18.15, 36.57 20 C35.69 23.29, 30.21 24.28, 26.25 27.89 C21.21 31.69, 22.14 31.09, 15.75 27.89 C10.49 24.74, 9.28 22.84, 5.25 20 C-2.11 14.1, 0.46 15.19, 5.25 12 C6.93 8.86, 9.83 5.74, 15.75 4 C18.08 2.86, 17.55 -2.31, 26.25 4" stroke="none" stroke-width="0" fill="#4dabf7"></path><path d="M26.25 4 C29.29 6.44, 30.37 8.49, 36.57 12 M26.25 4 C29.21 6.41, 31.79 8.34, 36.57 12 M36.57 12 C41.09 17.3, 40.27 17.58, 36.57 20 M36.57 12 C40.8 18, 39.62 14.09, 36.57 20 M36.57 20 C34.34 21.93, 30.52 25.61, 26.25 27.89 M36.57 20 C33.49 22.65, 30.61 24.46, 26.25 27.89 M26.25 27.89 C21.04 32.08, 19.12 31.75, 15.75 27.89 M26.25 27.89 C19.88 30, 22.36 33.37, 15.75 27.89 M15.75 27.89 C13.54 26.33, 10.47 24.15, 5.25 20 M15.75 27.89 C13.64 26.34, 11.53 24.06, 5.25 20 M5.25 20 C-1.78 16.14, 1.78 16.22, 5.25 12 M5.25 20 C0.45 16.1, -1.96 13.83, 5.25 12 M5.25 12 C9.48 8.72, 13.97 6.9, 15.75 4 M5.25 12 C9.88 9.01, 13.18 5.81, 15.75 4 M15.75 4 C22.18 1.51, 19.1 -0.65, 26.25 4 M15.75 4 C20.87 1.37, 22.03 2.23, 26.25 4" stroke="#1e1e1e" stroke-width="4" fill="none"></path></g><g stroke-linecap="round" transform="translate(109.04225858416339 114.5898054619247) rotate(0 7.098299745507347 7.596426043437532)"><path d="M10 2 C11.25 3.62, 10.82 3.91, 12.2 6 C12.33 6.97, 14.65 7.42, 12.2 10 C11.78 10.85, 10.51 11.75, 10 13.19 C10.19 16.6, 7.18 15.35, 6 13.19 C4.63 12.38, 3.34 11.29, 2 10 C-2.12 7.32, 0.27 8.02, 2 6 C2.83 5.15, 4.48 3.49, 6 2 C6.32 -0.83, 5.86 -1.47, 10 2" stroke="none" stroke-width="0" fill="#1e1e1e"></path><path d="M10 2 C10.64 3.32, 11.78 4.76, 12.2 6 M10 2 C10.77 3.32, 11.48 4.55, 12.2 6 M12.2 6 C14.06 7.96, 13.37 7.32, 12.2 10 M12.2 6 C13.78 8.75, 13.31 8.91, 12.2 10 M12.2 10 C11.49 10.8, 11.09 11.57, 10 13.19 M12.2 10 C11.46 11.17, 10.58 12.29, 10 13.19 M10 13.19 C8.03 15.71, 8.35 14.85, 6 13.19 M10 13.19 C8.02 15.3, 6.92 15.11, 6 13.19 M6 13.19 C5.17 12.34, 4.2 11.58, 2 10 M6 13.19 C4.62 11.94, 3.1 10.96, 2 10 M2 10 C0.12 8.1, 0.25 7.15, 2 6 M2 10 C-1.02 8.08, 1.03 8.13, 2 6 M2 6 C3.01 4.89, 4.45 3.72, 6 2 M2 6 C3.42 4.77, 4.68 3.4, 6 2 M6 2 C8.65 0.43, 7.29 0.42, 10 2 M6 2 C8.68 0.87, 6.9 -0.38, 10 2" stroke="#1e1e1e" stroke-width="4" fill="none"></path></g></svg>