<svg version="1.1" xmlns="http://www.w3.org/2000/svg" viewBox="0 0 195 234.06176824879003" width="195" height="234.06176824879003">
  <!-- svg-source:excalidraw -->
  
  <defs>
    <style class="style-fonts">
      
    </style>
    
  </defs>
  <g stroke-linecap="round" transform="translate(83.14572592107788 177.35432065235) rotate(0 36.83056609603159 21.99603252957513)"><path d="M42.88 -1.06 C49.71 -0.42, 58.06 3.11, 63.24 6.83 C68.41 10.54, 73.35 16.26, 73.92 21.21 C74.49 26.16, 71.63 32.98, 66.65 36.54 C61.67 40.1, 51.91 41.72, 44.04 42.58 C36.17 43.45, 26.45 44.02, 19.43 41.75 C12.4 39.49, 5.04 33.71, 1.88 29.01 C-1.28 24.31, -2.31 17.97, 0.47 13.55 C3.25 9.13, 6.72 2.46, 18.54 2.5 C30.36 2.53, 63.87 8.53, 71.4 13.76 C78.92 19, 64.48 33.89, 63.69 33.92 M50.76 4.44 C57.43 6.3, 65.77 9.18, 69.03 13.23 C72.29 17.28, 72.02 24, 70.31 28.75 C68.61 33.5, 64.63 39.34, 58.79 41.72 C52.95 44.1, 43.5 44.13, 35.28 43.03 C27.06 41.92, 15.69 38.37, 9.48 35.1 C3.27 31.83, -1.21 27.3, -1.98 23.39 C-2.75 19.49, -0.19 15.29, 4.84 11.65 C9.86 8.01, 20.09 2.8, 28.17 1.55 C36.25 0.3, 48.97 4.34, 53.32 4.14 C57.67 3.95, 55.17 0.86, 54.28 0.4" stroke="none" stroke-width="0" fill="#1e1e1e"></path><path d="M16.89 4.66 C23.61 2.2, 36.91 -1.92, 44.86 -1.51 C52.82 -1.1, 59.88 3.37, 64.61 7.13 C69.34 10.89, 73.36 16.24, 73.23 21.05 C73.1 25.85, 69.18 32.44, 63.85 35.96 C58.51 39.48, 48.93 41.18, 41.22 42.17 C33.51 43.16, 24.18 44.06, 17.57 41.89 C10.96 39.71, 4.06 33.55, 1.56 29.13 C-0.94 24.71, -0.65 20.21, 2.57 15.38 C5.78 10.55, 17.07 2.62, 20.84 0.15 C24.62 -2.31, 24.8 0.14, 25.22 0.6 M34.39 -0.71 C41.78 -1.52, 51.53 -0.62, 58.4 2.72 C65.27 6.06, 73.69 14.58, 75.6 19.32 C77.52 24.06, 73.6 27.59, 69.89 31.16 C66.18 34.73, 60.5 39.13, 53.33 40.75 C46.16 42.38, 35.15 42.43, 26.87 40.91 C18.59 39.39, 7.98 35.64, 3.65 31.63 C-0.68 27.63, -0.98 21.28, 0.89 16.86 C2.75 12.44, 9.15 7.44, 14.82 5.12 C20.49 2.8, 31.1 4.04, 34.92 2.93 C38.74 1.83, 37.56 -1.72, 37.73 -1.51" stroke="#1e1e1e" stroke-width="4" fill="none"></path></g><g stroke-linecap="round" transform="translate(10 10) rotate(0 87.5 91.47622246444826)"><path d="M32 0 C61.41 -2.93, 90.59 2.25, 143 0 C167.69 2.6, 173.33 7.87, 175 32 C169.51 61.51, 174.74 84.45, 175 150.95 C177.19 176.3, 168.89 179.24, 143 182.95 C118.14 188.23, 98.51 184.28, 32 182.95 C15.71 179.2, -0.52 169.19, 0 150.95 C2.14 104.24, -6.81 66.25, 0 32 C-4.24 10.49, 10.54 -0.64, 32 0" stroke="none" stroke-width="0" fill="#a5d8ff"></path><path d="M32 0 C72.44 -2.63, 114.16 4.7, 143 0 M32 0 C72.4 0.2, 113.37 -0.43, 143 0 M143 0 C163.79 -3.59, 171.98 9.35, 175 32 M143 0 C166.41 -1.36, 174.38 11.3, 175 32 M175 32 C170.07 72.4, 171.99 113.93, 175 150.95 M175 32 C174.31 66.63, 174.28 101.06, 175 150.95 M175 150.95 C178.79 175.17, 164.77 181.73, 143 182.95 M175 150.95 C178.49 169.94, 165.84 179.76, 143 182.95 M143 182.95 C114.68 187.35, 91.66 183.16, 32 182.95 M143 182.95 C99.42 182.81, 55.47 183.23, 32 182.95 M32 182.95 C11.37 186.77, -3.72 171.48, 0 150.95 M32 182.95 C7.45 178.72, -2.43 172.88, 0 150.95 M0 150.95 C-0.23 117.97, 0.16 90.75, 0 32 M0 150.95 C-0.33 117.3, 0.14 83.61, 0 32 M0 32 C-0.9 7.85, 7.69 -2.4, 32 0 M0 32 C-2.41 12.64, 12.24 -1.23, 32 0" stroke="#1e1e1e" stroke-width="4" fill="none"></path></g><g stroke-linecap="round" transform="translate(47.73033063591129 180.06970318963795) rotate(0 36.83056609603159 21.99603252957513)"><path d="M13.41 4.33 C19.43 1.48, 30.47 0.43, 38.46 0.38 C46.45 0.34, 55.41 0.98, 61.36 4.06 C67.31 7.15, 72.98 14.15, 74.16 18.89 C75.33 23.63, 72.82 28.7, 68.4 32.51 C63.99 36.32, 55.02 40.15, 47.67 41.77 C40.32 43.39, 31.42 43.77, 24.32 42.24 C17.22 40.7, 9.26 36.81, 5.06 32.55 C0.87 28.29, -3.43 21.97, -0.85 16.69 C1.74 11.41, 15.01 3.43, 20.57 0.88 C26.12 -1.68, 32.14 0.99, 32.5 1.35 M61.53 8.16 C67.28 11.42, 73.19 18.22, 74.22 22.57 C75.25 26.92, 72.79 31.23, 67.71 34.28 C62.63 37.33, 52 39.74, 43.73 40.85 C35.46 41.96, 25.14 42.29, 18.07 40.95 C11 39.6, 3.87 36.89, 1.31 32.8 C-1.25 28.7, -0.05 20.9, 2.71 16.39 C5.46 11.88, 11.02 8.78, 17.84 5.74 C24.67 2.7, 36.44 -1.6, 43.64 -1.83 C50.84 -2.07, 57.77 2.93, 61.07 4.34 C64.37 5.74, 63.01 5.65, 63.45 6.58" stroke="none" stroke-width="0" fill="#1e1e1e"></path><path d="M64.85 7.3 C69.63 10.73, 73.43 16.46, 73.23 21.27 C73.02 26.07, 69 32.64, 63.6 36.13 C58.21 39.62, 48.58 41.27, 40.85 42.21 C33.13 43.15, 23.82 43.99, 17.25 41.77 C10.68 39.56, 3.86 33.35, 1.43 28.92 C-0.99 24.49, 0.05 19.79, 2.7 15.17 C5.35 10.55, 10.71 3.76, 17.31 1.18 C23.91 -1.39, 33.99 -1.64, 42.3 -0.3 C50.62 1.04, 62.76 7.15, 67.2 9.21 C71.64 11.28, 69.37 11.84, 68.96 12.1 M30.7 2.83 C38.03 1.61, 46.24 -0.15, 53.24 1.29 C60.24 2.73, 69.39 7.37, 72.72 11.48 C76.06 15.59, 76.14 21.52, 73.23 25.94 C70.33 30.35, 61.89 35.36, 55.29 37.96 C48.69 40.56, 40.63 41.76, 33.64 41.53 C26.65 41.3, 18.98 39.1, 13.36 36.59 C7.74 34.08, 0.55 31.39, -0.07 26.48 C-0.7 21.57, 4.83 11.1, 9.6 7.12 C14.38 3.15, 25.35 3.21, 28.56 2.65 C31.78 2.08, 28.78 3.2, 28.9 3.71" stroke="#1e1e1e" stroke-width="4" fill="none"></path></g><g stroke-linecap="round" transform="translate(72.61235653871881 105.60961423487242) rotate(0 22.273057180918386 16.985209073218357)"><path d="M28.75 4.25 C32.52 7.25, 32.68 6.9, 38.8 12.75 C41.47 14.43, 43.73 15, 38.8 21.25 C36.05 26.14, 33.32 26.02, 28.75 29.72 C19.86 30.84, 23.36 33.18, 17.25 29.72 C15.02 24.74, 8 21.75, 5.75 21.25 C2.1 19.01, -3.48 19.57, 5.75 12.75 C6.55 10.72, 11.05 8.58, 17.25 4.25 C25.63 0.9, 25.02 -0.89, 28.75 4.25" stroke="none" stroke-width="0" fill="#4dabf7"></path><path d="M28.75 4.25 C31.68 4.68, 32.43 7.11, 38.8 12.75 M28.75 4.25 C31.41 6.08, 33.8 8.82, 38.8 12.75 M38.8 12.75 C45.45 16.41, 44.28 17.27, 38.8 21.25 M38.8 12.75 C45.73 15.14, 42.72 15.27, 38.8 21.25 M38.8 21.25 C36.05 23.33, 33.5 25.4, 28.75 29.72 M38.8 21.25 C36.63 24, 33.31 25.66, 28.75 29.72 M28.75 29.72 C24.52 32.95, 23.65 32.58, 17.25 29.72 M28.75 29.72 C21.32 32.25, 23.45 32.17, 17.25 29.72 M17.25 29.72 C14.06 27.58, 7.15 23.29, 5.75 21.25 M17.25 29.72 C13.14 27.4, 8.14 23.48, 5.75 21.25 M5.75 21.25 C-1.4 15.16, -1.05 17.26, 5.75 12.75 M5.75 21.25 C-0.94 18.89, 0.44 17.99, 5.75 12.75 M5.75 12.75 C8.3 10.28, 10.1 7.89, 17.25 4.25 M5.75 12.75 C9.1 9.66, 12.23 7.15, 17.25 4.25 M17.25 4.25 C21.95 0.86, 23.68 -0.53, 28.75 4.25 M17.25 4.25 C21.93 1.88, 22.18 0.52, 28.75 4.25" stroke="#1e1e1e" stroke-width="4" fill="none"></path></g><g stroke-linecap="round" transform="translate(117.91760455097665 106.48973834838762) rotate(0 20.908185890762525 15.944371974251226)"><path d="M26.25 4 C28.94 5.3, 30.94 7.36, 36.57 12 C41 14, 44.38 17.36, 36.57 20 C35.17 21.15, 27.87 23.24, 26.25 27.89 C21.36 31.09, 24.19 33.67, 15.75 27.89 C12.06 23.94, 10.32 24.06, 5.25 20 C-3.48 18.57, -2.63 12.82, 5.25 12 C8.56 9.26, 13.59 7.65, 15.75 4 C23.02 -0.89, 18.51 0.87, 26.25 4" stroke="none" stroke-width="0" fill="#4dabf7"></path><path d="M26.25 4 C29.95 6.67, 34.05 9.61, 36.57 12 M26.25 4 C28.29 5.85, 31.63 7.85, 36.57 12 M36.57 12 C41.55 16.27, 42.84 14.38, 36.57 20 M36.57 12 C39.99 14.27, 41.01 15.37, 36.57 20 M36.57 20 C33.94 21.73, 30.9 23.75, 26.25 27.89 M36.57 20 C34.23 21.78, 32.16 23.54, 26.25 27.89 M26.25 27.89 C21.65 30.5, 19.54 30.39, 15.75 27.89 M26.25 27.89 C21.45 30.09, 23.28 31.34, 15.75 27.89 M15.75 27.89 C11.72 25.97, 10.36 23.71, 5.25 20 M15.75 27.89 C11.06 24.8, 7.15 21.27, 5.25 20 M5.25 20 C-1.05 16.26, -0.82 17.64, 5.25 12 M5.25 20 C0.44 16.99, -1.24 17.21, 5.25 12 M5.25 12 C7.63 8.75, 12.37 6.36, 15.75 4 M5.25 12 C7.99 9.23, 11.35 7.46, 15.75 4 M15.75 4 C21.68 -0.53, 20.07 1.63, 26.25 4 M15.75 4 C20.18 0.52, 19.34 0.93, 26.25 4" stroke="#1e1e1e" stroke-width="4" fill="none"></path></g><g stroke-linecap="round" transform="translate(109.04225858416248 114.5898054619247) rotate(0 7.098299745507347 7.596426043437532)"><path d="M10 2 C10.24 2.98, 11.37 4.46, 12.2 6 C16.05 8.98, 14.86 9.02, 12.2 10 C10.97 10.73, 10.65 12.24, 10 13.19 C10.31 16.48, 8.47 17.53, 6 13.19 C5.46 12.79, 3.5 12.15, 2 10 C-1.9 5.7, 0.25 6.03, 2 6 C3.73 5, 4.79 3.45, 6 2 C6.2 0.63, 9.86 -1.02, 10 2" stroke="none" stroke-width="0" fill="#1e1e1e"></path><path d="M10 2 C10.4 2.71, 10.78 3.63, 12.2 6 M10 2 C10.5 2.81, 10.89 3.7, 12.2 6 M12.2 6 C14.71 7.19, 13.4 7.25, 12.2 10 M12.2 6 C13.8 7.69, 13.72 7.95, 12.2 10 M12.2 10 C11.51 10.88, 10.81 12.04, 10 13.19 M12.2 10 C11.45 11.14, 10.59 12.31, 10 13.19 M10 13.19 C7.27 14.44, 8.2 14.41, 6 13.19 M10 13.19 C9.14 14.92, 7.94 16.31, 6 13.19 M6 13.19 C4.63 12.04, 3.14 10.77, 2 10 M6 13.19 C4.34 11.81, 2.78 10.68, 2 10 M2 10 C-0.41 8.82, 0.19 8.43, 2 6 M2 10 C-0.62 8.61, 0.42 7.81, 2 6 M2 6 C3.13 4.84, 4.24 3.74, 6 2 M2 6 C2.86 5.15, 3.9 4.14, 6 2 M6 2 C7.54 0.82, 7.65 0.22, 10 2 M6 2 C7.17 0.47, 8.24 0.69, 10 2" stroke="#1e1e1e" stroke-width="4" fill="none"></path></g></svg>