<svg version="1.1" xmlns="http://www.w3.org/2000/svg" viewBox="0 0 195 228.37137610758873" width="195" height="228.37137610758873">
  <!-- svg-source:excalidraw -->
  
  <defs>
    <style class="style-fonts">
      
    </style>
    
  </defs>
  <g stroke-linecap="round" transform="translate(38.28054230803991 174.37931104843847) rotate(0 36.830566096031816 21.99603252957513)"><path d="M62.22 5.81 C67.27 9.15, 71.49 16.12, 72.43 21.14 C73.37 26.16, 72.64 32.38, 67.88 35.94 C63.13 39.5, 51.77 41.86, 43.89 42.49 C36.01 43.13, 27.22 41.94, 20.59 39.76 C13.96 37.58, 7.07 33.09, 4.1 29.43 C1.13 25.77, 0.6 22.09, 2.77 17.8 C4.95 13.51, 10.72 6.42, 17.15 3.68 C23.58 0.93, 32.74 -0.03, 41.37 1.31 C49.99 2.64, 64.26 9.26, 68.9 11.67 C73.54 14.08, 69.67 15.62, 69.2 15.78 M45.69 -1.95 C53.13 -0.41, 62.91 7.48, 67.47 11.61 C72.02 15.75, 74.33 18.7, 73.02 22.86 C71.71 27.02, 65.1 33.01, 59.6 36.58 C54.11 40.15, 47.7 43.41, 40.06 44.29 C32.42 45.17, 20.28 44.67, 13.75 41.88 C7.22 39.08, 2.41 32.93, 0.87 27.5 C-0.66 22.07, 0.84 14, 4.56 9.3 C8.27 4.6, 15.88 0.73, 23.17 -0.7 C30.46 -2.14, 44.55 0.62, 48.3 0.71 C52.06 0.79, 46.2 -0.31, 45.69 -0.18" stroke="none" stroke-width="0" fill="#1e1e1e"></path><path d="M40.28 0.43 C48.02 0.56, 59.23 3.51, 64.48 6.62 C69.74 9.74, 71.43 14.63, 71.83 19.12 C72.23 23.6, 70.93 29.75, 66.88 33.55 C62.82 37.36, 55.11 40.52, 47.52 41.96 C39.94 43.4, 28.8 44.17, 21.35 42.17 C13.91 40.18, 6.14 34.17, 2.86 30 C-0.41 25.82, -0.58 21.61, 1.7 17.14 C3.98 12.67, 5.97 5.01, 16.54 3.17 C27.12 1.33, 56.05 2.48, 65.16 6.09 C74.27 9.7, 71.69 24.4, 71.19 24.81 M66.25 7.93 C70.81 10.88, 72.92 17.52, 71.82 22.78 C70.71 28.04, 64.78 35.86, 59.61 39.51 C54.44 43.17, 47.86 45.11, 40.79 44.72 C33.73 44.33, 23.39 40.33, 17.21 37.19 C11.03 34.05, 6.21 29.81, 3.7 25.87 C1.19 21.94, -0.53 17.42, 2.17 13.6 C4.86 9.78, 12 4.95, 19.89 2.95 C27.78 0.95, 41.1 0.31, 49.51 1.6 C57.92 2.88, 67.15 8.81, 70.34 10.68 C73.54 12.55, 69.94 13, 68.67 12.83" stroke="#1e1e1e" stroke-width="4" fill="none"></path></g><g stroke-linecap="round" transform="translate(10 10) rotate(0 87.5 91.47622246444826)"><path d="M32 0 C62.96 -0.73, 84.29 -4.86, 143 0 C161.82 1.71, 175.64 8.38, 175 32 C176.16 70.86, 176.85 115.86, 175 150.95 C177.01 171.93, 161.85 180.15, 143 182.95 C113.1 184.92, 85.14 185.76, 32 182.95 C10.38 177.43, -2.83 174.97, 0 150.95 C-4.28 126.94, 2.32 97.72, 0 32 C1 6.05, 7.06 -2.08, 32 0" stroke="none" stroke-width="0" fill="#a5d8ff"></path><path d="M32 0 C63.4 -0.06, 94.3 0.5, 143 0 M32 0 C73.32 1.74, 115.51 3.02, 143 0 M143 0 C161.77 0.15, 175.48 9.48, 175 32 M143 0 C161.34 1.03, 176.92 12.61, 175 32 M175 32 C172.09 65.41, 175.58 92.46, 175 150.95 M175 32 C172.91 78.13, 172.61 125.64, 175 150.95 M175 150.95 C171.36 174.48, 166.34 183.99, 143 182.95 M175 150.95 C178.25 168.35, 168.37 180.84, 143 182.95 M143 182.95 C117.09 184.65, 89.29 185.31, 32 182.95 M143 182.95 C105.17 184.17, 67.96 184.02, 32 182.95 M32 182.95 C13.9 186.3, -2.49 169.8, 0 150.95 M32 182.95 C8.38 180.3, 1.29 175.44, 0 150.95 M0 150.95 C2.14 105.92, 3.96 65.88, 0 32 M0 150.95 C-2.37 108.09, -1.18 64.94, 0 32 M0 32 C2.37 7.33, 12.57 1.99, 32 0 M0 32 C2.23 11.98, 9.58 -2.26, 32 0" stroke="#1e1e1e" stroke-width="4" fill="none"></path></g><g stroke-linecap="round" transform="translate(90.83064195481529 181.45376903782926) rotate(0 36.83056609603136 17.689913390740912)"><path d="M20.66 3.05 C26.95 0.9, 35.04 -0.8, 42.55 -0.52 C50.07 -0.24, 60.42 1.86, 65.76 4.74 C71.11 7.62, 74.66 12.32, 74.64 16.76 C74.63 21.21, 70.96 28.34, 65.68 31.4 C60.4 34.47, 50.93 34.75, 42.99 35.17 C35.05 35.59, 24.78 35.72, 18.05 33.94 C11.31 32.15, 5.43 28.1, 2.58 24.47 C-0.28 20.84, -3.13 15.93, 0.91 12.14 C4.94 8.36, 21.38 3.81, 26.8 1.78 C32.21 -0.25, 33.52 0.04, 33.37 -0.01 M6.53 5.77 C10.1 2.2, 17.27 -0.19, 25.14 -0.8 C33.01 -1.41, 46.4 -0.13, 53.74 2.1 C61.09 4.33, 66.12 9.14, 69.18 12.6 C72.25 16.05, 73.94 20.02, 72.12 22.82 C70.3 25.62, 64.59 27.74, 58.28 29.4 C51.96 31.05, 42.02 32.67, 34.23 32.75 C26.43 32.82, 17.44 32.39, 11.53 29.85 C5.62 27.3, -0.3 21.5, -1.23 17.5 C-2.15 13.5, 4.53 7.5, 5.98 5.83 C7.43 4.16, 6.64 6.9, 7.48 7.48" stroke="none" stroke-width="0" fill="#1e1e1e"></path><path d="M41.53 -0.69 C48.7 -0.49, 59.36 2.41, 64.91 5.26 C70.45 8.11, 74.77 12.4, 74.81 16.4 C74.85 20.41, 70.49 26.4, 65.13 29.3 C59.77 32.2, 50.35 33.05, 42.64 33.81 C34.93 34.57, 25.47 35.66, 18.87 33.85 C12.28 32.03, 5.8 26.91, 3.07 22.93 C0.35 18.96, 0.24 13.23, 2.53 10.01 C4.81 6.8, 6.79 4.6, 16.77 3.65 C26.75 2.69, 52.85 2.74, 62.4 4.27 C71.94 5.8, 74.23 12.65, 74.03 12.84 M13.09 4.81 C19.51 2.96, 33.02 1.21, 41.69 0.85 C50.35 0.49, 59.35 0.33, 65.09 2.66 C70.84 5, 76.13 10.42, 76.17 14.84 C76.2 19.26, 70.64 25.7, 65.31 29.2 C59.98 32.71, 51.12 35, 44.17 35.87 C37.21 36.74, 29.87 36.06, 23.56 34.42 C17.25 32.78, 9.71 29.12, 6.31 26.03 C2.91 22.94, 1.83 19.91, 3.15 15.88 C4.46 11.85, 12.4 4.17, 14.19 1.84 C15.99 -0.48, 12.89 1.03, 13.91 1.91" stroke="#1e1e1e" stroke-width="4" fill="none"></path></g><g stroke-linecap="round" transform="translate(29.6258902135487 102.23210616646247) rotate(0 22.273057180918386 16.985209073218357)"><path d="M28.75 4.25 C30.48 7.56, 34.69 8.31, 38.8 12.75 C47.15 16.81, 44.94 17.86, 38.8 21.25 C37.66 22.67, 33.73 23.35, 28.75 29.72 C21.84 32.14, 22.93 33.87, 17.25 29.72 C13.21 24.44, 8.17 25.36, 5.75 21.25 C-2.24 19.42, 3 15.69, 5.75 12.75 C10.41 7.3, 12.62 5.27, 17.25 4.25 C25.68 0.88, 25.34 -2.35, 28.75 4.25" stroke="none" stroke-width="0" fill="#4dabf7"></path><path d="M28.75 4.25 C32.87 6.93, 33.74 8.76, 38.8 12.75 M28.75 4.25 C31.23 6.71, 34.68 8.98, 38.8 12.75 M38.8 12.75 C43.24 17.45, 45.38 17.85, 38.8 21.25 M38.8 12.75 C43.61 17.35, 42.67 15.11, 38.8 21.25 M38.8 21.25 C36.44 23.58, 32.42 26.86, 28.75 29.72 M38.8 21.25 C35.75 23.59, 34.27 25.42, 28.75 29.72 M28.75 29.72 C24.41 32.26, 24.76 33.05, 17.25 29.72 M28.75 29.72 C21.77 34.97, 21.42 34.79, 17.25 29.72 M17.25 29.72 C13.3 27.49, 9.82 22.61, 5.75 21.25 M17.25 29.72 C14.95 28.09, 10.98 24.88, 5.75 21.25 M5.75 21.25 C-0.99 15.85, 0.56 18.37, 5.75 12.75 M5.75 21.25 C1.05 15.1, -1.01 17.1, 5.75 12.75 M5.75 12.75 C8.96 12.53, 10.9 9.38, 17.25 4.25 M5.75 12.75 C9.86 9.36, 13.5 7.55, 17.25 4.25 M17.25 4.25 C23.97 0.57, 22.53 -0.98, 28.75 4.25 M17.25 4.25 C21.82 -2.18, 22.97 1.37, 28.75 4.25" stroke="#1e1e1e" stroke-width="4" fill="none"></path></g><g stroke-linecap="round" transform="translate(74.93113822580744 103.11223027997767) rotate(0 20.908185890762525 15.944371974251226)"><path d="M26.25 4 C28.64 4.68, 32.27 7.22, 36.57 12 C42.21 16.86, 38.32 17.3, 36.57 20 C33.36 20.52, 31.43 22.19, 26.25 27.89 C20.93 31.79, 22.31 32.93, 15.75 27.89 C10.87 26.06, 6.91 23.75, 5.25 20 C3 14.69, 2.75 18.93, 5.25 12 C7.47 8.4, 14.54 6.99, 15.75 4 C23.34 -2.35, 22.45 0.61, 26.25 4" stroke="none" stroke-width="0" fill="#4dabf7"></path><path d="M26.25 4 C28.49 5.91, 32.78 8.38, 36.57 12 M26.25 4 C29.96 6.66, 33.15 9.86, 36.57 12 M36.57 12 C42.65 16.85, 41.01 16.31, 36.57 20 M36.57 12 C39.94 14.11, 43.28 16.12, 36.57 20 M36.57 20 C34.8 21.55, 30.32 23.47, 26.25 27.89 M36.57 20 C34.27 22.18, 31.85 23.4, 26.25 27.89 M26.25 27.89 C22.76 30.97, 19.93 32.76, 15.75 27.89 M26.25 27.89 C19.42 32.71, 22.85 32.44, 15.75 27.89 M15.75 27.89 C12.8 24.11, 6.81 20.67, 5.25 20 M15.75 27.89 C12.67 25.61, 10.14 23.67, 5.25 20 M5.25 20 C0.56 17.37, 0.92 14.35, 5.25 12 M5.25 20 C-1.01 16.1, -2.25 17.15, 5.25 12 M5.25 12 C8.1 10.05, 10.34 9, 15.75 4 M5.25 12 C9.03 9.74, 12.54 6.93, 15.75 4 M15.75 4 C20.53 -0.98, 19.98 -1.89, 26.25 4 M15.75 4 C20.97 1.37, 20.68 -1.21, 26.25 4" stroke="#1e1e1e" stroke-width="4" fill="none"></path></g><g stroke-linecap="round" transform="translate(66.05579225899237 111.21229739351838) rotate(0 7.09829974550712 7.596426043437532)"><path d="M10 2 C11.16 3.3, 11.52 4.8, 12.2 6 C11.67 8.94, 11.99 8.93, 12.2 10 C11.37 10.67, 10.88 11.85, 10 13.19 C8.94 15.94, 9.33 15.06, 6 13.19 C4.8 13.02, 4.97 11.69, 2 10 C1.98 10.12, 1.55 8.47, 2 6 C3.45 5.33, 4.25 3.8, 6 2 C9.05 0.44, 6.66 -0.71, 10 2" stroke="none" stroke-width="0" fill="#1e1e1e"></path><path d="M10 2 C10.65 3.12, 11.47 4.33, 12.2 6 M10 2 C10.6 3.24, 11.38 4.48, 12.2 6 M12.2 6 C13.79 8.15, 13.38 7.18, 12.2 10 M12.2 6 C14.93 8.06, 13.83 9.13, 12.2 10 M12.2 10 C11.55 10.67, 11.03 11.39, 10 13.19 M12.2 10 C11.49 11.05, 10.73 12.23, 10 13.19 M10 13.19 C7.46 15.63, 7.31 15.55, 6 13.19 M10 13.19 C8.93 15.47, 9.12 15.55, 6 13.19 M6 13.19 C4.43 11.83, 2.96 11.08, 2 10 M6 13.19 C4.41 11.88, 2.98 10.82, 2 10 M2 10 C0.46 7.17, -0.44 8.04, 2 6 M2 10 C-1.12 8.57, -0.81 8.74, 2 6 M2 6 C3.66 4.57, 5.28 2.98, 6 2 M2 6 C2.92 5.16, 3.69 4.19, 6 2 M6 2 C7.49 -0.95, 7.99 0.6, 10 2 M6 2 C7.84 -0.61, 6.99 -0.52, 10 2" stroke="#1e1e1e" stroke-width="4" fill="none"></path></g></svg>