<svg version="1.1" xmlns="http://www.w3.org/2000/svg" viewBox="0 0 209.9010513559715 252.78314620608398" width="209.9010513559715" height="252.78314620608398">
  <!-- svg-source:excalidraw -->
  
  <defs>
    <style class="style-fonts">
      
    </style>
    
  </defs>
  <g stroke-linecap="round" transform="translate(47.81143708868967 197.1898768092542) rotate(0 30.81360044087205 21.99603252957513)"><path d="M18.26 1.12 C23.64 -0.86, 33.4 -1.89, 39.77 -0.45 C46.14 1, 53.01 5.7, 56.5 9.79 C59.99 13.89, 61.52 19.29, 60.69 24.11 C59.87 28.93, 56.59 35.62, 51.57 38.72 C46.55 41.82, 36.91 42.71, 30.59 42.73 C24.26 42.75, 18.56 41.57, 13.62 38.84 C8.68 36.12, 2.7 31.18, 0.94 26.4 C-0.81 21.62, -2.89 14.26, 3.1 10.14 C9.09 6.03, 29.3 2.39, 36.9 1.69 C44.5 1, 48.98 6.19, 48.7 5.98 M25.37 -0.09 C31.89 -0.87, 43.06 -0.78, 49.05 2.19 C55.04 5.15, 59.54 13.46, 61.3 17.7 C63.06 21.95, 62.52 23.45, 59.62 27.65 C56.72 31.85, 49.68 40.07, 43.89 42.93 C38.1 45.78, 31.24 46.49, 24.88 44.78 C18.53 43.06, 10.22 36.44, 5.79 32.65 C1.35 28.86, -2.3 25.79, -1.72 22.04 C-1.14 18.29, 4.97 13.8, 9.24 10.13 C13.51 6.47, 21.17 1.99, 23.9 0.06 C26.63 -1.86, 25.59 -1.44, 25.63 -1.39" stroke="none" stroke-width="0" fill="#1e1e1e"></path><path d="M15.79 1.84 C21.12 -0.4, 30.98 0.92, 37.57 1.63 C44.16 2.35, 51.33 2.6, 55.34 6.14 C59.36 9.68, 62.13 17.6, 61.65 22.9 C61.18 28.19, 56.91 34.3, 52.51 37.89 C48.1 41.47, 41.12 44.07, 35.21 44.41 C29.3 44.75, 22.33 42.42, 17.05 39.92 C11.78 37.43, 6.37 33.64, 3.57 29.43 C0.77 25.23, -3.45 19.8, 0.25 14.7 C3.96 9.6, 19.83 0.9, 25.82 -1.16 C31.82 -3.22, 36.14 2.06, 36.23 2.35 M28.94 -2.41 C35.53 -2.87, 45.29 2.51, 50.33 5.08 C55.37 7.65, 57.32 8.71, 59.2 13.03 C61.07 17.34, 63.7 26.51, 61.57 30.96 C59.44 35.41, 52.69 37.2, 46.43 39.73 C40.18 42.27, 30.55 46.99, 24.06 46.19 C17.57 45.39, 11.75 39.28, 7.49 34.94 C3.23 30.59, -1.98 25.11, -1.47 20.11 C-0.96 15.1, 5.68 8.28, 10.57 4.9 C15.46 1.53, 25.36 0.32, 27.86 -0.17 C30.36 -0.66, 25.55 1.15, 25.56 1.99" stroke="#1e1e1e" stroke-width="4" fill="none"></path></g><g stroke-linecap="round" transform="translate(10 28.112964142881538) rotate(0 87.5 91.47622246444826)"><path d="M32 0 C59.65 0.17, 96.26 -1.82, 143 0 C159.73 -2.88, 177.93 11.23, 175 32 C170.82 73.87, 176.74 118.35, 175 150.95 C170.42 171.97, 162.82 179.11, 143 182.95 C117.7 179.97, 99.3 184.3, 32 182.95 C9.96 178.29, 1.54 173.65, 0 150.95 C2.08 110.22, 5.11 71.74, 0 32 C3.47 7.52, 16.12 -4.03, 32 0" stroke="none" stroke-width="0" fill="#ffc9c9"></path><path d="M32 0 C64.29 0.75, 94.16 -1.1, 143 0 M32 0 C71.9 -1.06, 116.1 -3.05, 143 0 M143 0 C167.93 -2.08, 176.53 13.81, 175 32 M143 0 C161.68 3.88, 174.66 7.04, 175 32 M175 32 C176.15 71.9, 176.46 101.55, 175 150.95 M175 32 C176.21 64.61, 176.8 101.6, 175 150.95 M175 150.95 C173.47 168.7, 167.64 183.26, 143 182.95 M175 150.95 C177.8 169.32, 164.94 187.24, 143 182.95 M143 182.95 C103.69 184.68, 63.29 182.61, 32 182.95 M143 182.95 C111.05 185.66, 77.07 185.34, 32 182.95 M32 182.95 C9.06 185.73, -3.12 171.29, 0 150.95 M32 182.95 C9.22 182.87, -3.23 171.94, 0 150.95 M0 150.95 C0.29 117.82, -2.88 79.65, 0 32 M0 150.95 C0.31 107.09, -1.01 65.57, 0 32 M0 32 C2.97 8.53, 12.2 1.19, 32 0 M0 32 C-4.53 10, 10.45 -3, 32 0" stroke="#1e1e1e" stroke-width="4" fill="none"></path></g><g stroke-linecap="round" transform="translate(124.74497759513088 45.91453943027591) rotate(50.75529013856277 15.774349912333946 23.194380924612233)"><path d="M13.23 0.18 C16.31 -0.78, 20.66 0.4, 23.54 3.03 C26.43 5.67, 29.55 11.32, 30.55 15.96 C31.56 20.6, 30.65 26.36, 29.57 30.89 C28.5 35.41, 26.88 40.65, 24.09 43.12 C21.3 45.58, 16.29 46.73, 12.84 45.68 C9.39 44.64, 5.38 40.55, 3.39 36.86 C1.4 33.16, 0.93 28.28, 0.92 23.54 C0.91 18.79, 1 12.44, 3.33 8.36 C5.66 4.29, 12.83 0.4, 14.9 -0.92 C16.97 -2.24, 15.9 -0.08, 15.76 0.42 M15.56 1.34 C18.6 0.68, 22.88 0.53, 25.34 3.43 C27.81 6.33, 29.6 13.6, 30.37 18.75 C31.14 23.9, 31.46 30.28, 29.99 34.33 C28.51 38.38, 24.8 41.15, 21.52 43.05 C18.24 44.94, 13.35 46.69, 10.3 45.72 C7.26 44.75, 5.17 41.46, 3.27 37.22 C1.37 32.98, -1.33 25.63, -1.11 20.3 C-0.89 14.96, 2.15 8.76, 4.6 5.21 C7.06 1.66, 11.89 -0.12, 13.6 -0.99 C15.32 -1.86, 14.8 -0.71, 14.91 -0.02" stroke="none" stroke-width="0" fill="#ff8787"></path><path d="M11.85 0.09 C14.75 -1.54, 19.29 0.15, 22.14 2.44 C24.98 4.73, 27.53 9.39, 28.94 13.83 C30.34 18.27, 31.09 24.5, 30.58 29.08 C30.07 33.66, 28.39 38.45, 25.89 41.32 C23.39 44.18, 19.23 46.48, 15.59 46.27 C11.96 46.05, 6.63 43.59, 4.08 40.04 C1.54 36.49, 0.54 29.8, 0.33 24.97 C0.12 20.15, 0.53 15.41, 2.8 11.11 C5.08 6.82, 11.78 0.99, 14 -0.77 C16.22 -2.54, 16.15 -0.12, 16.12 0.52 M8.69 0.73 C11.52 -1.59, 17.76 -0.43, 21.26 0.97 C24.76 2.37, 27.97 4.81, 29.7 9.13 C31.44 13.44, 32.03 21.77, 31.67 26.86 C31.31 31.95, 30.09 36.49, 27.52 39.68 C24.94 42.88, 19.53 45.8, 16.22 46.03 C12.91 46.26, 10.23 43.93, 7.66 41.06 C5.09 38.19, 1.96 33.33, 0.79 28.8 C-0.38 24.27, -0.78 18.12, 0.66 13.87 C2.09 9.62, 8.15 5.05, 9.4 3.32 C10.65 1.59, 8.17 3.19, 8.15 3.5" stroke="#1e1e1e" stroke-width="4" fill="none"></path></g><g stroke-linecap="round" transform="translate(164.87203669984137 9.298737805245764) rotate(229.07198506677358 16.841744892220504 19.136679707406984)"><path d="M10.69 0.89 C13.82 -0.6, 19.13 0.13, 22.43 1.46 C25.72 2.8, 28.53 5.48, 30.48 8.91 C32.42 12.34, 34.55 17.95, 34.1 22.05 C33.65 26.15, 30.66 30.94, 27.77 33.49 C24.88 36.03, 20.23 37.15, 16.76 37.33 C13.29 37.51, 9.8 36.98, 6.97 34.57 C4.13 32.16, 0.47 27.21, -0.27 22.89 C-1.01 18.56, 0.35 12.36, 2.53 8.62 C4.72 4.89, 10.88 1.87, 12.86 0.46 C14.84 -0.95, 14.34 -0.27, 14.41 0.17 M13.89 -0.92 C16.99 -1.95, 21.25 0.95, 24.39 3.28 C27.54 5.62, 31.47 9.63, 32.78 13.09 C34.1 16.56, 33.66 20.25, 32.28 24.07 C30.9 27.88, 27.41 33.44, 24.49 35.99 C21.57 38.54, 18.37 40.14, 14.75 39.39 C11.13 38.63, 5.31 34.98, 2.79 31.45 C0.26 27.93, -0.36 22.49, -0.41 18.23 C-0.45 13.98, 0.17 8.99, 2.53 5.91 C4.89 2.84, 12 0.53, 13.76 -0.2 C15.52 -0.93, 12.97 1.15, 13.1 1.52" stroke="none" stroke-width="0" fill="#ff8787"></path><path d="M22.27 1.5 C25.34 2.81, 28.47 6.62, 30.26 10.11 C32.04 13.6, 33.22 18.62, 32.97 22.43 C32.71 26.23, 31.22 30.32, 28.73 32.95 C26.25 35.57, 21.92 38, 18.05 38.2 C14.18 38.4, 8.43 36.83, 5.51 34.15 C2.6 31.47, 1.11 26.02, 0.56 22.12 C0.01 18.22, 0.49 14.36, 2.22 10.73 C3.96 7.1, 7.22 1.74, 10.96 0.34 C14.71 -1.06, 22.06 1.57, 24.7 2.32 C27.33 3.07, 27.02 4.44, 26.77 4.86 M22.1 0.67 C25.72 1.42, 29.39 3.34, 31.34 6.87 C33.3 10.39, 34.12 17.56, 33.84 21.8 C33.57 26.04, 32.36 29.62, 29.71 32.29 C27.05 34.97, 21.43 37.58, 17.9 37.87 C14.37 38.16, 11.37 36.31, 8.55 34.05 C5.72 31.79, 2.3 27.98, 0.96 24.32 C-0.37 20.67, -0.89 15.63, 0.54 12.12 C1.97 8.6, 6.36 4.98, 9.54 3.22 C12.72 1.46, 17.85 1.77, 19.62 1.56 C21.39 1.35, 20.23 1.89, 20.17 1.96" stroke="#1e1e1e" stroke-width="4" fill="none"></path></g><g stroke-linecap="round" transform="translate(125.24709099339361 7.311470426979213) rotate(320.10422975833734 17.016015935369524 24.274668464821843)"><path d="M15.97 0.36 C19.33 -0.27, 23.27 1.25, 26.32 4.26 C29.36 7.27, 33.27 13.31, 34.26 18.43 C35.25 23.55, 34.04 30.46, 32.26 35 C30.47 39.54, 26.77 43.47, 23.55 45.67 C20.34 47.88, 16.53 49.53, 12.97 48.24 C9.42 46.94, 4.31 42.54, 2.22 37.9 C0.13 33.25, -0.08 25.59, 0.42 20.35 C0.93 15.12, 2.47 9.93, 5.26 6.49 C8.04 3.05, 14.79 0.54, 17.12 -0.3 C19.46 -1.15, 19.24 0.89, 19.28 1.41 M23.45 3.07 C26.69 5.19, 31 10.32, 32.6 14.65 C34.19 18.99, 34.14 24.11, 33.02 29.08 C31.9 34.06, 28.69 41.05, 25.9 44.51 C23.1 47.97, 19.93 50.36, 16.24 49.84 C12.55 49.31, 6.51 45.42, 3.75 41.34 C0.98 37.26, -0.01 30.68, -0.34 25.34 C-0.68 20, -0.41 13.49, 1.75 9.32 C3.9 5.14, 8.96 1.34, 12.57 0.31 C16.19 -0.72, 21.47 2.74, 23.45 3.11 C25.43 3.48, 24.67 2.24, 24.47 2.53" stroke="none" stroke-width="0" fill="#ff8787"></path><path d="M9.14 2.98 C12.13 0.68, 17.42 0.14, 21.22 1.33 C25.01 2.53, 29.67 5.92, 31.93 10.16 C34.19 14.4, 35.43 21.5, 34.78 26.78 C34.13 32.06, 30.76 38.36, 28.03 41.85 C25.3 45.34, 21.89 47.27, 18.41 47.74 C14.93 48.21, 10.09 47.79, 7.14 44.69 C4.19 41.59, 1.64 34.32, 0.72 29.14 C-0.2 23.97, -0.57 18.34, 1.62 13.64 C3.81 8.93, 11.27 2.97, 13.88 0.93 C16.49 -1.12, 17.12 1.15, 17.28 1.39 M10.56 1.43 C13.42 -0.78, 17.93 0.72, 21.43 2.15 C24.93 3.59, 29.59 6.1, 31.55 10.04 C33.52 13.99, 33.44 20.79, 33.22 25.83 C33 30.86, 32.63 36.51, 30.25 40.26 C27.88 44, 22.94 47.48, 18.98 48.27 C15.03 49.07, 9.56 47.72, 6.52 45.02 C3.49 42.32, 1.81 37.03, 0.77 32.07 C-0.27 27.12, -1.1 20.05, 0.28 15.28 C1.66 10.5, 7.66 5.57, 9.05 3.43 C10.44 1.3, 8.48 2.27, 8.63 2.46" stroke="#1e1e1e" stroke-width="4" fill="none"></path></g><g stroke-linecap="round" transform="translate(158.8927771045992 45.65073183922141) rotate(320.10422975833734 18.320652317477197 20.66399156738771)"><path d="M14.87 -0.42 C18.67 -1.37, 25.23 0.39, 28.72 2.8 C32.22 5.21, 34.76 9.92, 35.83 14.03 C36.9 18.15, 36.51 23.23, 35.17 27.5 C33.83 31.77, 31.35 37.38, 27.81 39.67 C24.27 41.96, 17.89 42.47, 13.94 41.25 C10 40.04, 6.51 35.94, 4.16 32.37 C1.82 28.81, -0.12 24.17, -0.13 19.86 C-0.15 15.54, 1.14 9.68, 4.08 6.48 C7.02 3.29, 15.01 1.64, 17.5 0.7 C20 -0.24, 18.86 0.62, 19.04 0.86 M11.15 2.34 C14.53 0.04, 19.48 -1.86, 23.08 -0.65 C26.67 0.56, 30.36 5.41, 32.72 9.58 C35.08 13.75, 37.75 20.03, 37.25 24.36 C36.75 28.69, 32.75 32.9, 29.72 35.55 C26.69 38.2, 22.99 40.14, 19.05 40.26 C15.12 40.38, 9.2 38.81, 6.1 36.27 C3 33.73, 1.29 29, 0.46 25 C-0.37 21, -0.68 16.21, 1.14 12.29 C2.96 8.38, 9.93 3.16, 11.39 1.53 C12.84 -0.1, 9.77 2.09, 9.89 2.51" stroke="none" stroke-width="0" fill="#ff8787"></path><path d="M22.17 0.98 C26.14 1.48, 31.34 4.38, 33.89 7.88 C36.43 11.37, 37.97 17.43, 37.44 21.95 C36.92 26.48, 33.58 31.96, 30.76 35.05 C27.94 38.13, 24.29 39.86, 20.54 40.45 C16.79 41.05, 11.55 41.14, 8.28 38.64 C5.02 36.14, 2.09 29.85, 0.95 25.47 C-0.19 21.1, -0.08 16.17, 1.44 12.37 C2.96 8.57, 6.37 4.41, 10.05 2.68 C13.73 0.95, 20.82 2.14, 23.53 2.02 C26.25 1.89, 26.46 1.59, 26.35 1.91 M19.22 1.41 C22.92 1.46, 28.58 2.57, 31.33 5.27 C34.08 7.96, 35.11 13.33, 35.71 17.56 C36.3 21.8, 36.81 26.91, 34.9 30.68 C32.98 34.45, 28.28 38.54, 24.22 40.18 C20.15 41.82, 14.17 41.94, 10.51 40.5 C6.85 39.06, 4.15 35.42, 2.26 31.56 C0.37 27.69, -1.53 21.68, -0.82 17.31 C-0.12 12.95, 3.37 8.33, 6.48 5.38 C9.6 2.44, 15.84 0.47, 17.85 -0.36 C19.86 -1.19, 18.53 0.01, 18.53 0.4" stroke="#1e1e1e" stroke-width="4" fill="none"></path></g><g stroke-linecap="round" transform="translate(142.85383527886825 30.014194324179698) rotate(320.10422975833734 19.38580652198152 19.385806521981976)"><path d="M23.17 -0.11 C27.27 0.34, 31.57 3.4, 34.15 6.45 C36.73 9.51, 38.45 13.87, 38.64 18.2 C38.84 22.52, 38.01 28.96, 35.32 32.4 C32.62 35.83, 26.65 38.33, 22.46 38.81 C18.28 39.3, 13.77 37.42, 10.21 35.31 C6.65 33.21, 2.74 29.98, 1.11 26.21 C-0.52 22.43, -0.94 16.47, 0.43 12.67 C1.81 8.87, 5.4 5.33, 9.37 3.41 C13.34 1.49, 21.27 1.4, 24.28 1.14 C27.29 0.88, 27.6 1.69, 27.44 1.85 M23.97 -0.84 C27.67 -0.1, 31.82 4.72, 34.39 8.6 C36.97 12.48, 39.84 18.38, 39.42 22.45 C39 26.51, 35 30.47, 31.88 33 C28.75 35.54, 24.84 37.46, 20.68 37.67 C16.52 37.88, 10.28 36.55, 6.94 34.25 C3.59 31.96, 1.59 27.61, 0.61 23.9 C-0.37 20.2, -0.79 15.74, 1.04 12.03 C2.87 8.32, 7.89 3.46, 11.57 1.63 C15.26 -0.2, 20.96 1.09, 23.14 1.07 C25.32 1.05, 24.64 1.36, 24.66 1.5" stroke="none" stroke-width="0" fill="#ffc9c9"></path><path d="M28.6 1.35 C32.49 2.77, 36.47 7.46, 37.91 11.36 C39.35 15.26, 38.48 20.86, 37.25 24.74 C36.02 28.63, 33.8 32.21, 30.52 34.66 C27.24 37.12, 21.72 39.93, 17.58 39.47 C13.45 39.02, 8.66 35.05, 5.72 31.94 C2.78 28.84, 0.31 24.74, -0.06 20.85 C-0.43 16.96, 1.18 11.84, 3.49 8.61 C5.79 5.37, 9.53 2.57, 13.77 1.44 C18.02 0.32, 26.57 1.49, 28.94 1.87 C31.31 2.26, 28.22 3.31, 28 3.76 M13.96 0.91 C17.46 -0.86, 21.82 -0.31, 25.74 1.06 C29.67 2.44, 35.35 5.49, 37.5 9.16 C39.66 12.84, 39.83 18.76, 38.67 23.11 C37.51 27.46, 33.83 32.45, 30.55 35.27 C27.27 38.09, 23.21 40.08, 19 40.02 C14.79 39.96, 8.52 37.7, 5.29 34.91 C2.06 32.12, 0.21 27.61, -0.39 23.28 C-0.99 18.94, -0.5 12.59, 1.7 8.87 C3.89 5.15, 11.01 2.24, 12.78 0.97 C14.55 -0.3, 12.16 1.03, 12.32 1.25" stroke="#1e1e1e" stroke-width="4" fill="none"></path></g><g stroke-linecap="round" transform="translate(80.18318390284276 204.96619387081046) rotate(0 32.4545910740967 18.908476167636763)"><path d="M13.86 2.91 C18.75 0.3, 27.66 -2.49, 34.88 -1.81 C42.09 -1.14, 52.33 3.67, 57.13 6.96 C61.93 10.25, 63.27 14.48, 63.7 17.94 C64.14 21.39, 63.56 24.52, 59.73 27.71 C55.9 30.9, 47.74 35.77, 40.72 37.06 C33.69 38.34, 23.88 36.88, 17.58 35.43 C11.27 33.98, 5.77 31.77, 2.9 28.36 C0.02 24.94, -2.24 19.23, 0.34 14.93 C2.92 10.62, 15.38 4.86, 18.39 2.51 C21.39 0.16, 18.21 0.54, 18.35 0.83 M43.74 2.27 C50.34 4.55, 60.02 9.79, 62.98 13.28 C65.95 16.77, 63.56 20.07, 61.54 23.21 C59.52 26.34, 56.51 29.99, 50.88 32.08 C45.24 34.17, 34.53 35.82, 27.71 35.74 C20.89 35.65, 14.79 33.75, 9.95 31.57 C5.11 29.39, -0.72 26.57, -1.34 22.65 C-1.97 18.74, 2.53 11.56, 6.22 8.05 C9.91 4.54, 14.16 2.51, 20.82 1.59 C27.49 0.66, 42.36 2.68, 46.21 2.51 C50.06 2.35, 44.19 0.6, 43.91 0.61" stroke="none" stroke-width="0" fill="#1e1e1e"></path><path d="M46.25 1.22 C52.01 2.65, 56.44 6.83, 59.51 10.17 C62.58 13.52, 65.8 17.1, 64.68 21.3 C63.56 25.51, 58.25 32.96, 52.78 35.39 C47.3 37.82, 38.87 36.27, 31.83 35.88 C24.79 35.5, 15.86 35.27, 10.55 33.07 C5.24 30.87, 1.2 26.42, -0.02 22.68 C-1.25 18.94, -0.69 14.37, 3.2 10.62 C7.09 6.87, 15.03 0.8, 23.34 0.17 C31.64 -0.45, 46.68 4.83, 53.04 6.86 C59.4 8.9, 61.78 12.37, 61.49 12.37 M56.97 7.04 C61.37 9.69, 67.05 13.95, 66.99 18.04 C66.94 22.13, 62.07 28.07, 56.64 31.58 C51.21 35.09, 41.38 38.16, 34.42 39.09 C27.46 40.03, 20.81 39.33, 14.89 37.2 C8.96 35.08, 1.12 30.3, -1.12 26.35 C-3.35 22.39, -1.33 17.67, 1.45 13.49 C4.23 9.31, 9.3 3.43, 15.56 1.26 C21.82 -0.91, 32.21 -0.56, 39.01 0.46 C45.81 1.48, 53.28 6.35, 56.39 7.4 C59.5 8.46, 57.88 6.63, 57.66 6.79" stroke="#1e1e1e" stroke-width="4" fill="none"></path></g></svg>