<svg version="1.1" xmlns="http://www.w3.org/2000/svg" viewBox="0 0 221.70758403209447 256.1509999087175" width="443.41516806418895" height="512.301999817435">
  <!-- svg-source:excalidraw -->
  
  <defs>
    <style class="style-fonts">
      
    </style>
    
  </defs>
  <g stroke-linecap="round" transform="translate(118.29111226900432 202.15893484956723) rotate(0 36.83056609603159 21.99603252957513)"><path d="M40.44 1.77 C47.93 2.14, 57.93 3.18, 63.26 5.98 C68.58 8.78, 72.08 13.53, 72.41 18.58 C72.75 23.63, 69.78 31.83, 65.24 36.28 C60.7 40.72, 52.3 44.29, 45.16 45.27 C38.02 46.26, 29.32 44.79, 22.42 42.18 C15.52 39.56, 7.3 33.7, 3.77 29.59 C0.23 25.48, -0.57 21.99, 1.2 17.51 C2.98 13.03, 5.24 5.22, 14.42 2.7 C23.6 0.19, 47.31 1.34, 56.29 2.41 C65.27 3.48, 68.86 8.62, 68.29 9.11 M12.36 8.56 C17.76 5.02, 26.12 0.62, 33.67 0.05 C41.21 -0.52, 51.28 2.55, 57.64 5.13 C64.01 7.71, 69.91 10.82, 71.83 15.51 C73.76 20.19, 72.17 29.03, 69.17 33.24 C66.17 37.45, 61.12 39.04, 53.84 40.77 C46.55 42.5, 33.11 44.74, 25.46 43.62 C17.8 42.51, 12.41 38.2, 7.9 34.1 C3.39 30, -1.55 23.16, -1.59 19.01 C-1.64 14.85, 5.93 10.93, 7.64 9.18 C9.36 7.43, 7.58 8.62, 8.68 8.5" stroke="none" stroke-width="0" fill="#1e1e1e"></path><path d="M27.09 2.66 C34.12 0.84, 42.47 -0.94, 49.3 0.45 C56.14 1.84, 64.19 6.35, 68.09 10.99 C72 15.63, 74.31 23.31, 72.73 28.3 C71.15 33.28, 65.02 38.13, 58.64 40.89 C52.26 43.65, 42 44.94, 34.45 44.85 C26.9 44.76, 18.74 43.42, 13.34 40.35 C7.94 37.28, 3.28 31.57, 2.06 26.46 C0.85 21.34, 1.71 13.7, 6.06 9.64 C10.41 5.59, 24.21 3.39, 28.15 2.14 C32.1 0.89, 29.37 1.84, 29.73 2.14 M24.94 -1.44 C30.95 -2.59, 39.66 0.78, 46.58 3.19 C53.49 5.6, 62.19 9.23, 66.44 13.05 C70.69 16.88, 72.61 22.35, 72.09 26.14 C71.57 29.93, 69.02 32.93, 63.32 35.77 C57.61 38.62, 45.85 42.52, 37.87 43.2 C29.89 43.89, 21.89 43.07, 15.42 39.87 C8.96 36.67, 1.19 29.15, -0.91 23.99 C-3.02 18.82, -0.86 12.95, 2.79 8.86 C6.45 4.78, 17.26 1.06, 21.04 -0.53 C24.81 -2.12, 25.18 -0.91, 25.43 -0.69" stroke="#1e1e1e" stroke-width="4" fill="none"></path></g><g stroke-linecap="round" transform="translate(36.70758403209447 28.584267872680357) rotate(0 87.5 91.47622246444826)"><path d="M32 0 C72.26 -0.39, 115.22 -1.37, 143 0 C163.37 -2.31, 179.12 12.55, 175 32 C174.24 62.19, 169.28 92.63, 175 150.95 C169.76 177.01, 160.05 185.84, 143 182.95 C110.43 187.4, 62.91 187, 32 182.95 C16.26 187.69, -0.36 166.9, 0 150.95 C3.34 119.39, -4.19 85.57, 0 32 C-0.53 7.67, 14.57 1.03, 32 0" stroke="none" stroke-width="0" fill="#ffc9c9"></path><path d="M32 0 C70.59 0.32, 118.98 3.81, 143 0 M32 0 C58.42 1.12, 87.83 0.26, 143 0 M143 0 C167.6 -2.6, 176.73 12.67, 175 32 M143 0 C168.77 3.85, 177.94 11.97, 175 32 M175 32 C171.18 65.87, 177.08 96.31, 175 150.95 M175 32 C178.24 61.28, 175.87 95.85, 175 150.95 M175 150.95 C172.55 175.63, 162.79 184.08, 143 182.95 M175 150.95 C178.29 168.1, 164.57 181.75, 143 182.95 M143 182.95 C100.71 179.46, 61.22 178.58, 32 182.95 M143 182.95 C115.77 179.19, 90.95 180.97, 32 182.95 M32 182.95 C11.09 182.91, -3.55 171.72, 0 150.95 M32 182.95 C14.46 182.72, -1.73 169.62, 0 150.95 M0 150.95 C0.54 130.47, 5.17 103.12, 0 32 M0 150.95 C3.18 109.84, 0.54 72.37, 0 32 M0 32 C-1.88 12.4, 7.77 -3.02, 32 0 M0 32 C0.31 6.99, 6.86 1.18, 32 0" stroke="#1e1e1e" stroke-width="4" fill="none"></path></g><g stroke-linecap="round" transform="translate(14.77447998422167 45.91453943027227) rotate(50.75529013856277 15.774349912333946 23.194380924612233)"><path d="M21.52 0.99 C24.44 2.79, 27.67 8.79, 29.23 13.56 C30.78 18.33, 31.37 24.87, 30.84 29.63 C30.3 34.38, 28.64 39.41, 26.02 42.08 C23.39 44.76, 18.62 45.89, 15.07 45.68 C11.53 45.46, 7.42 44.19, 4.77 40.78 C2.12 37.38, -0.47 30.39, -0.83 25.24 C-1.19 20.09, 0.51 14.05, 2.61 9.88 C4.71 5.71, 8.44 1.38, 11.76 0.22 C15.09 -0.95, 20.59 2.35, 22.54 2.88 C24.5 3.41, 23.43 2.95, 23.47 3.38 M20.76 1.83 C23.79 2.99, 27.3 6.44, 28.97 10.74 C30.64 15.04, 31.13 22.76, 30.77 27.64 C30.4 32.51, 29.39 36.84, 26.78 39.99 C24.16 43.14, 18.48 46.36, 15.1 46.53 C11.71 46.71, 9.09 44.25, 6.48 41.03 C3.88 37.81, 0.48 31.82, -0.52 27.23 C-1.52 22.64, -1.07 17.61, 0.48 13.47 C2.03 9.34, 5.32 4.45, 8.79 2.42 C12.26 0.4, 19.27 1.23, 21.3 1.32 C23.33 1.4, 20.99 2.83, 20.97 2.95" stroke="none" stroke-width="0" fill="#ff8787"></path><path d="M21.16 1.44 C24.29 3.19, 28.06 8.72, 29.65 13.3 C31.23 17.88, 31.49 24.14, 30.68 28.92 C29.87 33.69, 27.29 38.89, 24.79 41.96 C22.29 45.03, 18.8 47.49, 15.67 47.34 C12.54 47.18, 8.55 44.58, 6.01 41.01 C3.47 37.45, 1.04 30.84, 0.43 25.94 C-0.18 21.03, 0.74 15.62, 2.35 11.6 C3.95 7.58, 6.2 2.97, 10.05 1.84 C13.9 0.71, 22.61 3.66, 25.42 4.84 C28.23 6.02, 27.28 8.63, 26.9 8.93 M7.41 4 C10.22 1.41, 14.79 0.33, 18.43 0.92 C22.07 1.5, 27.05 3.73, 29.25 7.5 C31.45 11.27, 31.77 18.3, 31.62 23.55 C31.46 28.8, 30.72 35.44, 28.32 39.01 C25.92 42.58, 20.82 44.55, 17.2 44.98 C13.58 45.41, 9.53 44.2, 6.6 41.6 C3.67 39.01, 0.36 34.13, -0.4 29.4 C-1.17 24.68, 0.74 17.93, 2.01 13.26 C3.28 8.59, 6.21 3.06, 7.21 1.37 C8.22 -0.32, 7.71 2.55, 8.05 3.11" stroke="#1e1e1e" stroke-width="4" fill="none"></path></g><g stroke-linecap="round" transform="translate(54.90153908893126 9.298737805242126) rotate(229.07198506677358 16.841744892220504 19.136679707406984)"><path d="M13.01 1 C16.39 0.35, 21.38 1.47, 24.8 3.4 C28.21 5.33, 32.1 9, 33.48 12.56 C34.85 16.12, 34.4 20.8, 33.04 24.77 C31.69 28.74, 28.65 34.26, 25.34 36.38 C22.04 38.5, 16.76 38.37, 13.22 37.5 C9.67 36.64, 6.18 34.3, 4.05 31.17 C1.92 28.03, 0.6 22.68, 0.43 18.67 C0.27 14.66, 0.47 10.35, 3.04 7.1 C5.61 3.85, 13.04 0.15, 15.83 -0.83 C18.62 -1.8, 19.53 0.78, 19.77 1.27 M16.44 -0.26 C19.76 -0.47, 24 2.89, 26.91 5.45 C29.82 8.01, 33.32 11.23, 33.9 15.1 C34.47 18.97, 32.14 25.09, 30.36 28.68 C28.59 32.28, 26.58 35.37, 23.25 36.68 C19.92 37.98, 14.12 37.6, 10.4 36.51 C6.68 35.42, 2.83 33.43, 0.94 30.14 C-0.94 26.86, -1.84 21.02, -0.92 16.79 C0 12.56, 3.47 7.33, 6.46 4.75 C9.45 2.18, 15.15 2.29, 17.01 1.34 C18.88 0.39, 17.57 -1.29, 17.66 -0.94" stroke="none" stroke-width="0" fill="#ff8787"></path><path d="M12.15 1.65 C15.39 0.54, 20.01 0.89, 23.21 2.49 C26.41 4.08, 29.6 7.5, 31.34 11.21 C33.09 14.92, 34.31 20.75, 33.68 24.76 C33.05 28.78, 30.51 33.1, 27.55 35.28 C24.59 37.46, 19.67 38.1, 15.92 37.82 C12.17 37.55, 7.83 36.31, 5.04 33.65 C2.25 30.98, -0.55 25.94, -0.82 21.84 C-1.08 17.73, 1.09 12.45, 3.47 9.02 C5.84 5.58, 11.59 2.58, 13.46 1.24 C15.33 -0.1, 14.74 0.91, 14.69 0.96 M21.87 1.51 C25.51 2.15, 30.47 4.65, 32.42 8.05 C34.36 11.44, 34.17 17.56, 33.53 21.89 C32.89 26.22, 31.47 31.49, 28.58 34.02 C25.69 36.56, 20.07 37.33, 16.18 37.1 C12.3 36.86, 8.13 35.2, 5.28 32.62 C2.44 30.04, -0.53 25.65, -0.9 21.62 C-1.27 17.58, 1.27 12.05, 3.05 8.42 C4.84 4.79, 6.66 1.07, 9.82 -0.16 C12.98 -1.39, 19.91 0.78, 22.02 1.05 C24.14 1.32, 22.74 1.17, 22.5 1.44" stroke="#1e1e1e" stroke-width="4" fill="none"></path></g><g stroke-linecap="round" transform="translate(15.276593382484407 7.311470426979213) rotate(320.10422975833734 17.016015935369524 24.274668464821843)"><path d="M8.94 3.67 C12.17 1.05, 17.99 -0.07, 21.64 0.8 C25.29 1.67, 28.8 4.66, 30.85 8.89 C32.89 13.12, 34.27 20.99, 33.9 26.21 C33.52 31.43, 31.06 36.59, 28.6 40.21 C26.14 43.82, 22.54 47.25, 19.15 47.88 C15.76 48.51, 11.45 46.7, 8.26 43.98 C5.07 41.27, 1.31 36.55, 0.02 31.57 C-1.27 26.59, -1.24 18.92, 0.52 14.09 C2.27 9.26, 8.61 4.63, 10.55 2.61 C12.49 0.6, 12.09 1.72, 12.16 1.99 M20.1 1.68 C23.65 2.41, 28.9 5.03, 31.03 9 C33.16 12.97, 33.03 20.29, 32.86 25.51 C32.7 30.73, 32.45 36.63, 30.03 40.32 C27.62 44.01, 22.3 46.72, 18.37 47.67 C14.44 48.61, 9.58 48.56, 6.46 46 C3.33 43.44, 0.4 37.48, -0.36 32.33 C-1.13 27.18, 0.23 19.82, 1.88 15.11 C3.53 10.4, 6.22 6.71, 9.52 4.07 C12.83 1.43, 19.71 -0.49, 21.71 -0.75 C23.71 -1, 21.55 1.95, 21.53 2.55" stroke="none" stroke-width="0" fill="#ff8787"></path><path d="M14.08 1.06 C17.38 -0.03, 22.07 1.31, 25.34 4.08 C28.6 6.85, 32.3 12.69, 33.68 17.66 C35.07 22.64, 35.04 29.34, 33.65 33.94 C32.26 38.54, 28.7 42.79, 25.34 45.27 C21.97 47.75, 17.22 49.68, 13.45 48.8 C9.68 47.93, 4.88 44.13, 2.73 40.01 C0.59 35.9, 0.37 29.28, 0.58 24.12 C0.78 18.95, 1.57 12.94, 3.96 9.02 C6.35 5.1, 12.94 2.12, 14.93 0.58 C16.91 -0.95, 15.61 -0.4, 15.87 -0.19 M24.99 0.72 C28.35 2.31, 30.82 8.26, 32.38 13.21 C33.93 18.17, 35.35 25.54, 34.32 30.46 C33.3 35.38, 29.44 39.93, 26.22 42.72 C23 45.51, 18.69 47.53, 15 47.2 C11.3 46.86, 6.36 44.35, 4.02 40.74 C1.69 37.13, 1.35 30.77, 0.97 25.54 C0.6 20.31, -0.03 13.46, 1.78 9.35 C3.6 5.25, 8.16 2.12, 11.88 0.91 C15.59 -0.31, 22.32 1.84, 24.08 2.07 C25.84 2.31, 22.38 1.96, 22.45 2.32" stroke="#1e1e1e" stroke-width="4" fill="none"></path></g><g stroke-linecap="round" transform="translate(48.922279493689075 45.65073183921413) rotate(320.10422975833734 18.320652317477425 20.66399156738771)"><path d="M25.19 1.34 C28.88 2.19, 32.48 5.48, 34.33 9.37 C36.18 13.27, 37.12 20.32, 36.29 24.71 C35.47 29.11, 32.35 33.06, 29.4 35.75 C26.45 38.44, 22.29 40.82, 18.59 40.86 C14.89 40.9, 10.38 38.69, 7.21 35.99 C4.04 33.29, 0.53 29.02, -0.42 24.66 C-1.37 20.29, -0.57 13.58, 1.51 9.8 C3.58 6.03, 7.97 3.36, 12.03 2 C16.08 0.65, 23.52 1.63, 25.84 1.69 C28.15 1.74, 26.05 2.08, 25.9 2.35 M17.25 -0.44 C20.85 -1.22, 24.48 1.34, 27.69 3.91 C30.9 6.47, 35.44 10.83, 36.5 14.97 C37.57 19.1, 36.05 24.46, 34.07 28.74 C32.09 33.02, 28.25 38.56, 24.64 40.67 C21.03 42.78, 15.87 42.73, 12.41 41.39 C8.95 40.06, 5.88 36.18, 3.88 32.64 C1.88 29.11, 0.01 24.84, 0.42 20.18 C0.84 15.52, 3.51 7.81, 6.38 4.71 C9.24 1.61, 15.69 2.29, 17.63 1.57 C19.58 0.86, 18.41 0.4, 18.05 0.39" stroke="none" stroke-width="0" fill="#ff8787"></path><path d="M25.82 2.59 C29.43 4.25, 33.79 9.27, 35.61 13.36 C37.43 17.45, 37.88 23.12, 36.73 27.14 C35.59 31.16, 32.16 35.01, 28.74 37.48 C25.32 39.95, 20.29 42.27, 16.19 41.97 C12.09 41.66, 6.74 38.88, 4.14 35.64 C1.55 32.41, 0.76 26.95, 0.6 22.57 C0.45 18.18, 1.1 12.91, 3.2 9.33 C5.31 5.75, 9.2 2.2, 13.22 1.09 C17.25 -0.02, 24.47 2.12, 27.35 2.69 C30.23 3.25, 30.36 4.16, 30.5 4.5 M20.97 -0.19 C24.64 0.43, 30.27 4.03, 32.74 7.2 C35.21 10.36, 35.96 14.64, 35.81 18.79 C35.67 22.94, 34.37 28.59, 31.89 32.11 C29.41 35.62, 24.48 38.94, 20.92 39.86 C17.37 40.77, 14.03 39.74, 10.58 37.59 C7.13 35.45, 1.9 30.91, 0.21 27.01 C-1.47 23.11, -0.95 18.2, 0.48 14.22 C1.9 10.23, 5.61 5.48, 8.79 3.11 C11.97 0.74, 17.34 0.42, 19.56 -0.01 C21.77 -0.44, 21.99 0.31, 22.08 0.54" stroke="#1e1e1e" stroke-width="4" fill="none"></path></g><g stroke-linecap="round" transform="translate(32.88333766795813 30.014194324179698) rotate(320.10422975833734 19.38580652198175 19.385806521981976)"><path d="M28.67 1.54 C32.11 3.25, 35.81 8.94, 37.19 12.8 C38.57 16.66, 38.18 20.98, 36.94 24.73 C35.69 28.48, 33.02 33.09, 29.74 35.29 C26.46 37.48, 21.49 38.34, 17.25 37.88 C13.01 37.42, 7.32 35.61, 4.31 32.52 C1.31 29.44, -0.78 23.42, -0.78 19.37 C-0.79 15.31, 1.51 11.32, 4.28 8.19 C7.06 5.07, 11.48 1.39, 15.86 0.63 C20.25 -0.14, 27.78 2.82, 30.61 3.62 C33.44 4.42, 33.07 5.22, 32.85 5.41 M25.21 1.45 C28.98 2.67, 34.78 6.14, 36.84 9.64 C38.9 13.14, 38.67 18.09, 37.56 22.44 C36.45 26.79, 33.44 32.89, 30.16 35.74 C26.88 38.59, 21.69 39.81, 17.87 39.54 C14.05 39.28, 10.1 36.78, 7.22 34.14 C4.34 31.51, 1.16 28.08, 0.58 23.73 C0.01 19.38, 1.55 11.58, 3.78 8.05 C6.02 4.52, 10.02 3.68, 13.99 2.54 C17.97 1.4, 25.83 1.45, 27.63 1.2 C29.43 0.95, 25 0.97, 24.78 1.05" stroke="none" stroke-width="0" fill="#ffc9c9"></path><path d="M27.58 2.56 C31.55 3.93, 35.73 7.86, 37.56 11.34 C39.38 14.83, 39.64 19.41, 38.53 23.48 C37.41 27.54, 34.4 33.05, 30.86 35.72 C27.33 38.38, 21.37 39.74, 17.33 39.47 C13.29 39.2, 9.57 36.9, 6.64 34.08 C3.71 31.26, 0.46 26.69, -0.24 22.55 C-0.95 18.41, 0.22 12.96, 2.41 9.23 C4.59 5.49, 8.32 1.35, 12.86 0.14 C17.4 -1.08, 26.57 1.35, 29.66 1.93 C32.74 2.51, 31.6 3.12, 31.37 3.62 M11.66 2.31 C14.95 0.23, 19.49 -1.33, 23.24 -0.6 C27 0.13, 31.82 3.3, 34.2 6.68 C36.59 10.06, 37.54 15.56, 37.54 19.7 C37.54 23.84, 37.09 28.6, 34.22 31.54 C31.35 34.47, 24.66 36.64, 20.31 37.29 C15.97 37.94, 11.37 37.52, 8.13 35.42 C4.9 33.33, 2.21 28.75, 0.91 24.73 C-0.38 20.71, -1.53 15.11, 0.34 11.3 C2.2 7.5, 10.42 3.54, 12.11 1.89 C13.8 0.25, 10.78 1.31, 10.48 1.45" stroke="#1e1e1e" stroke-width="4" fill="none"></path></g><g stroke-linecap="round" transform="translate(69.24924363941864 204.60946500286627) rotate(0 30.58799967841037 19.36012576336634)"><path d="M36.75 2.03 C42.51 2.66, 48.8 3.57, 52.86 6.42 C56.92 9.27, 60.87 15.04, 61.09 19.12 C61.31 23.2, 58.79 27.63, 54.16 30.88 C49.53 34.14, 40.2 38.13, 33.3 38.67 C26.39 39.21, 17.97 36.12, 12.75 34.11 C7.53 32.1, 3.54 30.21, 2 26.6 C0.46 22.98, 1.15 16.48, 3.52 12.43 C5.89 8.39, 6.47 1.37, 16.22 2.31 C25.97 3.25, 58.12 12.34, 62.01 18.05 C65.9 23.76, 39.96 36.39, 39.55 36.57 M21.21 0.39 C27.04 -1.45, 33.95 -2.14, 39.47 -0.16 C45 1.82, 51.18 8.2, 54.33 12.28 C57.49 16.37, 58.9 20.64, 58.39 24.35 C57.89 28.06, 55.84 31.69, 51.3 34.53 C46.76 37.38, 37.57 41.91, 31.16 41.4 C24.75 40.89, 17.64 34.11, 12.82 31.48 C8 28.85, 3.24 29.32, 2.22 25.64 C1.2 21.96, 4.18 13.7, 6.7 9.42 C9.23 5.13, 14.85 1.72, 17.36 -0.08 C19.87 -1.88, 20.69 -1.82, 21.77 -1.38" stroke="none" stroke-width="0" fill="#1e1e1e"></path><path d="M45.08 3.06 C50.83 4.04, 56.34 6.52, 58.83 10.31 C61.31 14.11, 62.07 21.45, 60 25.84 C57.93 30.23, 51.55 34.3, 46.42 36.64 C41.28 38.98, 35.53 40.15, 29.18 39.87 C22.82 39.59, 13.4 37.92, 8.3 34.97 C3.19 32.01, -0.66 26.81, -1.46 22.15 C-2.26 17.48, -0.73 10.75, 3.5 6.97 C7.73 3.19, 15.76 -0.06, 23.92 -0.54 C32.08 -1.03, 47.02 2.18, 52.46 4.05 C57.89 5.93, 57.45 10.31, 56.54 10.7 M21.06 -1.69 C26.43 -3.49, 36.02 -2.58, 41.83 -0.77 C47.65 1.04, 52.61 5.39, 55.95 9.15 C59.29 12.91, 63.56 17.89, 61.88 21.78 C60.2 25.67, 51.69 29.68, 45.88 32.48 C40.07 35.28, 33.14 38.47, 27.04 38.56 C20.94 38.65, 14.19 36, 9.26 33 C4.33 30.01, -2.35 24.75, -2.55 20.6 C-2.76 16.45, 4 11.71, 8.02 8.09 C12.04 4.48, 19.57 0.43, 21.57 -1.08 C23.56 -2.6, 19.34 -1.48, 19.99 -1.01" stroke="#1e1e1e" stroke-width="4" fill="none"></path></g></svg>