<svg version="1.1" xmlns="http://www.w3.org/2000/svg" viewBox="0 0 221.70758403209402 251.79774645409452" width="443.41516806418804" height="503.59549290818904">
  <!-- svg-source:excalidraw -->
  
  <defs>
    <style class="style-fonts">
      
    </style>
    
  </defs>
  <g stroke-linecap="round" transform="translate(136.8185032816241 195.68952537606856) rotate(0 36.83056609603159 21.99603252957513)"><path d="M32.67 -0.46 C40.06 -1.53, 51.16 1.47, 57.36 3.78 C63.56 6.09, 67.83 9.22, 69.85 13.39 C71.87 17.57, 72.02 24.42, 69.47 28.81 C66.92 33.2, 61.47 37.41, 54.55 39.74 C47.64 42.07, 35.86 43.73, 27.96 42.78 C20.06 41.84, 11.74 37.86, 7.18 34.07 C2.62 30.27, 0.36 24.72, 0.59 20 C0.81 15.28, 1.48 9.34, 8.54 5.76 C15.6 2.18, 35.23 -0.8, 42.94 -1.47 C50.66 -2.14, 54.68 1.15, 54.82 1.74 M33.69 -1.73 C40.57 -2.37, 47.82 1.36, 54.33 3.79 C60.84 6.22, 69.74 8.06, 72.74 12.84 C75.75 17.62, 75.1 27.31, 72.35 32.49 C69.61 37.67, 62.89 41.93, 56.26 43.92 C49.63 45.9, 40.59 45.98, 32.57 44.38 C24.56 42.78, 13.82 38.29, 8.17 34.3 C2.52 30.31, -1.48 25.36, -1.35 20.45 C-1.22 15.55, 3.91 7.89, 8.95 4.88 C13.99 1.88, 25.07 2.92, 28.9 2.43 C32.73 1.93, 31.69 1.87, 31.92 1.92" stroke="none" stroke-width="0" fill="#1e1e1e"></path><path d="M59.77 2.3 C65.85 4.86, 69.48 13.64, 70.96 18.32 C72.43 23.01, 71.45 26.73, 68.64 30.43 C65.83 34.13, 61.17 38.2, 54.08 40.53 C47 42.86, 33.97 45.12, 26.14 44.42 C18.3 43.72, 11.62 40.49, 7.07 36.33 C2.53 32.17, -2.03 24.46, -1.16 19.44 C-0.29 14.42, 6.17 9.21, 12.3 6.21 C18.43 3.21, 25.45 -2.05, 35.62 1.45 C45.79 4.95, 71.13 20.49, 73.3 27.22 C75.47 33.94, 49.53 42.03, 48.63 41.79 M65.69 11.58 C69.96 15.3, 73.08 18.76, 73.15 22.61 C73.23 26.46, 71.63 31.6, 66.15 34.69 C60.67 37.78, 48.56 39.79, 40.3 41.17 C32.04 42.55, 22.67 45.06, 16.6 42.99 C10.52 40.91, 6.17 33.81, 3.86 28.71 C1.56 23.61, 0.42 16.59, 2.75 12.4 C5.08 8.2, 11.06 5.54, 17.86 3.54 C24.65 1.54, 35.67 -0.38, 43.51 0.41 C51.36 1.21, 61.27 6.77, 64.94 8.31 C68.62 9.85, 66.2 8.96, 65.56 9.66" stroke="#1e1e1e" stroke-width="4" fill="none"></path></g><g stroke-linecap="round" transform="translate(36.70758403209402 28.584267872682176) rotate(0 87.5 91.47622246444826)"><path d="M32 0 C77.01 3.51, 115.87 3.35, 143 0 C169.4 2.62, 180.11 15.48, 175 32 C172.29 68.35, 174.9 104.29, 175 150.95 C171.31 176.28, 166.05 185.19, 143 182.95 C117.75 186.19, 89.22 187.34, 32 182.95 C7.88 177.62, -0.09 169.09, 0 150.95 C1.19 117.71, 0 93.95, 0 32 C5.26 11.14, 8.54 1.38, 32 0" stroke="none" stroke-width="0" fill="#ffc9c9"></path><path d="M32 0 C70.4 0.03, 110.77 -4.95, 143 0 M32 0 C55.8 3.56, 80.18 0.73, 143 0 M143 0 C166.78 1.17, 178.73 8.01, 175 32 M143 0 C163.27 2.98, 174.75 14.57, 175 32 M175 32 C178.9 74.03, 172.03 120.69, 175 150.95 M175 32 C176.57 80.57, 176.89 125.17, 175 150.95 M175 150.95 C178.71 168.87, 163.74 179.36, 143 182.95 M175 150.95 C175.48 176.48, 168.04 183.9, 143 182.95 M143 182.95 C112.95 178.01, 79.13 178.7, 32 182.95 M143 182.95 C110.69 184.66, 80.85 182.59, 32 182.95 M32 182.95 C10.11 184.63, 2.9 174.27, 0 150.95 M32 182.95 C9.12 185.34, 1.02 167.69, 0 150.95 M0 150.95 C2.62 122.57, -0.68 99.4, 0 32 M0 150.95 C0.52 118.21, 0.24 87, 0 32 M0 32 C-3.61 12.74, 8.22 2.38, 32 0 M0 32 C-0.91 9.92, 12.7 -2.21, 32 0" stroke="#1e1e1e" stroke-width="4" fill="none"></path></g><g stroke-linecap="round" transform="translate(14.77447998422167 45.91453943027409) rotate(50.75529013856277 15.774349912333946 23.194380924612233)"><path d="M12.13 -0.57 C15.05 -1.8, 19.87 -0.05, 22.98 2.47 C26.1 4.99, 29.67 9.82, 30.83 14.56 C31.99 19.29, 31.21 26.21, 29.95 30.89 C28.68 35.56, 26.04 40.19, 23.26 42.61 C20.47 45.02, 16.57 46.29, 13.23 45.39 C9.88 44.5, 5.41 41.11, 3.18 37.23 C0.95 33.36, -0.32 27.1, -0.14 22.16 C0.04 17.21, 1.31 11.28, 4.27 7.57 C7.23 3.86, 14.91 0.78, 17.63 -0.12 C20.35 -1.03, 20.79 1.54, 20.59 2.12 M11.15 0.35 C14.32 -1.31, 18.72 0.72, 21.9 2.86 C25.08 5.01, 28.46 9.06, 30.24 13.23 C32.02 17.41, 33.32 23.39, 32.56 27.91 C31.8 32.43, 28.62 37.37, 25.67 40.34 C22.73 43.32, 18.25 45.91, 14.89 45.75 C11.53 45.59, 8.11 42.34, 5.5 39.38 C2.89 36.42, -0.31 32.56, -0.78 27.99 C-1.25 23.41, 0.89 16.36, 2.68 11.93 C4.47 7.5, 8.4 2.96, 9.96 1.42 C11.52 -0.12, 11.81 2.16, 12.02 2.67" stroke="none" stroke-width="0" fill="#ff8787"></path><path d="M8.24 1.76 C11.34 -0.82, 17.36 -1.43, 20.68 -0.01 C24 1.42, 26.32 5.99, 28.17 10.31 C30.02 14.63, 32.09 21.1, 31.79 25.91 C31.5 30.73, 28.68 35.81, 26.38 39.2 C24.07 42.58, 21.07 45.59, 17.96 46.23 C14.84 46.86, 10.59 45.69, 7.71 43.02 C4.82 40.34, 1.56 35.15, 0.67 30.17 C-0.23 25.2, 0.45 18.06, 2.33 13.14 C4.22 8.22, 9.42 2.61, 11.97 0.65 C14.53 -1.3, 17.64 1.13, 17.69 1.42 M23.65 0.77 C26.65 2.29, 28.5 6.85, 29.76 11.77 C31.02 16.69, 31.81 25.18, 31.22 30.27 C30.62 35.37, 29 39.71, 26.2 42.33 C23.4 44.95, 18.2 46.29, 14.4 45.98 C10.6 45.67, 5.95 43.89, 3.38 40.46 C0.81 37.03, -0.76 30.51, -1 25.4 C-1.25 20.29, -0.14 13.84, 1.91 9.78 C3.96 5.72, 8.1 2.16, 11.28 1.05 C14.46 -0.06, 19.29 2.97, 20.99 3.13 C22.68 3.29, 21.37 1.72, 21.44 2" stroke="#1e1e1e" stroke-width="4" fill="none"></path></g><g stroke-linecap="round" transform="translate(54.90153908893171 9.298737805243945) rotate(229.07198506677358 16.841744892220504 19.136679707406984)"><path d="M17.95 -0.59 C21.58 -0.39, 26.72 2.07, 29.23 5.1 C31.75 8.12, 32.89 13.45, 33.03 17.56 C33.17 21.66, 32.07 26.48, 30.08 29.74 C28.09 33, 24.62 36.15, 21.1 37.11 C17.57 38.08, 12.22 37.39, 8.91 35.52 C5.61 33.65, 2.56 29.64, 1.28 25.91 C-0.01 22.18, 0.06 16.95, 1.2 13.13 C2.34 9.32, 4.76 5, 8.11 3.01 C11.46 1.01, 18.74 1.15, 21.3 1.18 C23.86 1.2, 23.63 2.99, 23.47 3.15 M19.35 1.49 C22.8 2.09, 27.21 4.57, 29.81 7.39 C32.41 10.21, 34.87 14.7, 34.94 18.43 C35.02 22.16, 32.74 26.65, 30.26 29.77 C27.77 32.89, 23.52 36.28, 20.03 37.13 C16.53 37.97, 12.56 36.4, 9.29 34.84 C6.01 33.28, 1.73 31.2, 0.38 27.76 C-0.97 24.33, 0.07 18.31, 1.17 14.22 C2.27 10.14, 3.82 5.45, 6.99 3.26 C10.15 1.07, 18.17 1.36, 20.16 1.07 C22.15 0.77, 19.09 1.47, 18.9 1.5" stroke="none" stroke-width="0" fill="#ff8787"></path><path d="M25.33 1.27 C28.54 2.97, 30.52 8.07, 31.85 12.11 C33.17 16.14, 34.35 21.7, 33.29 25.49 C32.22 29.28, 28.43 32.76, 25.48 34.86 C22.53 36.96, 18.93 38.41, 15.59 38.1 C12.26 37.79, 8.06 35.85, 5.48 33.01 C2.9 30.17, 0.33 25.35, 0.12 21.07 C-0.09 16.78, 2.22 10.68, 4.22 7.3 C6.22 3.92, 8.47 1.42, 12.11 0.76 C15.74 0.1, 23.9 2.99, 26.01 3.35 C28.12 3.72, 24.92 2.84, 24.77 2.94 M14.16 -1.14 C17.31 -1.51, 22.51 1.78, 25.82 4.2 C29.13 6.63, 32.95 9.8, 34.03 13.4 C35.11 17.01, 34.06 21.97, 32.3 25.84 C30.54 29.7, 26.79 34.63, 23.47 36.62 C20.15 38.61, 15.82 38.76, 12.37 37.77 C8.93 36.77, 4.92 33.83, 2.82 30.66 C0.72 27.5, -0.24 22.64, -0.21 18.79 C-0.18 14.93, 0.66 10.69, 2.98 7.51 C5.3 4.34, 11.82 0.78, 13.69 -0.27 C15.57 -1.32, 13.88 0.69, 14.22 1.21" stroke="#1e1e1e" stroke-width="4" fill="none"></path></g><g stroke-linecap="round" transform="translate(15.276593382484407 7.311470426979213) rotate(320.10422975833734 17.016015935369524 24.274668464821843)"><path d="M9.86 1.55 C12.91 -0.81, 17.18 -0.91, 20.62 0.39 C24.07 1.7, 28.25 5.21, 30.52 9.39 C32.8 13.58, 34.56 20.32, 34.27 25.5 C33.97 30.69, 31.35 36.82, 28.73 40.49 C26.11 44.16, 22.01 47, 18.55 47.53 C15.08 48.07, 10.81 46.52, 7.93 43.7 C5.04 40.88, 2.32 35.45, 1.22 30.61 C0.13 25.78, -0.06 19.31, 1.35 14.7 C2.77 10.09, 8.24 5.13, 9.72 2.97 C11.19 0.81, 9.97 1.45, 10.2 1.72 M12.46 2.56 C15.82 0.57, 21.43 0.57, 24.68 2.15 C27.93 3.74, 30.58 7.65, 31.96 12.07 C33.34 16.49, 33.72 23.7, 32.98 28.69 C32.24 33.68, 30.44 38.53, 27.51 42.02 C24.59 45.51, 19 49.46, 15.43 49.6 C11.86 49.75, 8.74 46.55, 6.09 42.91 C3.44 39.27, -0.09 32.87, -0.45 27.77 C-0.81 22.68, 1.87 16.61, 3.93 12.34 C5.98 8.08, 10.49 4.08, 11.88 2.18 C13.28 0.27, 12.47 0.69, 12.3 0.9" stroke="none" stroke-width="0" fill="#ff8787"></path><path d="M12.26 1.41 C15.44 0.13, 21.32 1.18, 24.58 3.26 C27.84 5.34, 30.23 9.34, 31.81 13.9 C33.39 18.46, 34.79 25.46, 34.08 30.63 C33.37 35.8, 30.64 41.83, 27.55 44.92 C24.46 48.02, 19.15 49.87, 15.53 49.2 C11.91 48.52, 8.55 44.67, 5.84 40.89 C3.13 37.1, -0.44 31.45, -0.74 26.49 C-1.03 21.54, 1.75 15.56, 4.07 11.16 C6.39 6.76, 11.14 1.87, 13.16 0.09 C15.18 -1.69, 16.04 -0.14, 16.18 0.47 M10.13 3.54 C13.43 1.49, 19.34 0.09, 22.79 1.2 C26.24 2.31, 29.22 5.86, 30.84 10.21 C32.47 14.55, 33.07 22.06, 32.57 27.28 C32.07 32.49, 30.35 38.02, 27.84 41.49 C25.33 44.96, 21 47.66, 17.51 48.11 C14.02 48.57, 9.94 46.99, 6.9 44.2 C3.86 41.42, 0.26 36.55, -0.73 31.41 C-1.72 26.26, -0.77 18.09, 0.98 13.32 C2.73 8.56, 8.06 4.46, 9.77 2.8 C11.47 1.14, 11.14 2.97, 11.21 3.36" stroke="#1e1e1e" stroke-width="4" fill="none"></path></g><g stroke-linecap="round" transform="translate(48.92227949368953 45.65073183921777) rotate(320.10422975833734 18.320652317477425 20.66399156738771)"><path d="M11.36 0.91 C14.69 -0.78, 20.34 -0.98, 24.18 0.47 C28.03 1.93, 32.47 5.81, 34.43 9.63 C36.39 13.45, 36.66 19.08, 35.93 23.39 C35.19 27.71, 32.86 32.64, 30.02 35.53 C27.19 38.42, 22.73 40.58, 18.92 40.72 C15.12 40.85, 10.34 39.01, 7.2 36.36 C4.07 33.7, 1.01 28.96, 0.13 24.79 C-0.75 20.62, -0.07 15.4, 1.93 11.35 C3.94 7.3, 10.14 2.17, 12.15 0.52 C14.17 -1.13, 13.92 1, 14.01 1.46 M27.62 2.47 C30.95 3.7, 33.7 7.55, 34.97 11.43 C36.24 15.3, 36.32 21.54, 35.26 25.7 C34.2 29.86, 31.91 33.63, 28.6 36.4 C25.3 39.16, 19.27 42.41, 15.44 42.29 C11.61 42.16, 8.28 38.97, 5.62 35.63 C2.95 32.29, -0.44 26.61, -0.57 22.25 C-0.7 17.89, 2.4 12.91, 4.83 9.47 C7.26 6.03, 10.34 2.97, 13.99 1.61 C17.65 0.25, 24.97 1.2, 26.77 1.33 C28.56 1.47, 25.09 2.16, 24.75 2.43" stroke="none" stroke-width="0" fill="#ff8787"></path><path d="M11.99 2.33 C15.35 0.42, 19.79 -0.39, 23.57 0.87 C27.34 2.14, 32.36 5.97, 34.64 9.91 C36.93 13.85, 37.97 20.01, 37.27 24.52 C36.58 29.03, 33.41 34.24, 30.47 36.97 C27.53 39.69, 23.69 40.86, 19.62 40.86 C15.55 40.86, 9.1 39.54, 6.04 36.99 C2.99 34.45, 2.06 30.02, 1.29 25.58 C0.52 21.15, -0.99 14.64, 1.44 10.41 C3.87 6.17, 13.09 1.71, 15.88 0.19 C18.67 -1.32, 18.41 1, 18.18 1.34 M11.57 2.36 C14.77 0.01, 19.25 -0.85, 22.63 0.29 C26 1.44, 29.66 5.61, 31.8 9.24 C33.95 12.87, 35.7 17.83, 35.51 22.08 C35.31 26.33, 33.21 31.5, 30.62 34.72 C28.02 37.94, 23.92 40.72, 19.94 41.4 C15.96 42.09, 10.07 41.43, 6.74 38.82 C3.42 36.22, 0.89 30.13, 0 25.8 C-0.89 21.46, -0.5 16.64, 1.41 12.8 C3.31 8.97, 10.02 4.4, 11.45 2.8 C12.88 1.19, 10.01 3.26, 10.02 3.2" stroke="#1e1e1e" stroke-width="4" fill="none"></path></g><g stroke-linecap="round" transform="translate(32.883337667958585 30.014194324179698) rotate(320.10422975833734 19.38580652198175 19.385806521981976)"><path d="M11.21 0.92 C14.87 -0.95, 21.07 -1.01, 25.04 0.14 C29.01 1.29, 32.78 4.41, 35.03 7.81 C37.27 11.21, 38.8 16.39, 38.52 20.54 C38.24 24.7, 36.22 29.74, 33.35 32.74 C30.48 35.74, 25.56 38.07, 21.3 38.53 C17.04 38.99, 11.34 37.75, 7.8 35.49 C4.27 33.23, 1.17 29.16, 0.09 24.98 C-1 20.8, -0.99 14.38, 1.3 10.42 C3.6 6.47, 11.55 2.81, 13.88 1.25 C16.21 -0.3, 15.07 0.74, 15.28 1.07 M27.85 1.17 C31.17 2.52, 34.74 7.21, 36.44 10.91 C38.14 14.61, 39.24 19.12, 38.03 23.39 C36.82 27.67, 32.57 33.91, 29.2 36.56 C25.82 39.2, 21.84 39.86, 17.77 39.26 C13.7 38.66, 7.52 35.88, 4.79 32.94 C2.06 30, 1.54 25.62, 1.39 21.62 C1.23 17.62, 1.56 12.58, 3.86 8.94 C6.15 5.31, 11.4 0.98, 15.18 -0.18 C18.95 -1.35, 24.55 1.7, 26.5 1.96 C28.46 2.22, 27.02 1.03, 26.9 1.37" stroke="none" stroke-width="0" fill="#ffc9c9"></path><path d="M24.55 0.67 C28.45 1.45, 33.9 5.26, 36.39 8.92 C38.87 12.57, 40.09 18.35, 39.45 22.61 C38.82 26.86, 35.62 31.82, 32.57 34.43 C29.52 37.04, 25.45 38.2, 21.15 38.29 C16.86 38.38, 10.08 37.29, 6.79 34.99 C3.5 32.69, 2.3 28.64, 1.4 24.49 C0.5 20.35, -0.54 13.99, 1.36 10.13 C3.26 6.27, 8.67 2.64, 12.82 1.33 C16.96 0.03, 23.91 2.16, 26.24 2.29 C28.57 2.43, 27.01 1.97, 26.79 2.13 M27.71 1.64 C30.93 3.21, 34.19 8.35, 35.73 12.19 C37.26 16.02, 37.99 20.83, 36.93 24.65 C35.87 28.47, 32.67 32.75, 29.37 35.12 C26.07 37.48, 21.31 39.04, 17.1 38.84 C12.9 38.64, 7.11 37.01, 4.15 33.91 C1.19 30.8, -0.53 24.44, -0.64 20.23 C-0.75 16.01, 0.77 11.74, 3.51 8.59 C6.26 5.44, 11.84 2.28, 15.82 1.31 C19.8 0.34, 25.37 2.84, 27.41 2.76 C29.46 2.68, 28.36 0.86, 28.08 0.83" stroke="#1e1e1e" stroke-width="4" fill="none"></path></g><g stroke-linecap="round" transform="translate(51.068080450014804 197.80568139494244) rotate(0 36.83056609603159 21.99603252957513)"><path d="M24.2 0.22 C30.99 -1.66, 40.6 -1.77, 47.92 -0.33 C55.25 1.11, 63.74 4.77, 68.13 8.87 C72.51 12.96, 75.23 19.32, 74.24 24.21 C73.25 29.1, 68.37 34.76, 62.18 38.2 C56 41.65, 45.39 44.41, 37.15 44.87 C28.9 45.33, 18.99 44.22, 12.69 40.96 C6.39 37.7, 0.6 30.13, -0.67 25.32 C-1.93 20.51, 0.21 16.13, 5.09 12.1 C9.97 8.06, 23.1 2.9, 28.6 1.11 C34.11 -0.68, 37.49 0.85, 38.12 1.38 M44.81 -0.56 C52.21 0.11, 62.46 2.09, 66.92 6.5 C71.38 10.92, 72.06 20.57, 71.56 25.93 C71.07 31.29, 69.37 35.62, 63.94 38.66 C58.52 41.69, 46.58 43.6, 39.02 44.15 C31.46 44.7, 24.81 44.35, 18.56 41.95 C12.32 39.56, 3.95 34.9, 1.56 29.79 C-0.83 24.69, 1.45 15.94, 4.22 11.32 C7 6.7, 11.51 4.16, 18.22 2.07 C24.92 -0.02, 40.25 -1.14, 44.45 -1.21 C48.65 -1.29, 43.44 1.39, 43.43 1.6" stroke="none" stroke-width="0" fill="#1e1e1e"></path><path d="M67.69 8.77 C73.05 12.51, 75.95 19.71, 75.29 24.68 C74.64 29.65, 69.16 35.57, 63.76 38.61 C58.37 41.65, 51.04 42.55, 42.91 42.92 C34.78 43.29, 21.55 42.95, 14.97 40.82 C8.39 38.68, 5.68 34.8, 3.42 30.11 C1.15 25.42, -1.73 17.34, 1.37 12.66 C4.47 7.99, 14.8 3.75, 22.03 2.05 C29.26 0.34, 36.56 -1.49, 44.78 2.45 C52.99 6.4, 69.74 19.38, 71.34 25.71 C72.94 32.03, 54.39 40.15, 54.38 40.4 M41.58 1.76 C48.73 2.48, 58.53 4.79, 63.6 8.16 C68.67 11.52, 71.95 17.15, 71.99 21.96 C72.04 26.77, 69.26 33.02, 63.86 37.01 C58.45 41.01, 47.53 45.47, 39.56 45.93 C31.59 46.38, 22.41 42.38, 16.06 39.74 C9.7 37.11, 3.3 34.2, 1.42 30.13 C-0.45 26.06, 1.98 19.65, 4.81 15.32 C7.64 10.99, 11.71 7.14, 18.41 4.17 C25.11 1.19, 41.17 -1.61, 45.02 -2.54 C48.87 -3.46, 42.11 -2.34, 41.52 -1.38" stroke="#1e1e1e" stroke-width="4" fill="none"></path></g></svg>