<svg version="1.1" xmlns="http://www.w3.org/2000/svg" viewBox="0 0 195 231.92731079019177" width="195" height="231.92731079019177">
  <!-- svg-source:excalidraw -->
  
  <defs>
    <style class="style-fonts">
      
    </style>
    
  </defs>
  <g stroke-linecap="round" transform="translate(17.38297046237767 174.59090496001772) rotate(0 36.83056609603159 21.99603252957513)"><path d="M52.32 1.2 C59.06 3.43, 66.28 10.24, 69.85 14.7 C73.43 19.16, 75.98 23.96, 73.77 27.97 C71.57 31.98, 63.35 36.2, 56.63 38.76 C49.92 41.32, 41.45 43.66, 33.47 43.35 C25.49 43.04, 14.13 40.13, 8.74 36.88 C3.36 33.63, 1.1 28.28, 1.16 23.85 C1.21 19.43, 4.16 14.52, 9.05 10.33 C13.95 6.13, 19.59 -2.57, 30.52 -1.32 C41.45 -0.07, 69 11.64, 74.63 17.85 C80.26 24.07, 65.46 35.91, 64.29 35.95 M51.66 3.52 C58.08 5.66, 65.05 10.29, 68.66 14.7 C72.28 19.11, 75.25 26.08, 73.36 29.96 C71.47 33.84, 64.27 35.62, 57.33 37.96 C50.38 40.29, 39.79 43.62, 31.68 43.95 C23.57 44.27, 14.12 42.77, 8.66 39.92 C3.2 37.08, -1.16 31.73, -1.09 26.89 C-1.02 22.05, 4.9 14.8, 9.09 10.9 C13.29 6.99, 16.78 4.66, 24.09 3.47 C31.4 2.28, 48.38 4.01, 52.95 3.76 C57.52 3.51, 52.25 1.97, 51.51 1.97" stroke="none" stroke-width="0" fill="#1e1e1e"></path><path d="M11.65 3.8 C17.27 0.23, 28.28 -0.85, 36.59 -0.83 C44.91 -0.8, 55.75 0.94, 61.56 3.94 C67.36 6.93, 70.36 12.11, 71.43 17.15 C72.49 22.19, 71.38 29.83, 67.95 34.19 C64.52 38.55, 58.3 41.9, 50.84 43.31 C43.37 44.73, 30.72 44.52, 23.17 42.67 C15.61 40.82, 9.26 36.08, 5.5 32.22 C1.74 28.36, -4.99 25.22, 0.6 19.54 C6.19 13.87, 28.58 -0.16, 39.02 -1.82 C49.46 -3.48, 63.2 8.83, 63.25 9.57 M9.22 7.45 C13.4 2.9, 23.46 -1.28, 30.75 -2.51 C38.04 -3.75, 46.7 -3.22, 52.96 0.05 C59.22 3.33, 65.24 12.56, 68.33 17.12 C71.42 21.68, 73.97 23.55, 71.51 27.41 C69.05 31.26, 60.7 37.77, 53.55 40.26 C46.4 42.76, 36.03 43.47, 28.61 42.35 C21.19 41.22, 13.37 36.44, 9.04 33.53 C4.71 30.62, 2.4 28.73, 2.63 24.89 C2.86 21.05, 9.82 13.71, 10.43 10.49 C11.03 7.28, 6.5 6.05, 6.28 5.62" stroke="#1e1e1e" stroke-width="4" fill="none"></path></g><g stroke-linecap="round" transform="translate(10 10) rotate(0 87.5 91.47622246444826)"><path d="M32 0 C69.3 2.76, 102.75 -0.91, 143 0 C160.93 -4.89, 175.01 5.78, 175 32 C178.82 78.17, 168.8 124.79, 175 150.95 C177.19 175.76, 164.39 182.34, 143 182.95 C117.61 187.95, 86.39 190.58, 32 182.95 C13.82 185.89, 2.11 172.27, 0 150.95 C5.33 116.49, 7.31 82.67, 0 32 C-3.19 8.51, 10.85 -1.63, 32 0" stroke="none" stroke-width="0" fill="#a5d8ff"></path><path d="M32 0 C71.4 4.85, 113.88 -1.7, 143 0 M32 0 C67.47 -3.37, 104.19 -3.01, 143 0 M143 0 C167.55 1.34, 176.63 7.04, 175 32 M143 0 C163.99 0.37, 172.28 11.06, 175 32 M175 32 C169.86 74.94, 172.58 114.83, 175 150.95 M175 32 C177.18 56.75, 177.09 80.39, 175 150.95 M175 150.95 C172.47 168.6, 160.39 186.81, 143 182.95 M175 150.95 C174.88 169.43, 161.15 181.96, 143 182.95 M143 182.95 C114.34 186.55, 96.68 185.84, 32 182.95 M143 182.95 C99.32 179.88, 60.02 181.65, 32 182.95 M32 182.95 C12.58 182.68, -2.74 169.41, 0 150.95 M32 182.95 C7.75 180.71, 2.68 176.41, 0 150.95 M0 150.95 C2.8 117.9, -1.91 86.67, 0 32 M0 150.95 C0.68 110.37, -2.86 67.83, 0 32 M0 32 C-0.59 12.33, 9.46 -3.68, 32 0 M0 32 C-0.98 12.59, 14.5 -1.73, 32 0" stroke="#1e1e1e" stroke-width="4" fill="none"></path></g><g stroke-linecap="round" transform="translate(104.19250530752151 177.93524573103969) rotate(0 36.83056609603159 21.99603252957513)"><path d="M16.82 3.67 C22.74 0.31, 31.35 -2.04, 39.15 -1.72 C46.96 -1.39, 58.09 2.09, 63.64 5.63 C69.19 9.18, 71.62 14.67, 72.45 19.57 C73.27 24.48, 72.55 30.84, 68.59 35.05 C64.62 39.25, 56.13 43.92, 48.66 44.79 C41.19 45.66, 30.99 42.51, 23.77 40.29 C16.55 38.06, 9 35.47, 5.35 31.45 C1.7 27.43, -0.24 21.09, 1.88 16.18 C4 11.28, 14.01 4.19, 18.09 2.03 C22.16 -0.14, 25.85 2.82, 26.31 3.2 M56.58 5.81 C63.26 7.18, 68.47 9, 70.47 13.01 C72.47 17.03, 71.66 24.83, 68.6 29.88 C65.53 34.94, 58.75 40.61, 52.07 43.32 C45.39 46.03, 35.34 47.21, 28.5 46.16 C21.66 45.11, 16.2 40.68, 11.03 37.02 C5.85 33.36, -2.4 28.82, -2.54 24.22 C-2.68 19.62, 4.6 13.47, 10.21 9.43 C15.82 5.38, 23.81 1.02, 31.1 -0.05 C38.4 -1.13, 49.51 2.29, 53.98 2.99 C58.46 3.69, 57.74 4.13, 57.94 4.16" stroke="none" stroke-width="0" fill="#1e1e1e"></path><path d="M11.44 6.16 C15.84 2.72, 23.29 -0.21, 30.64 -0.39 C38 -0.56, 48.58 2.32, 55.58 5.1 C62.59 7.88, 70.44 12.07, 72.67 16.28 C74.9 20.49, 72.12 26.33, 68.99 30.35 C65.85 34.36, 60.55 38.03, 53.87 40.37 C47.18 42.7, 36.8 45.51, 28.88 44.35 C20.97 43.19, 11.48 37.14, 6.36 33.4 C1.24 29.66, -4.36 27.09, -1.84 21.9 C0.67 16.71, 15.34 5.6, 21.46 2.25 C27.58 -1.1, 34.25 1.41, 34.87 1.78 M27.49 -2.31 C34.12 -2.52, 44.11 3.15, 51.36 5.53 C58.61 7.92, 67.92 8.23, 70.98 12.02 C74.04 15.81, 72.56 23.72, 69.71 28.27 C66.86 32.83, 60.24 37.25, 53.89 39.36 C47.54 41.48, 38.61 40.97, 31.62 40.95 C24.62 40.93, 16.86 41.89, 11.94 39.25 C7.02 36.6, 3.21 30.67, 2.11 25.06 C1.01 19.46, 1.12 9.99, 5.32 5.62 C9.52 1.26, 22.88 -0.52, 27.32 -1.13 C31.76 -1.74, 31.26 1.37, 31.97 1.96" stroke="#1e1e1e" stroke-width="4" fill="none"></path></g><g stroke-linecap="round" transform="translate(29.6258902135487 102.23210616646247) rotate(0 22.273057180918386 16.985209073218357)"><path d="M28.75 4.25 C30.72 5.03, 35.44 7.8, 38.8 12.75 C47.05 15.44, 47.63 20.38, 38.8 21.25 C36.18 25.75, 31.87 26.9, 28.75 29.72 C20.82 33.79, 26.02 34.74, 17.25 29.72 C14.85 28.35, 10.43 24.1, 5.75 21.25 C0.38 14.44, 2.91 18.9, 5.75 12.75 C8.11 8.63, 13.62 5.94, 17.25 4.25 C23.76 0.36, 23.09 0.48, 28.75 4.25" stroke="none" stroke-width="0" fill="#4dabf7"></path><path d="M28.75 4.25 C32.91 7.03, 37.47 10.22, 38.8 12.75 M28.75 4.25 C31.5 6.43, 33.49 7.51, 38.8 12.75 M38.8 12.75 C44.4 17.16, 43.37 17.17, 38.8 21.25 M38.8 12.75 C45.58 15.67, 42.35 14.83, 38.8 21.25 M38.8 21.25 C34.12 25.09, 32.92 27.55, 28.75 29.72 M38.8 21.25 C35.59 22.92, 32.55 26.53, 28.75 29.72 M28.75 29.72 C22.95 32.73, 21.62 33.54, 17.25 29.72 M28.75 29.72 C21.26 32.93, 23.1 31.82, 17.25 29.72 M17.25 29.72 C13.88 25.27, 6.96 22.25, 5.75 21.25 M17.25 29.72 C14.68 27.62, 11.01 25.06, 5.75 21.25 M5.75 21.25 C-1.27 16.03, 1.17 18.79, 5.75 12.75 M5.75 21.25 C-0.69 16.93, -2.03 18.57, 5.75 12.75 M5.75 12.75 C9.78 11, 13.23 9.25, 17.25 4.25 M5.75 12.75 C10.18 9.67, 14.52 5.42, 17.25 4.25 M17.25 4.25 C22.58 0.84, 24.67 -0.75, 28.75 4.25 M17.25 4.25 C22.91 1.24, 22.04 1.81, 28.75 4.25" stroke="#1e1e1e" stroke-width="4" fill="none"></path></g><g stroke-linecap="round" transform="translate(74.93113822580744 103.1122302799813) rotate(0 20.908185890762525 15.944371974251226)"><path d="M26.25 4 C28.85 4.2, 33.17 7.31, 36.57 12 C44.9 19.38, 43.24 12.94, 36.57 20 C32.66 22.91, 27.22 26.1, 26.25 27.89 C24.02 32.66, 22.54 29.67, 15.75 27.89 C12.47 24.91, 7.74 20.16, 5.25 20 C2.91 17.9, 1.59 19.18, 5.25 12 C9.61 8.18, 14.23 5.91, 15.75 4 C21.09 0.48, 24.39 2.92, 26.25 4" stroke="none" stroke-width="0" fill="#4dabf7"></path><path d="M26.25 4 C29.6 5.19, 29.76 7.16, 36.57 12 M26.25 4 C29.08 5.31, 31.25 7.89, 36.57 12 M36.57 12 C40.64 16.17, 42.72 14.84, 36.57 20 M36.57 12 C39.62 13.83, 42.91 15.4, 36.57 20 M36.57 20 C34.32 22.97, 29.65 25.43, 26.25 27.89 M36.57 20 C33.78 22.14, 32.3 22.71, 26.25 27.89 M26.25 27.89 C19.62 31.46, 19.49 30.99, 15.75 27.89 M26.25 27.89 C21.1 29.73, 23.02 33.9, 15.75 27.89 M15.75 27.89 C10.61 23.97, 7.23 23.03, 5.25 20 M15.75 27.89 C11.74 24.76, 8.24 22.26, 5.25 20 M5.25 20 C1.17 17.79, -0.6 15.94, 5.25 12 M5.25 20 C-2.03 17.57, -0.53 14.86, 5.25 12 M5.25 12 C9.34 10.67, 12.65 5.94, 15.75 4 M5.25 12 C9.02 8.33, 13.03 6.2, 15.75 4 M15.75 4 C22.67 -0.75, 20.93 1.08, 26.25 4 M15.75 4 C20.04 1.81, 21.6 2.04, 26.25 4" stroke="#1e1e1e" stroke-width="4" fill="none"></path></g><g stroke-linecap="round" transform="translate(66.05579225899328 111.21229739351838) rotate(0 7.098299745507347 7.596426043437532)"><path d="M10 2 C10.88 2.62, 11.44 4.28, 12.2 6 C15.22 5.79, 16.46 9.02, 12.2 10 C11.1 11.13, 11.03 12.42, 10 13.19 C9.11 13.59, 10.33 16.66, 6 13.19 C4.64 11.59, 3.7 11.29, 2 10 C1.15 10.3, 2.6 6.52, 2 6 C3.2 5.04, 4.11 4.02, 6 2 C10.45 2.11, 9.85 -0.24, 10 2" stroke="none" stroke-width="0" fill="#1e1e1e"></path><path d="M10 2 C10.41 2.97, 11.02 4.26, 12.2 6 M10 2 C10.73 3.35, 11.41 4.69, 12.2 6 M12.2 6 C14.65 7.42, 13.24 7.06, 12.2 10 M12.2 6 C14.74 7.7, 14.42 6.98, 12.2 10 M12.2 10 C11.37 11.22, 10.41 12.22, 10 13.19 M12.2 10 C11.72 10.61, 11.2 11.32, 10 13.19 M10 13.19 C7.24 14.74, 8.04 14.26, 6 13.19 M10 13.19 C9.01 16.2, 8.8 16.13, 6 13.19 M6 13.19 C5.03 12.71, 4.41 11.94, 2 10 M6 13.19 C4.76 12.18, 3.74 11.42, 2 10 M2 10 C-0.3 7.97, -0.88 8.68, 2 6 M2 10 C-0.26 7.43, -0.01 8.64, 2 6 M2 6 C3.6 4.35, 4.94 3.2, 6 2 M2 6 C3.34 4.71, 4.86 3.23, 6 2 M6 2 C7.96 0.54, 7.58 0.79, 10 2 M6 2 C8.3 1.02, 7.55 -0.7, 10 2" stroke="#1e1e1e" stroke-width="4" fill="none"></path></g></svg>