<svg version="1.1" xmlns="http://www.w3.org/2000/svg" viewBox="0 0 195 234.537709767641" width="195" height="234.537709767641">
  <!-- svg-source:excalidraw -->
  
  <defs>
    <style class="style-fonts">
      
    </style>
    
  </defs>
  <g stroke-linecap="round" transform="translate(88.53876458676768 178.42948868960775) rotate(0 36.83056609603159 21.99603252957513)"><path d="M6.4 7.6 C10.43 3.85, 18.63 1.04, 26.13 -0.14 C33.62 -1.31, 43.89 -1.35, 51.36 0.55 C58.83 2.44, 67.51 6.59, 70.95 11.24 C74.4 15.9, 74.25 23.64, 72.01 28.48 C69.76 33.32, 64.07 37.75, 57.48 40.3 C50.88 42.85, 40.24 44.16, 32.44 43.78 C24.63 43.4, 16.23 41.44, 10.66 38 C5.1 34.57, -3.51 29.34, -0.93 23.16 C1.64 16.98, 17.64 4.54, 26.11 0.9 C34.57 -2.74, 49.91 0.81, 49.86 1.31 M63.07 2.21 C68.76 5.29, 72.5 15.37, 73.07 20.63 C73.65 25.89, 69.97 30.59, 66.52 33.78 C63.07 36.97, 59.56 38.06, 52.39 39.76 C45.21 41.47, 31.61 44.96, 23.48 44.03 C15.34 43.09, 6.94 38.41, 3.6 34.15 C0.26 29.89, 1.76 23.73, 3.43 18.47 C5.1 13.22, 7.99 5.55, 13.62 2.62 C19.26 -0.32, 29.53 0.31, 37.23 0.87 C44.92 1.43, 55.54 4.79, 59.79 5.96 C64.03 7.12, 63.19 8.07, 62.71 7.86" stroke="none" stroke-width="0" fill="#1e1e1e"></path><path d="M66.07 9.84 C71.02 13.13, 72.02 16.9, 71.65 21.29 C71.28 25.69, 68.59 32.55, 63.85 36.19 C59.1 39.84, 50.82 42.14, 43.18 43.17 C35.54 44.19, 24.97 44.68, 18 42.35 C11.04 40.02, 3.81 34.24, 1.39 29.2 C-1.03 24.15, 0.75 16.29, 3.5 12.08 C6.25 7.86, 11.22 5.73, 17.88 3.9 C24.54 2.07, 35 0.12, 43.44 1.1 C51.87 2.08, 64.26 7.54, 68.51 9.76 C72.76 11.99, 69.54 14.25, 68.94 14.47 M62.06 6.43 C68.08 8.72, 73.44 14.03, 74.92 18.4 C76.41 22.76, 75.02 28.42, 70.95 32.61 C66.87 36.79, 58.46 42.34, 50.49 43.5 C42.52 44.65, 30.44 41.47, 23.12 39.53 C15.81 37.58, 10.32 35.97, 6.59 31.84 C2.85 27.72, -0.97 19.71, 0.71 14.79 C2.39 9.88, 10.52 5.24, 16.65 2.34 C22.79 -0.55, 30.18 -2.81, 37.52 -2.57 C44.85 -2.32, 56.25 1.94, 60.65 3.83 C65.05 5.71, 63.89 8.2, 63.91 8.75" stroke="#1e1e1e" stroke-width="4" fill="none"></path></g><g stroke-linecap="round" transform="translate(10 10) rotate(0 87.5 91.47622246444826)"><path d="M32 0 C80.06 -4.28, 120.22 5.21, 143 0 C158.99 -1.72, 177.48 8.01, 175 32 C179.34 67.07, 179.29 113.46, 175 150.95 C173.91 173.92, 169.58 187.51, 143 182.95 C113.17 177.2, 85.77 177.54, 32 182.95 C12.59 179.03, -2.13 175.56, 0 150.95 C-0.35 117.57, 1.83 85.34, 0 32 C-4.92 13.9, 9.95 -4.24, 32 0" stroke="none" stroke-width="0" fill="#a5d8ff"></path><path d="M32 0 C52.43 -4.1, 80.01 0.9, 143 0 M32 0 C53.79 1.58, 75.9 1.07, 143 0 M143 0 C167.64 -0.91, 175.65 12.4, 175 32 M143 0 C160.29 -3.53, 177.95 8.57, 175 32 M175 32 C173.04 73.54, 174.3 109.4, 175 150.95 M175 32 C176.04 76.92, 176.72 120.45, 175 150.95 M175 150.95 C178.82 170.91, 167.35 183.73, 143 182.95 M175 150.95 C175.1 167.88, 167.81 182.2, 143 182.95 M143 182.95 C106.92 184.05, 73.62 183.74, 32 182.95 M143 182.95 C117.6 184.92, 88.56 186.73, 32 182.95 M32 182.95 C6.82 179.19, -2.74 171.82, 0 150.95 M32 182.95 C6.51 180.38, -2.06 170.01, 0 150.95 M0 150.95 C-1.74 125.84, -1.96 98.04, 0 32 M0 150.95 C0.59 121.55, -0.63 94.11, 0 32 M0 32 C-0.03 9.84, 9.31 -3.1, 32 0 M0 32 C1.96 13.86, 14.15 -0.07, 32 0" stroke="#1e1e1e" stroke-width="4" fill="none"></path></g><g stroke-linecap="round" transform="translate(30.35276160202011 180.5456447084889) rotate(0 36.83056609603159 21.99603252957513)"><path d="M6.92 6.87 C11.51 3.09, 22.28 -0.4, 30.11 -0.97 C37.93 -1.54, 47.12 0.92, 53.86 3.44 C60.59 5.96, 67.73 9.93, 70.52 14.15 C73.3 18.37, 72.98 24.26, 70.57 28.76 C68.15 33.25, 62.73 38.77, 56.04 41.14 C49.36 43.51, 38.28 43.73, 30.46 42.98 C22.64 42.23, 14.29 40.12, 9.15 36.62 C4.01 33.12, -1.5 27.39, -0.4 21.98 C0.7 16.58, 10.59 7.46, 15.74 4.2 C20.89 0.95, 29.93 1.98, 30.51 2.45 M4.48 10.17 C8.89 5.45, 22.42 -1.02, 30.28 -2.14 C38.14 -3.27, 45.21 0.77, 51.65 3.44 C58.08 6.11, 64.93 9.78, 68.87 13.87 C72.8 17.96, 77 24.06, 75.26 27.99 C73.51 31.93, 65.27 34.68, 58.4 37.48 C51.52 40.28, 42.06 44.62, 34 44.77 C25.95 44.91, 15.25 41.44, 10.07 38.35 C4.89 35.26, 3.67 31.43, 2.94 26.24 C2.2 21.05, 5.32 10.05, 5.67 7.21 C6.01 4.37, 4.63 8.55, 5.02 9.22" stroke="none" stroke-width="0" fill="#1e1e1e"></path><path d="M60.87 5.11 C67.3 8.01, 73.04 13.19, 74.36 18.21 C75.67 23.22, 73.15 31.03, 68.75 35.2 C64.35 39.36, 55.4 42.29, 47.96 43.2 C40.52 44.11, 31.61 42.26, 24.1 40.68 C16.59 39.1, 6.92 37.47, 2.88 33.72 C-1.16 29.97, -2.01 23.17, -0.15 18.18 C1.71 13.19, 7.86 6.64, 14.04 3.78 C20.21 0.93, 27.45 -0.51, 36.89 1.05 C46.34 2.61, 64.47 9.23, 70.69 13.13 C76.92 17.04, 74.48 24.13, 74.25 24.46 M49.27 -0.28 C56.74 0.8, 65.23 6.43, 69.28 9.99 C73.34 13.54, 74.28 16.55, 73.58 21.07 C72.89 25.58, 70.72 33.71, 65.11 37.08 C59.5 40.44, 47.73 41.17, 39.91 41.27 C32.09 41.37, 24.73 40.37, 18.19 37.67 C11.65 34.97, 3.26 29.55, 0.67 25.09 C-1.92 20.62, -1.27 14.24, 2.66 10.87 C6.59 7.49, 16.66 6.54, 24.25 4.83 C31.84 3.12, 44.84 0.8, 48.19 0.62 C51.54 0.44, 45.29 3.85, 44.35 3.76" stroke="#1e1e1e" stroke-width="4" fill="none"></path></g><g stroke-linecap="round" transform="translate(72.61235653871881 105.60961423486879) rotate(0 22.273057180918386 16.985209073218357)"><path d="M28.75 4.25 C28.78 5.25, 34.34 6.76, 38.8 12.75 C45.83 20.48, 44.78 17.72, 38.8 21.25 C36.22 23.8, 36.75 26.84, 28.75 29.72 C21.68 31.48, 20.17 33.58, 17.25 29.72 C15.33 25.77, 10.7 27.03, 5.75 21.25 C-1.61 16.67, 2.45 16.58, 5.75 12.75 C6.28 12.32, 11.04 6.8, 17.25 4.25 C24.79 -0.11, 25.24 -0.42, 28.75 4.25" stroke="none" stroke-width="0" fill="#4dabf7"></path><path d="M28.75 4.25 C29.94 5.37, 33.45 8.09, 38.8 12.75 M28.75 4.25 C32.83 7.08, 35.95 10.53, 38.8 12.75 M38.8 12.75 C42.79 15.47, 45.83 16.09, 38.8 21.25 M38.8 12.75 C45.28 17.06, 43.44 15.84, 38.8 21.25 M38.8 21.25 C36.21 24.55, 32.78 27.44, 28.75 29.72 M38.8 21.25 C36.19 23.77, 32.78 26.89, 28.75 29.72 M28.75 29.72 C23.04 32.06, 24.51 33.64, 17.25 29.72 M28.75 29.72 C22.93 31.94, 24.93 32.18, 17.25 29.72 M17.25 29.72 C13.23 28.71, 12.19 25.78, 5.75 21.25 M17.25 29.72 C13.22 26.65, 10.02 24.73, 5.75 21.25 M5.75 21.25 C-1.81 15.88, -0.9 16.01, 5.75 12.75 M5.75 21.25 C-1.73 17.88, -1.64 16.52, 5.75 12.75 M5.75 12.75 C8.81 9.74, 13.5 7.24, 17.25 4.25 M5.75 12.75 C8.61 10.52, 11.2 8.02, 17.25 4.25 M17.25 4.25 C23.85 1.39, 24.51 -0.03, 28.75 4.25 M17.25 4.25 C25.07 -2.2, 23 1.96, 28.75 4.25" stroke="#1e1e1e" stroke-width="4" fill="none"></path></g><g stroke-linecap="round" transform="translate(117.91760455097665 106.48973834838398) rotate(0 20.908185890762525 15.944371974251226)"><path d="M26.25 4 C31.21 6.09, 35.06 12.62, 36.57 12 C42.05 16.72, 38.7 16.69, 36.57 20 C35.34 24.55, 28.89 23.63, 26.25 27.89 C18.17 31.5, 18.87 32.67, 15.75 27.89 C12.21 27.19, 9.46 23.64, 5.25 20 C2.45 15.58, -1.94 16.98, 5.25 12 C7.31 8.39, 11.03 8.42, 15.75 4 C23.24 -0.42, 23.32 -2.63, 26.25 4" stroke="none" stroke-width="0" fill="#4dabf7"></path><path d="M26.25 4 C29.72 6.76, 34.57 9.64, 36.57 12 M26.25 4 C29.81 6.94, 32.52 8.78, 36.57 12 M36.57 12 C43.1 15.09, 42.45 16.05, 36.57 20 M36.57 12 C40.71 14.84, 43.01 15.56, 36.57 20 M36.57 20 C34.98 22.35, 31.56 24.86, 26.25 27.89 M36.57 20 C34.22 22.32, 30.83 23.8, 26.25 27.89 M26.25 27.89 C22.51 31.56, 20.94 30.13, 15.75 27.89 M26.25 27.89 C22.93 30.1, 20.56 29.91, 15.75 27.89 M15.75 27.89 C14.15 26.62, 10 22.87, 5.25 20 M15.75 27.89 C11.32 24.67, 7.13 21.33, 5.25 20 M5.25 20 C-0.9 15.01, -1.5 16.77, 5.25 12 M5.25 20 C-1.64 15.52, 0.94 15.4, 5.25 12 M5.25 12 C8.5 9.77, 11.2 6.45, 15.75 4 M5.25 12 C8.07 9.19, 11.63 7.84, 15.75 4 M15.75 4 C22.51 -0.03, 22.8 -1.91, 26.25 4 M15.75 4 C21 1.96, 19.24 0.67, 26.25 4" stroke="#1e1e1e" stroke-width="4" fill="none"></path></g><g stroke-linecap="round" transform="translate(109.04225858416248 114.5898054619247) rotate(0 7.098299745507347 7.596426043437532)"><path d="M10 2 C10.83 3.66, 11.24 4.29, 12.2 6 C11.94 8.5, 14.95 7.49, 12.2 10 C11.33 10.73, 10.39 12.07, 10 13.19 C6.46 15.76, 6.62 16.09, 6 13.19 C4.8 12.43, 4.63 11.68, 2 10 C-1.4 8.71, -2.27 5.72, 2 6 C3.8 4.59, 5.32 3.09, 6 2 C9.68 -1.9, 10.27 1.19, 10 2" stroke="none" stroke-width="0" fill="#1e1e1e"></path><path d="M10 2 C10.63 2.86, 11.07 4.04, 12.2 6 M10 2 C10.51 3.02, 11.29 4.16, 12.2 6 M12.2 6 C14.51 8.02, 13.72 7.49, 12.2 10 M12.2 6 C14.8 7.78, 13.76 8.84, 12.2 10 M12.2 10 C11.54 11.15, 10.74 12.28, 10 13.19 M12.2 10 C11.63 10.76, 11.11 11.68, 10 13.19 M10 13.19 C7.97 14.31, 8.84 14.42, 6 13.19 M10 13.19 C7.78 14.2, 7.69 14.5, 6 13.19 M6 13.19 C4.38 11.77, 3.02 10.42, 2 10 M6 13.19 C5.07 12.46, 4.31 11.81, 2 10 M2 10 C-0.75 8.38, -0.71 7.79, 2 6 M2 10 C0.47 7.7, 0.17 7.29, 2 6 M2 6 C3.02 4.71, 4.32 3.65, 6 2 M2 6 C3.18 5, 4.35 3.78, 6 2 M6 2 C8.9 -0.95, 8 0.85, 10 2 M6 2 C7.12 0.34, 9.07 -1.1, 10 2" stroke="#1e1e1e" stroke-width="4" fill="none"></path></g></svg>