<svg version="1.1" xmlns="http://www.w3.org/2000/svg" viewBox="0 0 209.9010513559715 258.8332756686432" width="419.802102711943" height="517.6665513372864">
  <!-- svg-source:excalidraw -->
  
  <defs>
    <style class="style-fonts">
      
    </style>
    
  </defs>
  <g stroke-linecap="round" transform="translate(20.300270612073746 202.36643942144292) rotate(0 36.83056609603159 21.99603252957513)"><path d="M46.59 -0.91 C53.99 0.12, 62.67 6.99, 66.96 11.22 C71.25 15.45, 73.05 19.97, 72.32 24.47 C71.6 28.97, 68.16 35.12, 62.61 38.21 C57.05 41.31, 46.83 43.17, 39.02 43.04 C31.2 42.92, 22.06 40.16, 15.72 37.46 C9.39 34.76, 2.58 31.05, 0.99 26.84 C-0.6 22.62, 2.83 16.47, 6.16 12.17 C9.5 7.88, 12.07 2.14, 21.02 1.04 C29.97 -0.05, 52.13 4.33, 59.88 5.58 C67.63 6.83, 67.8 8.6, 67.51 8.53 M64.76 7.74 C69.09 11.75, 71.32 21.81, 71.02 26.55 C70.73 31.3, 68.13 33.23, 62.97 36.23 C57.81 39.22, 48 43.92, 40.07 44.54 C32.13 45.17, 21.87 43.01, 15.34 39.99 C8.82 36.96, 2.59 30.83, 0.94 26.42 C-0.71 22.01, 2.02 18.03, 5.44 13.55 C8.86 9.07, 14.56 1.61, 21.46 -0.46 C28.37 -2.53, 39.21 -1.07, 46.87 1.13 C54.52 3.33, 64.5 11.72, 67.39 12.74 C70.28 13.75, 65.11 7.64, 64.21 7.22" stroke="none" stroke-width="0" fill="#1e1e1e"></path><path d="M44.45 -0.94 C52.35 -0.32, 62.76 4.14, 67.43 8.09 C72.11 12.04, 73.2 17.92, 72.53 22.77 C71.85 27.63, 68.47 33.8, 63.38 37.21 C58.29 40.61, 49.73 42.89, 42 43.2 C34.27 43.51, 23.84 41.44, 16.99 39.07 C10.14 36.71, 3.21 33.51, 0.89 29.01 C-1.42 24.51, -0.2 16.67, 3.09 12.08 C6.37 7.49, 9.42 1.67, 20.6 1.46 C31.79 1.25, 62.11 5.55, 70.22 10.83 C78.33 16.1, 69.53 32.99, 69.25 33.13 M8.73 5.51 C13.85 1.79, 24.52 0.29, 32.89 -0.04 C41.27 -0.36, 52.42 1.06, 58.96 3.56 C65.49 6.07, 70.48 10.3, 72.1 14.97 C73.73 19.65, 72.38 26.82, 68.69 31.63 C65.01 36.45, 57.4 42.22, 50.01 43.88 C42.62 45.53, 31.73 43.58, 24.33 41.57 C16.93 39.56, 9.9 35.65, 5.62 31.8 C1.35 27.96, -1.93 23.16, -1.34 18.51 C-0.75 13.87, 7.17 5.8, 9.17 3.93 C11.17 2.06, 10.37 6.89, 10.66 7.3" stroke="#1e1e1e" stroke-width="4" fill="none"></path></g><g stroke-linecap="round" transform="translate(10 28.112964142881538) rotate(0 87.5 91.47622246444826)"><path d="M32 0 C59.16 3.84, 75.24 4.17, 143 0 C165.45 0.65, 175.51 10.48, 175 32 C175.68 60.34, 176.17 97.75, 175 150.95 C174.81 177.75, 159.35 177.67, 143 182.95 C117.88 186.25, 98.52 180.72, 32 182.95 C7.1 185.78, -2.52 171.68, 0 150.95 C-6.84 106.23, 1.68 53.8, 0 32 C-1.5 10.63, 10.02 0.2, 32 0" stroke="none" stroke-width="0" fill="#ffc9c9"></path><path d="M32 0 C73.66 -0.87, 119.82 -3.25, 143 0 M32 0 C74.87 0.29, 118.06 1.1, 143 0 M143 0 C163.2 -0.98, 171.73 8.72, 175 32 M143 0 C164.57 1.1, 170.89 13.51, 175 32 M175 32 C175.64 63.6, 179.06 86.04, 175 150.95 M175 32 C172.12 57.96, 172.93 84.87, 175 150.95 M175 150.95 C175.9 171.55, 163.79 180.88, 143 182.95 M175 150.95 C172.93 172.48, 161.23 185.78, 143 182.95 M143 182.95 C115.78 180.33, 93.76 179.83, 32 182.95 M143 182.95 C116.58 182.5, 92.51 183.18, 32 182.95 M32 182.95 C11.92 179.31, 2.76 169.1, 0 150.95 M32 182.95 C6.1 180.44, 2.05 170.03, 0 150.95 M0 150.95 C0.43 116.8, 1.78 82.62, 0 32 M0 150.95 C0.19 112.22, -0.86 78.04, 0 32 M0 32 C2.02 11.33, 7.07 2.17, 32 0 M0 32 C-2.71 15.19, 8.93 -0.8, 32 0" stroke="#1e1e1e" stroke-width="4" fill="none"></path></g><g stroke-linecap="round" transform="translate(124.74497759513088 45.91453943027591) rotate(50.75529013856277 15.774349912333946 23.194380924612233)"><path d="M7.78 2.51 C10.69 -0.08, 16.03 -0.56, 19.5 0.41 C22.96 1.38, 26.43 4.57, 28.57 8.31 C30.71 12.06, 32.47 17.83, 32.32 22.89 C32.17 27.96, 29.88 34.8, 27.66 38.71 C25.45 42.63, 22.54 45.72, 19.02 46.38 C15.49 47.04, 9.51 45.23, 6.52 42.67 C3.53 40.11, 1.97 35.85, 1.1 31.03 C0.22 26.21, -0.16 18.68, 1.27 13.76 C2.71 8.85, 8.05 3.57, 9.71 1.55 C11.36 -0.48, 11.19 1.32, 11.18 1.62 M10.8 0.52 C14.03 -1.48, 18.54 -0.15, 21.68 1.73 C24.82 3.61, 28.05 7.62, 29.64 11.82 C31.24 16.02, 31.74 21.96, 31.25 26.94 C30.75 31.92, 29.31 38.64, 26.67 41.68 C24.03 44.73, 18.95 45.35, 15.41 45.23 C11.87 45.12, 7.95 43.79, 5.41 41.02 C2.88 38.24, 0.94 33.74, 0.18 28.59 C-0.59 23.43, -0.69 14.7, 0.81 10.1 C2.32 5.49, 7.67 2.4, 9.22 0.98 C10.77 -0.44, 9.64 0.96, 10.12 1.57" stroke="none" stroke-width="0" fill="#ff8787"></path><path d="M9.81 1.47 C12.54 -0.36, 17.43 0.05, 20.69 1.69 C23.94 3.33, 27.63 7.19, 29.36 11.31 C31.09 15.43, 31.72 21.44, 31.06 26.39 C30.41 31.34, 27.94 37.82, 25.43 41.01 C22.93 44.19, 19.22 45.6, 16.02 45.5 C12.82 45.39, 8.87 43.56, 6.26 40.38 C3.65 37.2, 1.03 31.11, 0.35 26.43 C-0.32 21.75, 0.02 16.79, 2.2 12.32 C4.39 7.86, 11.51 1.71, 13.47 -0.35 C15.44 -2.41, 13.97 -0.43, 13.99 -0.04 M14.11 -0.09 C17.33 -1.1, 21.42 0.16, 24.09 2.9 C26.77 5.64, 29.29 11.33, 30.16 16.36 C31.03 21.39, 30.72 28.63, 29.31 33.07 C27.91 37.51, 24.62 41.09, 21.72 43 C18.82 44.91, 15.11 45.58, 11.9 44.51 C8.69 43.45, 4.61 40.52, 2.47 36.58 C0.33 32.65, -1.14 25.72, -0.93 20.93 C-0.72 16.13, 1.5 11.4, 3.72 7.82 C5.94 4.24, 10.89 0.69, 12.41 -0.54 C13.93 -1.77, 12.51 0.15, 12.85 0.43" stroke="#1e1e1e" stroke-width="4" fill="none"></path></g><g stroke-linecap="round" transform="translate(164.87203669984137 9.298737805245764) rotate(229.07198506677358 16.841744892220504 19.136679707406984)"><path d="M21.11 0.41 C24.66 1, 28.46 3.97, 30.68 7.08 C32.9 10.2, 34.67 14.92, 34.44 19.11 C34.21 23.3, 31.72 29.04, 29.3 32.25 C26.88 35.46, 23.66 37.91, 19.9 38.36 C16.14 38.82, 9.88 37.13, 6.74 34.95 C3.6 32.78, 1.93 29.34, 1.05 25.32 C0.17 21.3, 0.04 14.81, 1.48 10.84 C2.91 6.88, 6.17 3.28, 9.67 1.54 C13.17 -0.21, 20.42 0.54, 22.5 0.37 C24.58 0.21, 22.53 0.31, 22.17 0.55 M23.12 1.48 C26.38 2.77, 29.93 6.34, 31.64 9.78 C33.35 13.23, 33.9 18.04, 33.36 22.17 C32.83 26.29, 31.23 32.02, 28.41 34.51 C25.6 37, 20.24 37.23, 16.46 37.12 C12.69 37.01, 8.5 36.07, 5.79 33.86 C3.08 31.64, 1 28.13, 0.19 23.84 C-0.61 19.54, -0.66 11.93, 0.96 8.08 C2.59 4.23, 6.39 1.92, 9.93 0.73 C13.48 -0.45, 19.95 0.64, 22.24 0.95 C24.54 1.27, 23.77 2.45, 23.68 2.63" stroke="none" stroke-width="0" fill="#ff8787"></path><path d="M15.22 0.33 C18.71 -0.23, 23.74 1.16, 26.69 3.39 C29.65 5.62, 32.15 9.69, 32.95 13.72 C33.74 17.76, 32.99 23.94, 31.48 27.61 C29.97 31.28, 27.02 34.18, 23.9 35.74 C20.79 37.29, 16.28 38.06, 12.79 36.94 C9.3 35.81, 5.08 32.19, 2.98 29.01 C0.88 25.82, -0.33 21.91, 0.19 17.82 C0.71 13.74, 3.2 7.55, 6.11 4.5 C9.02 1.45, 15.03 0.24, 17.63 -0.47 C20.23 -1.19, 21.68 -0.14, 21.74 0.2 M16.35 -0.78 C19.61 -1.03, 24.1 1.47, 26.77 4.33 C29.44 7.2, 31.78 12.53, 32.36 16.41 C32.95 20.3, 31.93 24.4, 30.28 27.61 C28.63 30.83, 25.75 34.21, 22.47 35.7 C19.19 37.19, 14.1 37.88, 10.6 36.56 C7.09 35.25, 3.26 31.16, 1.46 27.81 C-0.35 24.47, -0.75 20.46, -0.25 16.49 C0.24 12.51, 1.79 6.74, 4.44 3.96 C7.08 1.18, 13.49 0.61, 15.59 -0.22 C17.69 -1.04, 16.69 -1.14, 17.03 -0.98" stroke="#1e1e1e" stroke-width="4" fill="none"></path></g><g stroke-linecap="round" transform="translate(125.24709099339361 7.311470426979213) rotate(320.10422975833734 17.016015935369524 24.274668464821843)"><path d="M15.03 -0.22 C18.46 -1.38, 23.72 -0.14, 26.76 2.7 C29.8 5.54, 32.11 11.68, 33.27 16.82 C34.44 21.96, 35.28 28.78, 33.75 33.54 C32.21 38.3, 27.38 42.89, 24.06 45.39 C20.74 47.89, 17.2 49.71, 13.82 48.54 C10.45 47.37, 6.02 42.66, 3.81 38.38 C1.6 34.11, 0.3 28.03, 0.55 22.92 C0.8 17.81, 2.72 11.68, 5.32 7.71 C7.91 3.75, 14.12 0.44, 16.11 -0.89 C18.1 -2.22, 17.12 -0.88, 17.28 -0.28 M12.47 1.09 C15.65 -0.69, 20.42 -0.5, 23.85 1.7 C27.29 3.89, 31.54 9.7, 33.1 14.25 C34.67 18.79, 34.27 23.98, 33.24 28.94 C32.2 33.9, 29.78 40.5, 26.88 44 C23.97 47.51, 19.64 50.57, 15.81 49.96 C11.98 49.35, 6.71 44.27, 3.89 40.36 C1.06 36.44, -0.89 31.45, -1.13 26.47 C-1.36 21.5, 0.03 14.58, 2.46 10.51 C4.88 6.44, 11.82 3.71, 13.41 2.04 C15.01 0.36, 12.01 0.37, 12.03 0.47" stroke="none" stroke-width="0" fill="#ff8787"></path><path d="M17.49 -0.27 C20.99 -0.61, 25.47 1.84, 28.12 5.37 C30.77 8.89, 32.77 15.74, 33.37 20.87 C33.97 26.01, 33.45 31.87, 31.71 36.18 C29.97 40.5, 26.43 45.12, 22.94 46.75 C19.46 48.39, 14.28 47.72, 10.8 46.01 C7.33 44.29, 3.69 41.05, 2.11 36.46 C0.53 31.86, 0.71 23.75, 1.31 18.45 C1.91 13.15, 2.67 7.82, 5.72 4.64 C8.78 1.46, 17.27 0.05, 19.63 -0.63 C21.99 -1.32, 20.03 -0.04, 19.87 0.53 M14.79 0.17 C18.08 -0.31, 22.81 2.43, 25.7 5.25 C28.59 8.07, 31.08 12.44, 32.14 17.08 C33.2 21.73, 33.5 28.38, 32.06 33.13 C30.63 37.88, 26.91 43.32, 23.52 45.56 C20.13 47.8, 15.21 47.73, 11.74 46.57 C8.26 45.42, 4.83 42.81, 2.66 38.64 C0.48 34.46, -1.52 26.81, -1.3 21.53 C-1.08 16.26, 1.1 10.77, 3.97 6.97 C6.84 3.17, 13.84 0, 15.93 -1.26 C18.02 -2.53, 16.83 -1.1, 16.53 -0.61" stroke="#1e1e1e" stroke-width="4" fill="none"></path></g><g stroke-linecap="round" transform="translate(158.8927771045992 45.65073183922141) rotate(320.10422975833734 18.320652317477425 20.66399156738771)"><path d="M18.55 -0.93 C22.21 -1.22, 26.65 1.63, 29.76 4.57 C32.87 7.51, 36.58 12.45, 37.19 16.71 C37.81 20.98, 35.43 26.23, 33.46 30.17 C31.49 34.12, 28.84 38.83, 25.39 40.37 C21.94 41.9, 16.42 40.96, 12.74 39.39 C9.05 37.81, 5.21 34.62, 3.28 30.94 C1.35 27.26, 0.73 21.74, 1.17 17.31 C1.62 12.87, 2.77 7.31, 5.96 4.33 C9.14 1.35, 17.15 -0.15, 20.27 -0.59 C23.39 -1.03, 24.68 1.15, 24.66 1.67 M20.09 -0.28 C23.93 -0.04, 29.54 3.85, 32.24 6.89 C34.94 9.93, 36.16 13.63, 36.29 17.96 C36.42 22.28, 35.28 28.81, 33.03 32.84 C30.78 36.87, 26.8 41.31, 22.8 42.15 C18.8 42.99, 12.78 40.1, 9.05 37.87 C5.31 35.64, 1.87 32.62, 0.4 28.78 C-1.06 24.95, -1.2 18.86, 0.25 14.85 C1.7 10.83, 5.86 7.29, 9.12 4.68 C12.37 2.06, 17.82 -0.05, 19.78 -0.85 C21.74 -1.66, 20.86 -0.9, 20.86 -0.16" stroke="none" stroke-width="0" fill="#ff8787"></path><path d="M20.72 -0.6 C24.38 -0.2, 28.82 3.68, 31.52 6.97 C34.21 10.27, 36.57 14.84, 36.87 19.16 C37.17 23.48, 35.77 29.4, 33.31 32.89 C30.86 36.38, 26.08 38.98, 22.15 40.1 C18.21 41.21, 13.04 41.68, 9.72 39.58 C6.41 37.47, 3.84 31.78, 2.24 27.45 C0.65 23.12, -1.05 17.81, 0.15 13.62 C1.35 9.42, 5.75 4.54, 9.45 2.3 C13.15 0.06, 19.92 0.3, 22.36 0.2 C24.8 0.11, 24.13 1.34, 24.07 1.72 M12.6 1.62 C16.04 0.14, 21.15 -0.36, 24.81 1.15 C28.46 2.66, 32.79 6.62, 34.54 10.66 C36.28 14.7, 36.36 21.09, 35.25 25.39 C34.14 29.69, 31.02 33.74, 27.85 36.44 C24.68 39.14, 20.2 41.92, 16.22 41.6 C12.24 41.28, 6.83 37.75, 3.98 34.51 C1.12 31.28, -0.87 26.72, -0.9 22.2 C-0.92 17.68, 1.21 11.19, 3.81 7.41 C6.4 3.63, 13.25 0.69, 14.65 -0.5 C16.06 -1.69, 12.21 -0.13, 12.22 0.27" stroke="#1e1e1e" stroke-width="4" fill="none"></path></g><g stroke-linecap="round" transform="translate(142.85383527886825 30.014194324179698) rotate(320.10422975833734 19.38580652198175 19.385806521981976)"><path d="M14.98 0.65 C18.79 -0.3, 25.46 0.5, 29 2.3 C32.53 4.09, 34.64 7.55, 36.18 11.4 C37.73 15.26, 39.25 21.55, 38.26 25.43 C37.26 29.31, 33.65 32.57, 30.23 34.67 C26.8 36.77, 21.69 38.44, 17.7 38.05 C13.71 37.66, 9.26 35.4, 6.29 32.33 C3.31 29.26, 0.39 23.84, -0.14 19.63 C-0.67 15.41, -0.07 10.25, 3.13 7.03 C6.33 3.8, 16.04 1.3, 19.06 0.27 C22.08 -0.76, 21.31 0.54, 21.24 0.84 M21.08 0.68 C24.99 0.48, 29.32 1.24, 32.22 3.97 C35.11 6.69, 37.87 12.46, 38.44 17.02 C39.02 21.57, 38.09 28.06, 35.66 31.3 C33.23 34.54, 28 35.54, 23.84 36.47 C19.68 37.4, 14.39 38.29, 10.71 36.89 C7.02 35.49, 3.26 31.51, 1.74 28.07 C0.22 24.63, 0.67 20.4, 1.59 16.23 C2.51 12.06, 4.02 5.84, 7.26 3.03 C10.5 0.21, 18.89 -0.46, 21.03 -0.65 C23.17 -0.85, 20.02 1.34, 20.09 1.85" stroke="none" stroke-width="0" fill="#ffc9c9"></path><path d="M16.17 0.24 C20.13 -0.57, 26.16 -0.05, 29.87 2.04 C33.58 4.13, 37.16 8.82, 38.43 12.78 C39.7 16.75, 39.12 21.75, 37.49 25.82 C35.85 29.89, 32.13 35.26, 28.61 37.21 C25.08 39.16, 20.54 38.57, 16.33 37.5 C12.12 36.43, 5.95 34.05, 3.35 30.79 C0.76 27.53, 0.53 22.08, 0.76 17.96 C0.99 13.84, 1.59 9.02, 4.7 6.06 C7.82 3.11, 16.55 1.16, 19.45 0.23 C22.34 -0.71, 22.14 0.26, 22.06 0.47 M18.51 -0.8 C22.56 -1.34, 28.54 0.74, 31.76 3.5 C34.97 6.26, 37.24 11.64, 37.79 15.76 C38.33 19.89, 37.12 24.54, 35.02 28.26 C32.91 31.98, 29.16 36.68, 25.16 38.09 C21.16 39.5, 14.96 38.33, 11.01 36.73 C7.05 35.13, 3.13 32.25, 1.43 28.5 C-0.26 24.75, -0.3 18.48, 0.84 14.25 C1.98 10.01, 5.37 5.59, 8.28 3.08 C11.19 0.57, 16.28 -0.24, 18.31 -0.81 C20.34 -1.38, 20.29 -0.94, 20.46 -0.34" stroke="#1e1e1e" stroke-width="4" fill="none"></path></g><g stroke-linecap="round" transform="translate(100.63657493899609 204.8412106094911) rotate(0 36.83056609603159 21.99603252957513)"><path d="M8.93 9.53 C12.6 5.61, 18.53 1.13, 25.98 0.08 C33.43 -0.96, 46.13 1.38, 53.6 3.25 C61.08 5.12, 67.54 7.33, 70.83 11.28 C74.11 15.22, 75.22 22.2, 73.31 26.91 C71.4 31.61, 66.14 36.97, 59.35 39.49 C52.57 42.02, 40.99 42.69, 32.58 42.05 C24.18 41.41, 14.11 38.66, 8.92 35.65 C3.74 32.64, -1.5 29.72, 1.5 23.98 C4.5 18.24, 18.31 4.74, 26.94 1.23 C35.57 -2.28, 52.91 2.67, 53.27 2.92 M26.94 -1.6 C33.75 -3.18, 45.07 -0.53, 52.28 2.36 C59.49 5.26, 67.31 11.99, 70.21 15.76 C73.11 19.53, 72.16 21.08, 69.67 25 C67.19 28.93, 61.5 36.25, 55.31 39.32 C49.12 42.39, 39.59 43.39, 32.51 43.44 C25.44 43.48, 18.38 43.21, 12.86 39.61 C7.34 36.01, 0.16 27.14, -0.59 21.86 C-1.35 16.58, 3.68 10.96, 8.32 7.91 C12.95 4.87, 23.54 4.57, 27.21 3.6 C30.88 2.62, 30.47 1.95, 30.33 2.04" stroke="none" stroke-width="0" fill="#1e1e1e"></path><path d="M10.42 5.18 C15.56 1.51, 25.85 -0.48, 33.64 -1.01 C41.43 -1.55, 50.73 -1.04, 57.17 1.96 C63.6 4.97, 69.68 12.55, 72.25 17.04 C74.83 21.53, 75.99 25.01, 72.6 28.92 C69.22 32.83, 59.05 38.35, 51.95 40.5 C44.85 42.66, 37.5 42.87, 29.99 41.86 C22.47 40.85, 11.87 37.89, 6.87 34.46 C1.87 31.02, -2.27 26.68, -0.01 21.26 C2.24 15.84, 14.94 5.54, 20.41 1.93 C25.87 -1.68, 32.44 -0.53, 32.78 -0.38 M57.28 1.42 C63.85 3.82, 69.11 10.46, 70.93 15.07 C72.76 19.67, 71.51 24.43, 68.25 29.03 C64.98 33.63, 58.62 40.56, 51.32 42.68 C44.01 44.8, 32.19 43.19, 24.41 41.76 C16.63 40.33, 8.53 38.18, 4.64 34.09 C0.75 30.01, -0.29 22.27, 1.1 17.25 C2.48 12.23, 8.02 7.12, 12.98 3.98 C17.93 0.85, 23.07 -1.32, 30.81 -1.56 C38.55 -1.8, 55.09 1.29, 59.43 2.56 C63.76 3.83, 57.42 5.3, 56.81 6.06" stroke="#1e1e1e" stroke-width="4" fill="none"></path></g></svg>