<svg version="1.1" xmlns="http://www.w3.org/2000/svg" viewBox="0 0 220.36932590886863 253.1778827189051" width="220.36932590886863" height="253.1778827189051">
  <!-- svg-source:excalidraw -->
  
  <defs>
    <style class="style-fonts">
      
    </style>
    
  </defs>
  <g stroke-linecap="round" transform="translate(110.42028831771995 199.18581765975483) rotate(0 25.425678915249136 21.99603252957513)"><path d="M16.95 2.22 C21.83 0.97, 29.87 1.01, 34.98 2.68 C40.1 4.35, 45.39 7.98, 47.62 12.23 C49.86 16.49, 49.67 23.62, 48.4 28.21 C47.13 32.81, 44.13 37.26, 39.99 39.82 C35.85 42.39, 28.97 44.17, 23.56 43.59 C18.14 43.02, 11.32 39.56, 7.51 36.37 C3.71 33.18, 1.35 29.09, 0.72 24.48 C0.09 19.87, 0.18 12.7, 3.75 8.7 C7.33 4.7, 17.77 1.74, 22.17 0.48 C26.56 -0.77, 29.61 1.13, 30.14 1.16 M34.8 -1.58 C40.58 -0.34, 47.9 7.78, 50.11 11.87 C52.32 15.97, 49.82 18.67, 48.07 23 C46.33 27.33, 43.64 34.73, 39.63 37.83 C35.63 40.93, 29.28 41.43, 24.05 41.6 C18.82 41.78, 12.68 42.01, 8.28 38.9 C3.88 35.78, -1.23 27.46, -2.33 22.92 C-3.43 18.37, -1.09 15.26, 1.67 11.62 C4.43 7.99, 8.55 3.12, 14.21 1.09 C19.87 -0.94, 32.6 -0.66, 35.63 -0.54 C38.66 -0.42, 33.26 1.18, 32.41 1.81" stroke="none" stroke-width="0" fill="#1e1e1e"></path><path d="M42.97 8.55 C46.73 11.6, 50.33 15.39, 50.57 19.68 C50.81 23.96, 47.83 30.14, 44.4 34.27 C40.97 38.4, 34.92 43.15, 29.98 44.46 C25.04 45.77, 19.47 44.72, 14.75 42.12 C10.03 39.53, 4.09 33.6, 1.69 28.91 C-0.72 24.22, -1.56 18.17, 0.33 13.99 C2.22 9.82, 8.17 5.99, 13.03 3.85 C17.89 1.71, 23.09 -0.59, 29.5 1.18 C35.92 2.95, 47.91 10.89, 51.52 14.48 C55.13 18.07, 51.96 22.35, 51.17 22.74 M23.89 2.02 C28.79 0.96, 34.98 -0.05, 38.76 1.86 C42.55 3.77, 44.82 9.13, 46.61 13.48 C48.4 17.83, 51.32 23.68, 49.5 27.95 C47.69 32.22, 40.81 36.76, 35.74 39.1 C30.66 41.44, 23.93 42.9, 19.03 41.98 C14.12 41.05, 9.94 37.14, 6.31 33.56 C2.68 29.97, -2.58 24.48, -2.76 20.48 C-2.94 16.48, 0.85 12.99, 5.21 9.55 C9.57 6.11, 20.7 1.54, 23.42 -0.17 C26.14 -1.87, 21.83 -0.79, 21.55 -0.67" stroke="#1e1e1e" stroke-width="4" fill="none"></path></g><g stroke-linecap="round" transform="translate(35.36932590886863 29.922525995908074) rotate(0 87.5 93.75719990060492)"><path d="M32 0 C69.4 -7.22, 98.3 -6.73, 143 0 C162.42 -2.55, 170.54 9.18, 175 32 C168.62 70.46, 167.15 106.11, 175 155.51 C177.8 173.36, 161.45 187.65, 143 187.51 C116 186.53, 100.57 186.54, 32 187.51 C13.56 192.74, -2.44 173.52, 0 155.51 C5.09 114.42, 7.82 78.71, 0 32 C1.36 12.27, 15.86 0.26, 32 0" stroke="none" stroke-width="0" fill="#ffc9c9"></path><path d="M32 0 C64.58 -3.72, 95.98 1.28, 143 0 M32 0 C62.95 0.32, 96.87 2.35, 143 0 M143 0 C165.4 -0.66, 171.66 9.11, 175 32 M143 0 C160.74 3.31, 175.71 12.89, 175 32 M175 32 C179.38 72.18, 176.75 120.79, 175 155.51 M175 32 C177.57 68.33, 176.11 101.43, 175 155.51 M175 155.51 C171.16 174.94, 164.83 184.85, 143 187.51 M175 155.51 C172.02 173.52, 162.09 185.07, 143 187.51 M143 187.51 C105.7 184.02, 73.93 187.98, 32 187.51 M143 187.51 C111.13 185.27, 77.79 185.83, 32 187.51 M32 187.51 C9.43 186.67, -2.5 175.37, 0 155.51 M32 187.51 C13.36 187.33, 2.38 176.14, 0 155.51 M0 155.51 C0.33 116.41, 0.6 74.83, 0 32 M0 155.51 C1.88 123.26, 0.8 89.66, 0 32 M0 32 C0.88 10.81, 11.35 2.53, 32 0 M0 32 C-3.63 12.27, 7.35 1.67, 32 0" stroke="#1e1e1e" stroke-width="4" fill="none"></path></g><g stroke-linecap="round" transform="translate(14.77447998422167 45.91453943027278) rotate(50.75529013856277 15.774349912333946 23.19438092461226)"><path d="M20.17 1.22 C23.16 2.35, 26.24 7.1, 28.04 11.26 C29.83 15.41, 31.26 21.37, 30.94 26.15 C30.63 30.92, 28.59 36.7, 26.15 39.91 C23.7 43.12, 19.52 45.13, 16.26 45.4 C12.99 45.67, 9.23 44.48, 6.57 41.54 C3.92 38.59, 1.29 32.48, 0.33 27.72 C-0.63 22.96, -0.71 17.24, 0.84 12.96 C2.38 8.68, 6.04 4.08, 9.59 2.05 C13.15 0.02, 19.94 0.81, 22.16 0.81 C24.38 0.81, 23.04 1.51, 22.9 2.04 M7.24 1.25 C9.59 -1.36, 14.67 -1.07, 18.06 0.02 C21.45 1.11, 25.39 3.78, 27.57 7.8 C29.75 11.83, 31.38 19.21, 31.14 24.14 C30.89 29.06, 28.44 33.62, 26.09 37.35 C23.74 41.07, 20.36 45.6, 17.03 46.49 C13.69 47.38, 8.68 45.55, 6.09 42.69 C3.5 39.83, 2.45 34.03, 1.5 29.32 C0.55 24.62, -0.52 18.9, 0.4 14.44 C1.33 9.99, 5.87 4.66, 7.05 2.59 C8.24 0.52, 7.1 1.51, 7.51 2.03" stroke="none" stroke-width="0" fill="#ff8787"></path><path d="M21.08 1.24 C24.05 2.94, 27.4 8.38, 29.16 12.9 C30.91 17.43, 32.28 23.74, 31.63 28.38 C30.98 33.01, 28.08 37.83, 25.27 40.7 C22.46 43.56, 18 45.62, 14.77 45.59 C11.54 45.56, 8.25 43.65, 5.89 40.52 C3.53 37.4, 1.04 31.83, 0.63 26.83 C0.21 21.84, 1.61 14.96, 3.42 10.54 C5.22 6.12, 8.25 1.59, 11.45 0.33 C14.65 -0.94, 20.61 2.35, 22.61 2.96 C24.62 3.58, 23.6 3.63, 23.48 4.02 M18.89 0.27 C22.04 1.3, 27.23 5.39, 29.16 9.49 C31.09 13.58, 31.02 19.88, 30.47 24.85 C29.92 29.82, 28.09 35.9, 25.85 39.3 C23.6 42.7, 20.49 44.92, 17.01 45.24 C13.53 45.57, 7.8 43.86, 4.95 41.24 C2.09 38.62, 0.26 34.3, -0.12 29.52 C-0.51 24.73, 1.03 17.25, 2.64 12.53 C4.24 7.81, 6.59 3.28, 9.52 1.2 C12.45 -0.88, 18.65 0.1, 20.22 0.06 C21.79 0.01, 19.05 0.45, 18.91 0.93" stroke="#1e1e1e" stroke-width="4" fill="none"></path></g><g stroke-linecap="round" transform="translate(54.90153908893217 9.298737805242638) rotate(229.07198506677358 16.841744892220504 19.136679707406984)"><path d="M20.22 1.41 C23.53 2.16, 27.95 5.14, 30.11 8.33 C32.28 11.52, 33.48 16.66, 33.19 20.56 C32.91 24.45, 30.82 28.78, 28.38 31.68 C25.95 34.58, 22.15 37.56, 18.6 37.96 C15.06 38.36, 10.28 36.34, 7.14 34.07 C3.99 31.8, 0.66 28.17, -0.27 24.37 C-1.19 20.57, -0.17 15.16, 1.59 11.27 C3.36 7.38, 6.56 2.74, 10.31 1.03 C14.06 -0.69, 21.44 0.51, 24.11 0.97 C26.79 1.43, 26.7 3.2, 26.37 3.76 M18.2 -0.31 C21.71 0.04, 26.22 2.06, 28.73 5.21 C31.24 8.36, 33.28 14.53, 33.28 18.59 C33.27 22.65, 31.02 26.28, 28.7 29.55 C26.39 32.81, 22.91 37.14, 19.39 38.19 C15.87 39.24, 10.5 38.02, 7.6 35.87 C4.69 33.72, 3.2 29.07, 1.95 25.28 C0.69 21.5, -0.7 16.92, 0.08 13.17 C0.85 9.42, 3.59 5.12, 6.61 2.79 C9.63 0.45, 16.04 -0.65, 18.2 -0.85 C20.35 -1.05, 19.36 0.97, 19.55 1.59" stroke="none" stroke-width="0" fill="#ff8787"></path><path d="M11.37 1.34 C14.78 0.1, 20.51 0.42, 23.89 1.8 C27.28 3.19, 30.21 6.17, 31.7 9.65 C33.19 13.13, 33.53 18.54, 32.85 22.7 C32.18 26.86, 30.41 31.92, 27.67 34.6 C24.93 37.27, 19.97 39.05, 16.41 38.75 C12.85 38.45, 8.95 35.84, 6.31 32.82 C3.68 29.8, 1.23 24.58, 0.61 20.65 C-0.02 16.72, 0.26 12.57, 2.57 9.23 C4.88 5.88, 12.04 1.91, 14.47 0.57 C16.89 -0.77, 16.93 0.92, 17.09 1.18 M13.36 -0.54 C16.74 -1.69, 20.58 -0.86, 23.63 1.07 C26.68 2.99, 30.06 7.21, 31.66 10.99 C33.27 14.77, 34.45 19.8, 33.26 23.75 C32.07 27.71, 27.72 32.17, 24.53 34.73 C21.34 37.3, 17.32 39.61, 14.13 39.13 C10.93 38.66, 7.74 35.17, 5.38 31.87 C3.03 28.57, 0.32 23.53, -0.01 19.32 C-0.35 15.1, 1.38 9.8, 3.36 6.58 C5.34 3.35, 10.28 0.96, 11.85 -0.05 C13.42 -1.06, 12.66 0.21, 12.78 0.52" stroke="#1e1e1e" stroke-width="4" fill="none"></path></g><g stroke-linecap="round" transform="translate(15.276593382484407 7.311470426979724) rotate(320.10422975833734 17.016015935369524 24.274668464821843)"><path d="M18.52 0.38 C22.07 0.49, 26.46 3.86, 28.98 7.45 C31.49 11.04, 33.28 16.76, 33.6 21.94 C33.92 27.13, 33.02 34.36, 30.9 38.56 C28.77 42.76, 24.56 45.86, 20.83 47.13 C17.1 48.4, 11.74 48.36, 8.51 46.17 C5.27 43.99, 2.61 38.98, 1.42 34.03 C0.23 29.09, 0.25 21.62, 1.35 16.49 C2.46 11.36, 4.62 5.83, 8.03 3.26 C11.44 0.68, 19.38 1.05, 21.82 1.06 C24.26 1.08, 22.79 3.13, 22.7 3.35 M8.62 1.44 C11.72 -0.98, 17.02 -0.48, 20.46 0.65 C23.9 1.79, 27.14 4.03, 29.26 8.24 C31.37 12.44, 33.32 20.47, 33.14 25.88 C32.96 31.3, 30.41 37.13, 28.19 40.73 C25.97 44.32, 23.36 46.78, 19.83 47.44 C16.29 48.09, 10.37 47.35, 6.96 44.66 C3.55 41.97, 0.47 36.44, -0.64 31.28 C-1.75 26.13, -1.43 18.33, 0.29 13.73 C2 9.12, 8.05 5.29, 9.63 3.64 C11.22 2, 9.48 3.76, 9.79 3.84" stroke="none" stroke-width="0" fill="#ff8787"></path><path d="M13.36 0.98 C16.74 -0.73, 21.2 -0.47, 24.33 1.64 C27.47 3.75, 30.56 8.74, 32.18 13.66 C33.81 18.58, 34.95 25.95, 34.09 31.16 C33.22 36.37, 29.97 42.1, 26.99 44.93 C24.01 47.76, 19.82 48.89, 16.19 48.13 C12.57 47.36, 7.96 43.94, 5.24 40.33 C2.52 36.72, 0.22 31.47, -0.13 26.47 C-0.49 21.48, 0.81 14.59, 3.11 10.38 C5.41 6.17, 11.6 2.8, 13.68 1.19 C15.75 -0.42, 15.54 0.61, 15.55 0.72 M12.03 -0.4 C15.19 -1.83, 20.35 -0.58, 23.84 1.73 C27.33 4.03, 31.6 8.62, 32.95 13.43 C34.31 18.24, 33.14 25.24, 31.96 30.58 C30.79 35.93, 28.55 42.57, 25.9 45.5 C23.25 48.44, 19.61 49.05, 16.08 48.19 C12.54 47.33, 7.36 44.23, 4.67 40.35 C1.98 36.46, 0.37 30.05, -0.07 24.89 C-0.52 19.72, -0.11 13.47, 1.99 9.38 C4.09 5.29, 10.85 1.83, 12.54 0.37 C14.23 -1.1, 11.85 0.17, 12.14 0.6" stroke="#1e1e1e" stroke-width="4" fill="none"></path></g><g stroke-linecap="round" transform="translate(48.922279493689985 45.65073183921464) rotate(320.10422975833734 18.320652317477425 20.66399156738771)"><path d="M24.78 1.32 C28.34 2.47, 32.15 6.13, 34.1 10.04 C36.06 13.94, 37.25 20.39, 36.48 24.75 C35.71 29.11, 32.77 33.39, 29.49 36.19 C26.22 38.98, 20.71 41.54, 16.8 41.53 C12.9 41.53, 8.75 39.31, 6.08 36.17 C3.41 33.04, 1.3 27.26, 0.81 22.72 C0.32 18.19, 1.11 12.55, 3.15 8.97 C5.18 5.39, 9.41 2.26, 13.04 1.23 C16.68 0.19, 22.67 2.65, 24.95 2.75 C27.23 2.85, 26.86 1.77, 26.74 1.81 M14.81 0.33 C18.33 -0.69, 22.87 -0.92, 26.18 1.36 C29.5 3.64, 33.35 9.6, 34.69 13.99 C36.03 18.37, 35.33 23.74, 34.25 27.69 C33.16 31.63, 31.5 35.44, 28.17 37.66 C24.85 39.89, 18.52 41.68, 14.3 41.04 C10.08 40.39, 5.42 37.4, 2.86 33.81 C0.3 30.23, -1.37 23.79, -1.07 19.54 C-0.77 15.29, 1.89 11.41, 4.66 8.33 C7.43 5.25, 13.54 2.45, 15.54 1.07 C17.54 -0.3, 16.82 -0.21, 16.67 0.05" stroke="none" stroke-width="0" fill="#ff8787"></path><path d="M22.81 -0.16 C26.33 0.48, 30.47 4.16, 32.88 7.94 C35.3 11.72, 37.48 17.88, 37.3 22.51 C37.12 27.14, 34.54 32.63, 31.82 35.71 C29.11 38.78, 24.9 40.76, 21 40.96 C17.09 41.15, 11.8 39.25, 8.38 36.87 C4.96 34.49, 1.62 30.73, 0.48 26.66 C-0.66 22.59, -0.11 16.41, 1.52 12.43 C3.15 8.45, 6.38 4.65, 10.25 2.77 C14.12 0.89, 22.34 1.43, 24.76 1.14 C27.18 0.84, 25.04 0.66, 24.77 1 M11.6 0.34 C15.27 -1.29, 21.66 -1.37, 25.22 0.25 C28.77 1.88, 31.19 5.87, 32.95 10.1 C34.71 14.32, 36.12 21.2, 35.77 25.6 C35.41 30, 33.77 33.99, 30.81 36.49 C27.85 39, 22.09 40.84, 17.99 40.65 C13.89 40.45, 9.39 38.22, 6.21 35.34 C3.03 32.47, -0.41 27.69, -1.09 23.42 C-1.77 19.15, 0.06 13.53, 2.14 9.72 C4.22 5.92, 9.53 1.96, 11.4 0.58 C13.26 -0.8, 12.95 1.08, 13.33 1.46" stroke="#1e1e1e" stroke-width="4" fill="none"></path></g><g stroke-linecap="round" transform="translate(32.88333766795904 30.01419432418021) rotate(320.10422975833734 19.38580652198175 19.38580652198175)"><path d="M21.05 -0.84 C25.11 -0.67, 30.67 2.69, 33.6 5.72 C36.54 8.74, 38.54 13.08, 38.64 17.3 C38.74 21.52, 36.62 27.52, 34.19 31.04 C31.76 34.55, 27.85 37.55, 24.07 38.38 C20.29 39.21, 15.16 37.98, 11.48 36 C7.81 34.02, 3.73 30.14, 2.01 26.51 C0.28 22.88, 0.19 17.95, 1.13 14.22 C2.06 10.5, 3.83 6.61, 7.61 4.18 C11.39 1.75, 21 0.24, 23.81 -0.35 C26.62 -0.94, 24.65 0.29, 24.48 0.66 M10.51 0.07 C13.98 -1.64, 20.26 -0.27, 24.25 1.18 C28.23 2.63, 31.89 5.48, 34.41 8.76 C36.94 12.05, 39.81 16.73, 39.37 20.88 C38.93 25.02, 35.19 30.68, 31.79 33.64 C28.38 36.61, 23.15 38.65, 18.96 38.68 C14.76 38.7, 9.62 36.11, 6.6 33.78 C3.57 31.45, 1.5 28.44, 0.81 24.69 C0.13 20.94, 0.4 15.27, 2.48 11.3 C4.55 7.33, 11.83 2.38, 13.27 0.86 C14.71 -0.65, 11.44 1.55, 11.13 2.2" stroke="none" stroke-width="0" fill="#ffc9c9"></path><path d="M21.58 -0.61 C25.67 -0.16, 31.49 3.2, 34.43 6.48 C37.38 9.77, 39.02 15.02, 39.24 19.1 C39.45 23.18, 38.25 27.87, 35.72 30.95 C33.18 34.02, 28.27 36.52, 24.02 37.54 C19.77 38.57, 14 38.83, 10.22 37.1 C6.43 35.37, 2.89 30.96, 1.3 27.16 C-0.29 23.36, -0.71 18.31, 0.67 14.29 C2.05 10.28, 5.42 5.4, 9.6 3.06 C13.78 0.73, 22.44 0.17, 25.74 0.27 C29.03 0.36, 29.5 3.29, 29.35 3.64 M12.88 0.14 C16.38 -1.44, 20.64 -1.17, 24.41 0.56 C28.18 2.29, 33 6.88, 35.51 10.51 C38.02 14.13, 40.05 18.49, 39.46 22.3 C38.88 26.12, 35.32 30.81, 32 33.4 C28.67 35.99, 23.89 37.76, 19.52 37.84 C15.15 37.92, 9.06 36.41, 5.79 33.88 C2.51 31.36, 0.58 26.76, -0.13 22.67 C-0.83 18.58, -0.72 12.93, 1.54 9.35 C3.8 5.77, 11.43 2.52, 13.41 1.19 C15.39 -0.14, 13.42 1.3, 13.44 1.38" stroke="#1e1e1e" stroke-width="4" fill="none"></path></g><g stroke-linecap="round" transform="translate(83.61323096040906 201.19803981354613) rotate(0 25.840402085459573 20.721170186160634)"><path d="M21.45 -0.1 C26.65 -1.09, 33.77 -1.25, 38.24 1.07 C42.71 3.38, 46.26 9.31, 48.27 13.77 C50.29 18.24, 51.65 23.99, 50.33 27.85 C49.01 31.71, 45.02 34.94, 40.37 36.92 C35.73 38.91, 28 40.1, 22.45 39.74 C16.89 39.37, 11.1 37.55, 7.03 34.73 C2.97 31.91, -1.82 27.6, -1.93 22.82 C-2.04 18.04, 1.35 10.05, 6.37 6.06 C11.39 2.06, 22.96 -0.49, 28.19 -1.14 C33.41 -1.79, 37.74 1.69, 37.72 2.18 M24.57 0.64 C29.86 0.89, 35.56 2.36, 40.27 4.85 C44.99 7.35, 51.84 11.18, 52.86 15.62 C53.89 20.06, 50 27.38, 46.44 31.47 C42.87 35.57, 36.82 39.09, 31.48 40.17 C26.15 41.26, 19.02 39.2, 14.42 37.97 C9.83 36.74, 6.11 36.05, 3.9 32.77 C1.68 29.49, -0.27 23.22, 1.14 18.3 C2.56 13.39, 8.49 6.25, 12.39 3.3 C16.29 0.36, 22.61 0.66, 24.52 0.66 C26.43 0.66, 23.36 3.18, 23.85 3.3" stroke="none" stroke-width="0" fill="#1e1e1e"></path><path d="M8.13 7.11 C11.71 4.24, 17.72 1.95, 23.29 1.2 C28.86 0.45, 36.89 0.68, 41.57 2.62 C46.26 4.55, 50.1 8.32, 51.41 12.82 C52.72 17.32, 51.73 25.13, 49.43 29.64 C47.12 34.14, 42.51 37.7, 37.59 39.86 C32.67 42.01, 25.07 43.6, 19.9 42.55 C14.74 41.5, 10.06 37.63, 6.6 33.54 C3.14 29.45, -2.47 23.36, -0.86 18.01 C0.76 12.66, 11.4 4.54, 16.29 1.43 C21.17 -1.68, 28.38 -0.76, 28.44 -0.63 M9.96 1.81 C14.03 0.15, 22.79 1.49, 29.02 2.32 C35.26 3.16, 43.61 4.03, 47.38 6.84 C51.14 9.65, 51.92 14.98, 51.62 19.18 C51.31 23.38, 49.51 28.56, 45.56 32.04 C41.61 35.52, 33.47 39.07, 27.9 40.08 C22.34 41.1, 16.88 40.32, 12.19 38.12 C7.5 35.92, 1.25 30.94, -0.24 26.87 C-1.73 22.79, 0.82 17.76, 3.24 13.68 C5.66 9.6, 12.54 4.61, 14.28 2.4 C16.02 0.19, 13.35 0.29, 13.7 0.42" stroke="#1e1e1e" stroke-width="4" fill="none"></path></g></svg>