<svg version="1.1" xmlns="http://www.w3.org/2000/svg" viewBox="0 0 209.90105135597332 258.2015655250525" width="209.90105135597332" height="258.2015655250525">
  <!-- svg-source:excalidraw -->
  
  <defs>
    <style class="style-fonts">
      
    </style>
    
  </defs>
  <g stroke-linecap="round" transform="translate(32.30276334030077 201.73472927785042) rotate(0 36.830566096031816 21.99603252957513)"><path d="M62.92 6.55 C68.48 9.39, 72.08 16.07, 73.2 20.58 C74.31 25.1, 73.48 29.72, 69.61 33.62 C65.74 37.53, 57.53 42.42, 49.98 44.03 C42.43 45.64, 31.86 45.32, 24.3 43.28 C16.73 41.23, 8.36 36.24, 4.58 31.76 C0.8 27.29, -0.14 20.67, 1.63 16.41 C3.4 12.15, 8.89 9.15, 15.18 6.2 C21.48 3.26, 30.21 -5.29, 39.4 -1.27 C48.59 2.75, 70.1 22.6, 70.34 30.32 C70.57 38.05, 41.1 45.75, 40.8 45.1 M63.38 6.59 C69.6 9.52, 74.36 12.59, 75.1 17.38 C75.83 22.17, 73.08 30.69, 67.8 35.35 C62.51 40, 51.64 44.18, 43.39 45.3 C35.15 46.43, 24.96 44.67, 18.34 42.08 C11.72 39.49, 6.37 33.65, 3.69 29.75 C1.01 25.84, 0.65 23.2, 2.26 18.67 C3.87 14.14, 6.9 5.58, 13.36 2.55 C19.82 -0.48, 32.62 0.3, 41.03 0.49 C49.44 0.68, 60.35 2.67, 63.85 3.7 C67.34 4.72, 62.42 5.57, 61.98 6.66" stroke="none" stroke-width="0" fill="#1e1e1e"></path><path d="M59.54 3.68 C65.48 5.94, 71.78 11.48, 73.47 16.18 C75.17 20.87, 73.57 27.3, 69.73 31.86 C65.89 36.42, 58.22 41.53, 50.46 43.54 C42.7 45.55, 30.45 45.6, 23.19 43.94 C15.93 42.28, 10.63 37.8, 6.9 33.57 C3.17 29.35, -0.42 23.11, 0.81 18.59 C2.04 14.07, 8.41 9.47, 14.28 6.45 C20.14 3.43, 26.56 -1.29, 36 0.46 C45.43 2.22, 65.16 12.36, 70.88 16.97 C76.6 21.59, 70.63 28, 70.31 28.13 M22.54 3.37 C29.22 1.82, 37.57 2.22, 44.65 2.97 C51.74 3.73, 60.02 4.66, 65.04 7.91 C70.06 11.15, 74.65 17.33, 74.77 22.47 C74.9 27.6, 71.38 35.29, 65.78 38.7 C60.18 42.12, 49.51 42.69, 41.17 42.94 C32.82 43.19, 22.3 42.5, 15.71 40.2 C9.13 37.89, 4.29 33.03, 1.65 29.09 C-0.98 25.15, -2.71 21.3, -0.11 16.53 C2.5 11.76, 13.79 2.82, 17.26 0.46 C20.74 -1.9, 19.89 1.77, 20.74 2.38" stroke="#1e1e1e" stroke-width="4" fill="none"></path></g><g stroke-linecap="round" transform="translate(10 28.112964142881538) rotate(0 87.5 91.47622246444826)"><path d="M32 0 C60.7 0.31, 101.35 -6.44, 143 0 C168.07 -4.81, 175.46 11.42, 175 32 C171.03 59.97, 177.13 93.49, 175 150.95 C176.31 166.85, 163.13 182.47, 143 182.95 C111.17 186.75, 70.19 188.06, 32 182.95 C7.32 185.84, -0.69 175.25, 0 150.95 C0.5 124.97, -2.27 94.1, 0 32 C-3.32 14.65, 10.39 -3.8, 32 0" stroke="none" stroke-width="0" fill="#ffc9c9"></path><path d="M32 0 C68.98 -0.65, 98.39 -3.83, 143 0 M32 0 C67.45 -0.39, 105.39 -2.48, 143 0 M143 0 C166.57 3.13, 175.34 11.42, 175 32 M143 0 C164.21 3.95, 177.29 10.56, 175 32 M175 32 C171.13 71.38, 175.08 112.65, 175 150.95 M175 32 C175.67 62.5, 173.77 93.51, 175 150.95 M175 150.95 C173.77 171.44, 165.85 182.42, 143 182.95 M175 150.95 C177.61 175.22, 163.39 181.65, 143 182.95 M143 182.95 C115.6 179.08, 90.96 179.64, 32 182.95 M143 182.95 C117.95 182.33, 93.08 184.18, 32 182.95 M32 182.95 C13.6 186.67, 2.57 175.17, 0 150.95 M32 182.95 C12.72 182.71, 3.78 175.84, 0 150.95 M0 150.95 C0.43 117.24, -1.57 78.87, 0 32 M0 150.95 C2.75 111.66, -0.08 68.36, 0 32 M0 32 C2.83 11.84, 13.95 0.46, 32 0 M0 32 C-4.15 14.33, 7.15 -3.79, 32 0" stroke="#1e1e1e" stroke-width="4" fill="none"></path></g><g stroke-linecap="round" transform="translate(124.74497759513179 45.91453943027591) rotate(50.75529013856277 15.774349912333946 23.194380924612233)"><path d="M20.04 0.56 C23.37 1.27, 27.2 5.69, 29.23 9.72 C31.25 13.76, 32.46 19.94, 32.17 24.77 C31.88 29.59, 29.82 35.19, 27.49 38.67 C25.15 42.16, 21.46 44.9, 18.16 45.7 C14.87 46.5, 10.55 46.18, 7.74 43.46 C4.94 40.75, 2.55 34.17, 1.34 29.41 C0.14 24.66, -0.75 19.25, 0.5 14.92 C1.76 10.58, 5.04 5.56, 8.86 3.39 C12.67 1.22, 20.32 1.44, 23.4 1.9 C26.48 2.35, 27.6 5.59, 27.32 6.1 M16.24 0.27 C19.11 0.38, 22.29 3.23, 24.59 6.39 C26.88 9.55, 29.17 14.62, 30.01 19.23 C30.86 23.85, 31.05 29.57, 29.66 34.07 C28.26 38.58, 25.09 44.55, 21.66 46.27 C18.23 47.98, 12.29 46.23, 9.09 44.36 C5.88 42.49, 3.85 39.47, 2.44 35.03 C1.02 30.6, 0.11 22.72, 0.58 17.77 C1.06 12.82, 2.7 8.12, 5.28 5.34 C7.86 2.55, 14.18 1.68, 16.07 1.05 C17.95 0.41, 16.54 1.36, 16.58 1.52" stroke="none" stroke-width="0" fill="#ff8787"></path><path d="M11.55 0.61 C14.55 -0.81, 19.26 0.29, 22.16 2.41 C25.07 4.53, 27.35 8.97, 28.97 13.33 C30.6 17.7, 32.5 23.88, 31.91 28.62 C31.31 33.36, 28.09 38.73, 25.39 41.77 C22.69 44.8, 19.13 47.09, 15.72 46.85 C12.31 46.61, 7.62 43.65, 4.93 40.3 C2.25 36.96, 0.12 31.72, -0.38 26.79 C-0.88 21.85, -0.41 14.96, 1.91 10.7 C4.24 6.44, 11.41 3.04, 13.56 1.25 C15.71 -0.54, 14.95 -0.42, 14.82 -0.04 M17.54 -0.08 C20.84 0.05, 25.61 3.59, 28.09 7.51 C30.56 11.42, 32.42 18.45, 32.39 23.38 C32.36 28.31, 30.23 33.36, 27.88 37.08 C25.53 40.8, 21.56 44.56, 18.3 45.69 C15.04 46.82, 11.39 45.92, 8.3 43.85 C5.2 41.78, 1.17 38.09, -0.29 33.28 C-1.74 28.46, -1.78 19.96, -0.44 14.95 C0.91 9.95, 4.64 5.71, 7.79 3.23 C10.94 0.75, 16.59 0.28, 18.46 0.06 C20.33 -0.16, 18.93 1.27, 19 1.91" stroke="#1e1e1e" stroke-width="4" fill="none"></path></g><g stroke-linecap="round" transform="translate(164.87203669984228 9.298737805245764) rotate(229.07198506677358 16.841744892220504 19.136679707406984)"><path d="M24.46 2.15 C27.66 3.56, 31.07 7.53, 32.56 11.06 C34.04 14.59, 34.23 19.52, 33.35 23.34 C32.47 27.17, 30.1 31.41, 27.26 34.02 C24.42 36.63, 19.87 39.29, 16.31 39.01 C12.75 38.73, 8.7 35.2, 5.88 32.36 C3.05 29.53, -0.16 25.82, -0.62 21.99 C-1.08 18.16, 0.97 13.07, 3.1 9.38 C5.23 5.69, 8.26 1.07, 12.19 -0.12 C16.12 -1.31, 24.23 1.35, 26.69 2.23 C29.15 3.11, 27.23 4.68, 26.94 5.16 M7.64 3.24 C10.27 1.17, 15.28 -0.03, 19.06 0.54 C22.84 1.12, 27.81 3.26, 30.32 6.69 C32.83 10.12, 34.51 17.01, 34.12 21.11 C33.74 25.21, 30.46 28.44, 28.02 31.3 C25.58 34.16, 22.78 37.85, 19.48 38.28 C16.19 38.71, 11.43 36.13, 8.26 33.91 C5.1 31.68, 1.62 28.4, 0.5 24.92 C-0.62 21.43, 0.01 16.61, 1.56 13.01 C3.11 9.41, 8.44 5.09, 9.78 3.29 C11.13 1.49, 9.51 2.27, 9.65 2.23" stroke="none" stroke-width="0" fill="#ff8787"></path><path d="M10.68 1.92 C13.57 0.38, 17.61 0.3, 21.15 1.49 C24.68 2.69, 29.81 5.7, 31.9 9.08 C34 12.46, 34.2 17.64, 33.71 21.77 C33.22 25.9, 31.69 31.07, 28.97 33.85 C26.26 36.64, 21.24 38.28, 17.41 38.49 C13.58 38.7, 8.94 37.63, 5.99 35.11 C3.03 32.59, 0.31 27.36, -0.31 23.36 C-0.93 19.36, 0.21 14.99, 2.28 11.11 C4.35 7.24, 10.14 1.71, 12.1 0.11 C14.05 -1.5, 13.81 1.09, 14.01 1.48 M24.14 1.39 C27.59 2.94, 31.31 7.94, 32.77 11.57 C34.23 15.21, 34.02 19.41, 32.91 23.2 C31.8 26.99, 28.98 31.79, 26.12 34.33 C23.26 36.87, 19.47 38.42, 15.75 38.44 C12.03 38.45, 6.62 37.47, 3.81 34.44 C1 31.41, -1 24.61, -1.11 20.25 C-1.22 15.89, 0.88 11.56, 3.16 8.29 C5.43 5.02, 8.96 1.52, 12.54 0.61 C16.11 -0.3, 22.62 2.36, 24.62 2.81 C26.62 3.27, 24.67 3.07, 24.54 3.34" stroke="#1e1e1e" stroke-width="4" fill="none"></path></g><g stroke-linecap="round" transform="translate(125.24709099339452 7.311470426979213) rotate(320.10422975833734 17.016015935369524 24.274668464821843)"><path d="M17.51 0.45 C20.85 -0.04, 25.21 2.12, 27.98 5.27 C30.76 8.43, 33.43 14.07, 34.16 19.36 C34.88 24.65, 34.09 32.51, 32.33 37.01 C30.57 41.51, 27.23 44.56, 23.6 46.37 C19.98 48.18, 14.09 49.35, 10.6 47.86 C7.11 46.37, 4.35 42.16, 2.64 37.4 C0.94 32.65, -0.34 24.75, 0.35 19.36 C1.04 13.96, 3.32 8.09, 6.77 5.04 C10.21 2, 17.79 1.1, 21.04 1.08 C24.28 1.07, 26.33 4.53, 26.23 4.96 M17.27 0.22 C20.99 0.08, 26.43 2.61, 29.29 6.5 C32.15 10.39, 34.37 18.35, 34.42 23.54 C34.47 28.72, 31.72 33.55, 29.59 37.62 C27.46 41.68, 24.91 46.74, 21.67 47.94 C18.42 49.13, 13.52 47.05, 10.12 44.79 C6.72 42.52, 2.78 38.63, 1.25 34.33 C-0.28 30.03, -0.22 23.78, 0.93 18.96 C2.08 14.14, 5.12 8.6, 8.15 5.39 C11.18 2.19, 17.23 0.7, 19.11 -0.25 C20.98 -1.2, 19.41 -0.74, 19.42 -0.31" stroke="none" stroke-width="0" fill="#ff8787"></path><path d="M13.04 0.96 C16.51 -0.31, 22.84 0.78, 26.2 3.25 C29.55 5.72, 31.87 10.83, 33.15 15.78 C34.44 20.72, 35.16 27.96, 33.91 32.91 C32.65 37.85, 28.98 42.74, 25.61 45.44 C22.24 48.13, 17.4 49.96, 13.7 49.1 C9.99 48.24, 5.62 44.21, 3.39 40.26 C1.16 36.31, 0.31 30.74, 0.31 25.41 C0.32 20.08, 0.93 12.36, 3.42 8.3 C5.9 4.23, 12.74 2.29, 15.21 1 C17.69 -0.3, 17.96 0.33, 18.24 0.52 M16.08 1.09 C19.35 0.23, 23.45 1, 26.21 3.72 C28.98 6.43, 31.59 12.27, 32.64 17.37 C33.7 22.47, 34.12 29.31, 32.52 34.33 C30.92 39.36, 26.53 45.44, 23.06 47.52 C19.59 49.6, 14.94 48.34, 11.69 46.8 C8.45 45.26, 5.47 42.35, 3.6 38.29 C1.74 34.23, 0.13 27.37, 0.5 22.43 C0.87 17.49, 3.18 12.13, 5.82 8.64 C8.45 5.16, 14.59 2.69, 16.33 1.53 C18.06 0.37, 16.27 1.54, 16.23 1.7" stroke="#1e1e1e" stroke-width="4" fill="none"></path></g><g stroke-linecap="round" transform="translate(158.8927771046001 45.65073183922141) rotate(320.10422975833734 18.320652317477652 20.66399156738771)"><path d="M23.47 0.51 C27.09 1.25, 31.64 4.73, 33.9 8.57 C36.16 12.41, 37.42 19.18, 37.05 23.56 C36.69 27.94, 34.73 31.79, 31.71 34.86 C28.68 37.93, 22.88 41.42, 18.9 41.98 C14.93 42.54, 10.91 41.09, 7.87 38.22 C4.83 35.36, 1.54 29.36, 0.67 24.8 C-0.21 20.24, 1.08 14.69, 2.64 10.87 C4.19 7.05, 5.91 3.17, 10.01 1.88 C14.11 0.59, 24 2.44, 27.23 3.13 C30.47 3.82, 29.56 5.97, 29.44 6.04 M24.52 0.47 C28.41 1.8, 32.74 7.55, 34.5 11.36 C36.26 15.16, 35.73 19.11, 35.08 23.29 C34.43 27.48, 33.3 33.72, 30.61 36.48 C27.92 39.24, 22.98 39.86, 18.95 39.87 C14.92 39.88, 9.49 38.94, 6.44 36.57 C3.39 34.19, 1.21 29.76, 0.66 25.61 C0.11 21.46, 1.21 15.76, 3.16 11.66 C5.11 7.56, 8.66 2.91, 12.34 1.01 C16.02 -0.89, 23.12 0.19, 25.22 0.24 C27.33 0.3, 25.09 1.03, 24.98 1.35" stroke="none" stroke-width="0" fill="#ff8787"></path><path d="M23.81 0.78 C27.66 1.51, 31.23 5.06, 33.5 8.75 C35.77 12.45, 37.8 18.47, 37.43 22.93 C37.06 27.38, 34.27 32.28, 31.28 35.48 C28.28 38.68, 23.48 41.74, 19.46 42.14 C15.44 42.53, 10.25 40.38, 7.16 37.85 C4.08 35.33, 1.93 31.4, 0.94 27 C-0.05 22.6, -0.26 15.47, 1.22 11.45 C2.7 7.43, 5.75 4.55, 9.81 2.9 C13.88 1.25, 22.57 1.58, 25.62 1.58 C28.68 1.57, 28.36 2.47, 28.17 2.85 M16.78 -0.38 C20.23 -1.12, 25.19 1.06, 28.4 3.78 C31.62 6.5, 35.24 11.35, 36.06 15.92 C36.88 20.49, 35.26 27.44, 33.34 31.21 C31.41 34.98, 27.8 37.03, 24.51 38.53 C21.22 40.04, 17.06 41.33, 13.57 40.24 C10.08 39.16, 5.63 35.43, 3.56 32 C1.49 28.57, 0.63 23.81, 1.15 19.67 C1.68 15.53, 3.91 10.24, 6.73 7.15 C9.55 4.06, 16.21 2.26, 18.06 1.13 C19.9 0, 17.72 0.02, 17.79 0.38" stroke="#1e1e1e" stroke-width="4" fill="none"></path></g><g stroke-linecap="round" transform="translate(142.85383527886916 30.014194324179698) rotate(320.10422975833734 19.385806521981976 19.385806521981976)"><path d="M24.07 -0.03 C28.04 0.78, 32.78 5.14, 35.33 8.42 C37.88 11.71, 39.79 15.53, 39.39 19.67 C38.98 23.81, 35.77 29.96, 32.89 33.25 C30.02 36.55, 26.11 39.18, 22.13 39.44 C18.15 39.69, 12.42 37.3, 9.01 34.79 C5.6 32.28, 3.06 28.17, 1.67 24.37 C0.28 20.57, -0.79 15.58, 0.68 11.97 C2.16 8.35, 6.07 4.24, 10.5 2.67 C14.94 1.09, 23.67 2.21, 27.3 2.5 C30.92 2.78, 32.11 4.28, 32.24 4.36 M20.64 1.31 C24.34 1.23, 28.08 1.8, 31.12 4.42 C34.16 7.03, 38.07 13.02, 38.9 17 C39.73 20.99, 38.44 24.85, 36.11 28.31 C33.78 31.76, 28.9 36.06, 24.94 37.73 C20.97 39.41, 15.99 39.74, 12.34 38.36 C8.69 36.98, 4.94 33.34, 3.05 29.43 C1.16 25.52, 0.1 19.27, 1 14.89 C1.9 10.51, 5.12 5.65, 8.45 3.14 C11.78 0.63, 18.88 0.44, 20.96 -0.17 C23.05 -0.78, 21.34 -0.66, 20.97 -0.54" stroke="none" stroke-width="0" fill="#ffc9c9"></path><path d="M24.92 0.72 C28.79 1.64, 34.03 5.56, 36.32 9.04 C38.6 12.53, 39.3 17.45, 38.64 21.64 C37.98 25.84, 35.46 31.33, 32.36 34.22 C29.27 37.11, 24.07 38.67, 20.06 38.97 C16.05 39.27, 11.63 38.59, 8.3 36.02 C4.97 33.46, 1.27 27.59, 0.09 23.56 C-1.09 19.53, -0.72 15.48, 1.23 11.84 C3.18 8.19, 7.58 3.53, 11.78 1.67 C15.99 -0.18, 24.06 0.65, 26.45 0.73 C28.85 0.8, 26.42 1.65, 26.16 2.1 M24.73 0.78 C28.6 1.88, 33.76 5.58, 35.82 9.39 C37.89 13.19, 37.93 19.7, 37.14 23.61 C36.35 27.51, 33.88 30.34, 31.08 32.82 C28.27 35.3, 24.2 38.22, 20.32 38.49 C16.45 38.76, 10.99 36.76, 7.84 34.44 C4.7 32.11, 2.19 28.36, 1.45 24.55 C0.72 20.74, 1.46 15.28, 3.41 11.6 C5.36 7.92, 9.38 4.24, 13.17 2.46 C16.96 0.68, 23.9 0.89, 26.13 0.9 C28.36 0.9, 26.79 1.96, 26.57 2.5" stroke="#1e1e1e" stroke-width="4" fill="none"></path></g><g stroke-linecap="round" transform="translate(88.94993728256577 204.20950046590042) rotate(0 36.830566096031816 21.99603252957513)"><path d="M27.79 2.38 C34.95 0.84, 46.38 -1.27, 53.17 0.64 C59.96 2.54, 65.19 9.09, 68.52 13.82 C71.84 18.55, 74.78 24.98, 73.13 29.01 C71.49 33.05, 64.86 35.79, 58.63 38.02 C52.4 40.25, 43.94 42.42, 35.76 42.4 C27.57 42.39, 15.46 40.79, 9.53 37.94 C3.6 35.08, 1.04 29.87, 0.18 25.27 C-0.67 20.67, -4.24 14.52, 4.4 10.33 C13.04 6.14, 41.01 0.09, 52.02 0.13 C63.02 0.18, 70.7 9.93, 70.42 10.6 M18.31 0.85 C24.82 -1.7, 38.45 0.17, 46.65 1.08 C54.85 1.99, 63.13 2.58, 67.51 6.31 C71.89 10.04, 73.53 17.93, 72.91 23.46 C72.28 28.99, 68.91 35.75, 63.77 39.5 C58.63 43.26, 49.84 46, 42.05 45.99 C34.27 45.98, 23.56 42.75, 17.07 39.43 C10.59 36.12, 5.17 30.57, 3.14 26.09 C1.1 21.6, 1.63 16.81, 4.86 12.51 C8.1 8.21, 20.27 2.38, 22.56 0.26 C24.84 -1.85, 18.77 -1.02, 18.54 -0.18" stroke="none" stroke-width="0" fill="#1e1e1e"></path><path d="M41.71 1.08 C49.15 1.27, 57.66 3.42, 62.8 6.88 C67.94 10.34, 72.06 17.13, 72.54 21.83 C73.02 26.53, 69.93 31.19, 65.67 35.07 C61.42 38.96, 54.58 44.17, 47.03 45.15 C39.47 46.12, 27.84 42.9, 20.34 40.91 C12.83 38.92, 5.09 37.31, 2 33.21 C-1.09 29.12, -0.74 21.3, 1.81 16.32 C4.36 11.35, 5.89 3.73, 17.31 3.38 C28.74 3.03, 62.51 8.66, 70.36 14.24 C78.21 19.81, 64.7 36.89, 64.42 36.84 M26.43 1.28 C33.26 0.3, 41.97 3.25, 48.81 4.73 C55.64 6.22, 63.34 6.54, 67.43 10.2 C71.51 13.86, 74.62 21.82, 73.3 26.68 C71.99 31.55, 65.66 36.11, 59.53 39.39 C53.4 42.68, 44.18 46.17, 36.52 46.38 C28.86 46.59, 19.29 43.98, 13.56 40.67 C7.84 37.37, 3.15 31.73, 2.15 26.55 C1.15 21.38, 3.07 13.51, 7.54 9.62 C12.02 5.73, 25.8 4.14, 28.99 3.2 C32.17 2.26, 26.64 3.68, 26.68 3.97" stroke="#1e1e1e" stroke-width="4" fill="none"></path></g></svg>